<svg width="359" height="258" viewBox="0 0 359 258" fill="none" xmlns="http://www.w3.org/2000/svg">
<rect width="359" height="258" rx="20" fill="white" fill-opacity="0.14"/>
<rect x="0.5" y="0.5" width="358" height="257" rx="19.5" stroke="white" stroke-opacity="0.25"/>
<path d="M29.598 28.644V44H26.518V28.644H29.598ZM35.721 27.72V44H32.641V27.72H35.721ZM47.5923 34.342V40.238C47.5923 40.6487 47.6876 40.9493 47.8783 41.14C48.0836 41.316 48.4209 41.404 48.8903 41.404H50.3203V44H48.3843C45.7883 44 44.4903 42.7387 44.4903 40.216V34.342H43.0383V31.812H44.4903V28.798H47.5923V31.812H50.3203V34.342H47.5923ZM64.0416 31.812V44H60.9396V42.46C60.5436 42.988 60.0229 43.406 59.3776 43.714C58.7469 44.0073 58.0576 44.154 57.3096 44.154C56.3562 44.154 55.5129 43.956 54.7796 43.56C54.0462 43.1493 53.4669 42.5553 53.0416 41.778C52.6309 40.986 52.4256 40.0473 52.4256 38.962V31.812H55.5056V38.522C55.5056 39.49 55.7476 40.238 56.2316 40.766C56.7156 41.2793 57.3756 41.536 58.2116 41.536C59.0622 41.536 59.7296 41.2793 60.2136 40.766C60.6976 40.238 60.9396 39.49 60.9396 38.522V31.812H64.0416ZM72.4925 44.198C71.3192 44.198 70.2632 43.9413 69.3245 43.428C68.3858 42.9 67.6452 42.1593 67.1025 41.206C66.5745 40.2527 66.3105 39.1527 66.3105 37.906C66.3105 36.6593 66.5818 35.5593 67.1245 34.606C67.6818 33.6527 68.4372 32.9193 69.3905 32.406C70.3438 31.878 71.4072 31.614 72.5805 31.614C73.7538 31.614 74.8172 31.878 75.7705 32.406C76.7238 32.9193 77.4718 33.6527 78.0145 34.606C78.5718 35.5593 78.8505 36.6593 78.8505 37.906C78.8505 39.1527 78.5645 40.2527 77.9925 41.206C77.4352 42.1593 76.6725 42.9 75.7045 43.428C74.7512 43.9413 73.6805 44.198 72.4925 44.198ZM72.4925 41.514C73.0498 41.514 73.5705 41.382 74.0545 41.118C74.5532 40.8393 74.9492 40.4287 75.2425 39.886C75.5358 39.3433 75.6825 38.6833 75.6825 37.906C75.6825 36.7473 75.3745 35.86 74.7585 35.244C74.1572 34.6133 73.4165 34.298 72.5365 34.298C71.6565 34.298 70.9158 34.6133 70.3145 35.244C69.7278 35.86 69.4345 36.7473 69.4345 37.906C69.4345 39.0647 69.7205 39.9593 70.2925 40.59C70.8792 41.206 71.6125 41.514 72.4925 41.514ZM89.432 33.704C89.828 33.0587 90.3413 32.5527 90.972 32.186C91.6173 31.8193 92.3507 31.636 93.172 31.636V34.87H92.358C91.39 34.87 90.6567 35.0973 90.158 35.552C89.674 36.0067 89.432 36.7987 89.432 37.928V44H86.352V31.812H89.432V33.704ZM96.8085 30.36C96.2658 30.36 95.8112 30.1913 95.4445 29.854C95.0925 29.502 94.9165 29.0693 94.9165 28.556C94.9165 28.0427 95.0925 27.6173 95.4445 27.28C95.8112 26.928 96.2658 26.752 96.8085 26.752C97.3512 26.752 97.7985 26.928 98.1505 27.28C98.5172 27.6173 98.7005 28.0427 98.7005 28.556C98.7005 29.0693 98.5172 29.502 98.1505 29.854C97.7985 30.1913 97.3512 30.36 96.8085 30.36ZM98.3265 31.812V44H95.2465V31.812H98.3265ZM106.034 44.198C105.036 44.198 104.142 44.022 103.35 43.67C102.558 43.3033 101.927 42.812 101.458 42.196C101.003 41.58 100.754 40.898 100.71 40.15H103.812C103.87 40.6193 104.098 41.008 104.494 41.316C104.904 41.624 105.41 41.778 106.012 41.778C106.598 41.778 107.053 41.6607 107.376 41.426C107.713 41.1913 107.882 40.8907 107.882 40.524C107.882 40.128 107.676 39.8347 107.266 39.644C106.87 39.4387 106.232 39.2187 105.352 38.984C104.442 38.764 103.694 38.5367 103.108 38.302C102.536 38.0673 102.037 37.708 101.612 37.224C101.201 36.74 100.996 36.0873 100.996 35.266C100.996 34.5913 101.186 33.9753 101.568 33.418C101.964 32.8607 102.521 32.4207 103.24 32.098C103.973 31.7753 104.831 31.614 105.814 31.614C107.266 31.614 108.424 31.9807 109.29 32.714C110.155 33.4327 110.632 34.408 110.72 35.64H107.772C107.728 35.156 107.522 34.7747 107.156 34.496C106.804 34.2027 106.327 34.056 105.726 34.056C105.168 34.056 104.736 34.1587 104.428 34.364C104.134 34.5693 103.988 34.8553 103.988 35.222C103.988 35.6327 104.193 35.948 104.604 36.168C105.014 36.3733 105.652 36.586 106.518 36.806C107.398 37.026 108.124 37.2533 108.696 37.488C109.268 37.7227 109.759 38.0893 110.17 38.588C110.595 39.072 110.815 39.7173 110.83 40.524C110.83 41.228 110.632 41.8587 110.236 42.416C109.854 42.9733 109.297 43.4133 108.564 43.736C107.845 44.044 107.002 44.198 106.034 44.198ZM118.44 41.162L121.52 31.812H124.798L120.288 44H116.548L112.06 31.812H115.36L118.44 41.162ZM137.858 37.642C137.858 38.082 137.828 38.478 137.77 38.83H128.86C128.933 39.71 129.241 40.3993 129.784 40.898C130.326 41.3967 130.994 41.646 131.786 41.646C132.93 41.646 133.744 41.1547 134.228 40.172H137.55C137.198 41.3453 136.523 42.3133 135.526 43.076C134.528 43.824 133.304 44.198 131.852 44.198C130.678 44.198 129.622 43.9413 128.684 43.428C127.76 42.9 127.034 42.1593 126.506 41.206C125.992 40.2527 125.736 39.1527 125.736 37.906C125.736 36.6447 125.992 35.5373 126.506 34.584C127.019 33.6307 127.738 32.8973 128.662 32.384C129.586 31.8707 130.649 31.614 131.852 31.614C133.01 31.614 134.044 31.8633 134.954 32.362C135.878 32.8607 136.589 33.572 137.088 34.496C137.601 35.4053 137.858 36.454 137.858 37.642ZM134.668 36.762C134.653 35.97 134.367 35.3393 133.81 34.87C133.252 34.386 132.57 34.144 131.764 34.144C131.001 34.144 130.356 34.3787 129.828 34.848C129.314 35.3027 128.999 35.9407 128.882 36.762H134.668ZM144.88 31.614C145.789 31.614 146.589 31.7973 147.278 32.164C147.967 32.516 148.51 32.978 148.906 33.55V31.812H152.008V44.088C152.008 45.2173 151.781 46.222 151.326 47.102C150.871 47.9967 150.189 48.7007 149.28 49.214C148.371 49.742 147.271 50.006 145.98 50.006C144.249 50.006 142.827 49.6027 141.712 48.796C140.612 47.9893 139.989 46.8893 139.842 45.496H142.9C143.061 46.0533 143.406 46.4933 143.934 46.816C144.477 47.1533 145.129 47.322 145.892 47.322C146.787 47.322 147.513 47.0507 148.07 46.508C148.627 45.98 148.906 45.1733 148.906 44.088V42.196C148.51 42.768 147.96 43.2447 147.256 43.626C146.567 44.0073 145.775 44.198 144.88 44.198C143.853 44.198 142.915 43.934 142.064 43.406C141.213 42.878 140.539 42.1373 140.04 41.184C139.556 40.216 139.314 39.1087 139.314 37.862C139.314 36.63 139.556 35.5373 140.04 34.584C140.539 33.6307 141.206 32.8973 142.042 32.384C142.893 31.8707 143.839 31.614 144.88 31.614ZM148.906 37.906C148.906 37.158 148.759 36.52 148.466 35.992C148.173 35.4493 147.777 35.0387 147.278 34.76C146.779 34.4667 146.244 34.32 145.672 34.32C145.1 34.32 144.572 34.4593 144.088 34.738C143.604 35.0167 143.208 35.4273 142.9 35.97C142.607 36.498 142.46 37.1287 142.46 37.862C142.46 38.5953 142.607 39.2407 142.9 39.798C143.208 40.3407 143.604 40.7587 144.088 41.052C144.587 41.3453 145.115 41.492 145.672 41.492C146.244 41.492 146.779 41.3527 147.278 41.074C147.777 40.7807 148.173 40.37 148.466 39.842C148.759 39.2993 148.906 38.654 148.906 37.906ZM158.096 27.72V44H155.016V27.72H158.096ZM162.701 30.36C162.158 30.36 161.704 30.1913 161.337 29.854C160.985 29.502 160.809 29.0693 160.809 28.556C160.809 28.0427 160.985 27.6173 161.337 27.28C161.704 26.928 162.158 26.752 162.701 26.752C163.244 26.752 163.691 26.928 164.043 27.28C164.41 27.6173 164.593 28.0427 164.593 28.556C164.593 29.0693 164.41 29.502 164.043 29.854C163.691 30.1913 163.244 30.36 162.701 30.36ZM164.219 31.812V44H161.139V31.812H164.219ZM172.674 44.198C171.501 44.198 170.445 43.9413 169.506 43.428C168.567 42.9 167.827 42.1593 167.284 41.206C166.756 40.2527 166.492 39.1527 166.492 37.906C166.492 36.6593 166.763 35.5593 167.306 34.606C167.863 33.6527 168.619 32.9193 169.572 32.406C170.525 31.878 171.589 31.614 172.762 31.614C173.935 31.614 174.999 31.878 175.952 32.406C176.905 32.9193 177.653 33.6527 178.196 34.606C178.753 35.5593 179.032 36.6593 179.032 37.906C179.032 39.1527 178.746 40.2527 178.174 41.206C177.617 42.1593 176.854 42.9 175.886 43.428C174.933 43.9413 173.862 44.198 172.674 44.198ZM172.674 41.514C173.231 41.514 173.752 41.382 174.236 41.118C174.735 40.8393 175.131 40.4287 175.424 39.886C175.717 39.3433 175.864 38.6833 175.864 37.906C175.864 36.7473 175.556 35.86 174.94 35.244C174.339 34.6133 173.598 34.298 172.718 34.298C171.838 34.298 171.097 34.6133 170.496 35.244C169.909 35.86 169.616 36.7473 169.616 37.906C169.616 39.0647 169.902 39.9593 170.474 40.59C171.061 41.206 171.794 41.514 172.674 41.514Z" fill="white"/>
<path d="M31.288 74.112C30.2533 74.112 29.3093 73.872 28.456 73.392C27.6027 72.9013 26.9253 72.224 26.424 71.36C25.9333 70.4853 25.688 69.504 25.688 68.416C25.688 67.328 25.9333 66.352 26.424 65.488C26.9253 64.6133 27.6027 63.936 28.456 63.456C29.3093 62.9653 30.2533 62.72 31.288 62.72C32.3333 62.72 33.2827 62.9653 34.136 63.456C34.9893 63.936 35.6613 64.608 36.152 65.472C36.6427 66.336 36.888 67.3173 36.888 68.416C36.888 69.5147 36.6427 70.496 36.152 71.36C35.6613 72.224 34.9893 72.9013 34.136 73.392C33.2827 73.872 32.3333 74.112 31.288 74.112ZM31.288 72.848C32.0667 72.848 32.7653 72.6667 33.384 72.304C34.0133 71.9413 34.504 71.424 34.856 70.752C35.2187 70.08 35.4 69.3013 35.4 68.416C35.4 67.52 35.2187 66.7413 34.856 66.08C34.504 65.408 34.0187 64.8907 33.4 64.528C32.7813 64.1653 32.0773 63.984 31.288 63.984C30.4987 63.984 29.7947 64.1653 29.176 64.528C28.5573 64.8907 28.0667 65.408 27.704 66.08C27.352 66.7413 27.176 67.52 27.176 68.416C27.176 69.3013 27.352 70.08 27.704 70.752C28.0667 71.424 28.5573 71.9413 29.176 72.304C29.8053 72.6667 30.5093 72.848 31.288 72.848ZM42.4261 65.088C43.1835 65.088 43.8448 65.2533 44.4101 65.584C44.9861 65.9147 45.4128 66.3307 45.6901 66.832V65.232H47.1621V74.192C47.1621 74.992 46.9915 75.7013 46.6501 76.32C46.3088 76.9493 45.8181 77.44 45.1781 77.792C44.5488 78.144 43.8128 78.32 42.9701 78.32C41.8181 78.32 40.8581 78.048 40.0901 77.504C39.3221 76.96 38.8688 76.2187 38.7301 75.28H40.1701C40.3301 75.8133 40.6608 76.24 41.1621 76.56C41.6635 76.8907 42.2661 77.056 42.9701 77.056C43.7701 77.056 44.4208 76.8053 44.9221 76.304C45.4341 75.8027 45.6901 75.0987 45.6901 74.192V72.352C45.4021 72.864 44.9755 73.2907 44.4101 73.632C43.8448 73.9733 43.1835 74.144 42.4261 74.144C41.6475 74.144 40.9381 73.952 40.2981 73.568C39.6688 73.184 39.1728 72.6453 38.8101 71.952C38.4475 71.2587 38.2661 70.4693 38.2661 69.584C38.2661 68.688 38.4475 67.904 38.8101 67.232C39.1728 66.5493 39.6688 66.0213 40.2981 65.648C40.9381 65.2747 41.6475 65.088 42.4261 65.088ZM45.6901 69.6C45.6901 68.9387 45.5568 68.3627 45.2901 67.872C45.0235 67.3813 44.6608 67.008 44.2021 66.752C43.7541 66.4853 43.2581 66.352 42.7141 66.352C42.1701 66.352 41.6741 66.48 41.2261 66.736C40.7781 66.992 40.4208 67.3653 40.1541 67.856C39.8875 68.3467 39.7541 68.9227 39.7541 69.584C39.7541 70.256 39.8875 70.8427 40.1541 71.344C40.4208 71.8347 40.7781 72.2133 41.2261 72.48C41.6741 72.736 42.1701 72.864 42.7141 72.864C43.2581 72.864 43.7541 72.736 44.2021 72.48C44.6608 72.2133 45.0235 71.8347 45.2901 71.344C45.5568 70.8427 45.6901 70.2613 45.6901 69.6ZM53.8946 65.072C54.9613 65.072 55.8253 65.3973 56.4866 66.048C57.148 66.688 57.4786 67.616 57.4786 68.832V74H56.0386V69.04C56.0386 68.1653 55.82 67.4987 55.3826 67.04C54.9453 66.5707 54.348 66.336 53.5906 66.336C52.8226 66.336 52.2093 66.576 51.7506 67.056C51.3026 67.536 51.0786 68.2347 51.0786 69.152V74H49.6226V65.232H51.0786V66.48C51.3666 66.032 51.756 65.6853 52.2466 65.44C52.748 65.1947 53.2973 65.072 53.8946 65.072ZM60.609 63.808C60.3317 63.808 60.097 63.712 59.905 63.52C59.713 63.328 59.617 63.0933 59.617 62.816C59.617 62.5387 59.713 62.304 59.905 62.112C60.097 61.92 60.3317 61.824 60.609 61.824C60.8757 61.824 61.0997 61.92 61.281 62.112C61.473 62.304 61.569 62.5387 61.569 62.816C61.569 63.0933 61.473 63.328 61.281 63.52C61.0997 63.712 60.8757 63.808 60.609 63.808ZM61.313 65.232V74H59.857V65.232H61.313ZM78.6041 65.072C79.2868 65.072 79.8948 65.216 80.4281 65.504C80.9615 65.7813 81.3828 66.2027 81.6921 66.768C82.0015 67.3333 82.1561 68.0213 82.1561 68.832V74H80.7161V69.04C80.7161 68.1653 80.4975 67.4987 80.0601 67.04C79.6335 66.5707 79.0521 66.336 78.3161 66.336C77.5588 66.336 76.9561 66.5813 76.5081 67.072C76.0601 67.552 75.8361 68.2507 75.8361 69.168V74H74.3961V69.04C74.3961 68.1653 74.1775 67.4987 73.7401 67.04C73.3135 66.5707 72.7321 66.336 71.9961 66.336C71.2388 66.336 70.6361 66.5813 70.1881 67.072C69.7401 67.552 69.5161 68.2507 69.5161 69.168V74H68.0601V65.232H69.5161V66.496C69.8041 66.0373 70.1881 65.6853 70.6681 65.44C71.1588 65.1947 71.6975 65.072 72.2841 65.072C73.0201 65.072 73.6708 65.2373 74.2361 65.568C74.8015 65.8987 75.2228 66.384 75.5001 67.024C75.7455 66.4053 76.1508 65.9253 76.7161 65.584C77.2815 65.2427 77.9108 65.072 78.6041 65.072ZM84.0005 69.584C84.0005 68.688 84.1818 67.904 84.5445 67.232C84.9072 66.5493 85.4032 66.0213 86.0325 65.648C86.6725 65.2747 87.3818 65.088 88.1605 65.088C88.9285 65.088 89.5952 65.2533 90.1605 65.584C90.7258 65.9147 91.1472 66.3307 91.4245 66.832V65.232H92.8965V74H91.4245V72.368C91.1365 72.88 90.7045 73.3067 90.1285 73.648C89.5632 73.9787 88.9018 74.144 88.1445 74.144C87.3658 74.144 86.6618 73.952 86.0325 73.568C85.4032 73.184 84.9072 72.6453 84.5445 71.952C84.1818 71.2587 84.0005 70.4693 84.0005 69.584ZM91.4245 69.6C91.4245 68.9387 91.2912 68.3627 91.0245 67.872C90.7578 67.3813 90.3952 67.008 89.9365 66.752C89.4885 66.4853 88.9925 66.352 88.4485 66.352C87.9045 66.352 87.4085 66.48 86.9605 66.736C86.5125 66.992 86.1552 67.3653 85.8885 67.856C85.6218 68.3467 85.4885 68.9227 85.4885 69.584C85.4885 70.256 85.6218 70.8427 85.8885 71.344C86.1552 71.8347 86.5125 72.2133 86.9605 72.48C87.4085 72.736 87.9045 72.864 88.4485 72.864C88.9925 72.864 89.4885 72.736 89.9365 72.48C90.3952 72.2133 90.7578 71.8347 91.0245 71.344C91.2912 70.8427 91.4245 70.2613 91.4245 69.6ZM97.133 66.432V71.6C97.133 72.0267 97.2237 72.3307 97.405 72.512C97.5863 72.6827 97.901 72.768 98.349 72.768H99.421V74H98.109C97.2983 74 96.6903 73.8133 96.285 73.44C95.8797 73.0667 95.677 72.4533 95.677 71.6V66.432H94.541V65.232H95.677V63.024H97.133V65.232H99.421V66.432H97.133ZM102.961 66.432V71.6C102.961 72.0267 103.052 72.3307 103.233 72.512C103.414 72.6827 103.729 72.768 104.177 72.768H105.249V74H103.937C103.126 74 102.518 73.8133 102.113 73.44C101.708 73.0667 101.505 72.4533 101.505 71.6V66.432H100.369V65.232H101.505V63.024H102.961V65.232H105.249V66.432H102.961ZM107.765 63.808C107.488 63.808 107.253 63.712 107.061 63.52C106.869 63.328 106.773 63.0933 106.773 62.816C106.773 62.5387 106.869 62.304 107.061 62.112C107.253 61.92 107.488 61.824 107.765 61.824C108.032 61.824 108.256 61.92 108.437 62.112C108.629 62.304 108.725 62.5387 108.725 62.816C108.725 63.0933 108.629 63.328 108.437 63.52C108.256 63.712 108.032 63.808 107.765 63.808ZM108.469 65.232V74H107.013V65.232H108.469ZM115.223 65.072C116.289 65.072 117.153 65.3973 117.815 66.048C118.476 66.688 118.807 67.616 118.807 68.832V74H117.367V69.04C117.367 68.1653 117.148 67.4987 116.711 67.04C116.273 66.5707 115.676 66.336 114.919 66.336C114.151 66.336 113.537 66.576 113.079 67.056C112.631 67.536 112.407 68.2347 112.407 69.152V74H110.951V65.232H112.407V66.48C112.695 66.032 113.084 65.6853 113.575 65.44C114.076 65.1947 114.625 65.072 115.223 65.072ZM120.641 69.584C120.641 68.688 120.822 67.904 121.185 67.232C121.548 66.5493 122.044 66.0213 122.673 65.648C123.313 65.2747 124.022 65.088 124.801 65.088C125.569 65.088 126.236 65.2533 126.801 65.584C127.366 65.9147 127.788 66.3307 128.065 66.832V65.232H129.537V74H128.065V72.368C127.777 72.88 127.345 73.3067 126.769 73.648C126.204 73.9787 125.542 74.144 124.785 74.144C124.006 74.144 123.302 73.952 122.673 73.568C122.044 73.184 121.548 72.6453 121.185 71.952C120.822 71.2587 120.641 70.4693 120.641 69.584ZM128.065 69.6C128.065 68.9387 127.932 68.3627 127.665 67.872C127.398 67.3813 127.036 67.008 126.577 66.752C126.129 66.4853 125.633 66.352 125.089 66.352C124.545 66.352 124.049 66.48 123.601 66.736C123.153 66.992 122.796 67.3653 122.529 67.856C122.262 68.3467 122.129 68.9227 122.129 69.584C122.129 70.256 122.262 70.8427 122.529 71.344C122.796 71.8347 123.153 72.2133 123.601 72.48C124.049 72.736 124.545 72.864 125.089 72.864C125.633 72.864 126.129 72.736 126.577 72.48C127.036 72.2133 127.398 71.8347 127.665 71.344C127.932 70.8427 128.065 70.2613 128.065 69.6ZM135.719 69.584C135.719 68.688 135.901 67.904 136.263 67.232C136.626 66.5493 137.122 66.0213 137.751 65.648C138.391 65.2747 139.101 65.088 139.879 65.088C140.647 65.088 141.314 65.2533 141.879 65.584C142.445 65.9147 142.866 66.3307 143.143 66.832V65.232H144.615V74H143.143V72.368C142.855 72.88 142.423 73.3067 141.847 73.648C141.282 73.9787 140.621 74.144 139.863 74.144C139.085 74.144 138.381 73.952 137.751 73.568C137.122 73.184 136.626 72.6453 136.263 71.952C135.901 71.2587 135.719 70.4693 135.719 69.584ZM143.143 69.6C143.143 68.9387 143.01 68.3627 142.743 67.872C142.477 67.3813 142.114 67.008 141.655 66.752C141.207 66.4853 140.711 66.352 140.167 66.352C139.623 66.352 139.127 66.48 138.679 66.736C138.231 66.992 137.874 67.3653 137.607 67.856C137.341 68.3467 137.207 68.9227 137.207 69.584C137.207 70.256 137.341 70.8427 137.607 71.344C137.874 71.8347 138.231 72.2133 138.679 72.48C139.127 72.736 139.623 72.864 140.167 72.864C140.711 72.864 141.207 72.736 141.655 72.48C142.114 72.2133 142.477 71.8347 142.743 71.344C143.01 70.8427 143.143 70.2613 143.143 69.6ZM148.532 62.16V74H147.076V62.16H148.532ZM152.469 62.16V74H151.013V62.16H152.469ZM162.951 69.28C162.951 69.5573 162.935 69.8507 162.903 70.16H155.895C155.948 71.024 156.241 71.7013 156.775 72.192C157.319 72.672 157.975 72.912 158.743 72.912C159.372 72.912 159.895 72.768 160.311 72.48C160.737 72.1813 161.036 71.7867 161.207 71.296H162.775C162.54 72.1387 162.071 72.8267 161.367 73.36C160.663 73.8827 159.788 74.144 158.743 74.144C157.911 74.144 157.164 73.9573 156.503 73.584C155.852 73.2107 155.34 72.6827 154.967 72C154.593 71.3067 154.407 70.5067 154.407 69.6C154.407 68.6933 154.588 67.8987 154.951 67.216C155.313 66.5333 155.82 66.0107 156.471 65.648C157.132 65.2747 157.889 65.088 158.743 65.088C159.575 65.088 160.311 65.2693 160.951 65.632C161.591 65.9947 162.081 66.496 162.423 67.136C162.775 67.7653 162.951 68.48 162.951 69.28ZM161.447 68.976C161.447 68.4213 161.324 67.9467 161.079 67.552C160.833 67.1467 160.497 66.8427 160.071 66.64C159.655 66.4267 159.191 66.32 158.679 66.32C157.943 66.32 157.313 66.5547 156.791 67.024C156.279 67.4933 155.985 68.144 155.911 68.976H161.447ZM176.018 63.568L171.57 74H170.098L174.61 63.712H168.434V62.464H176.018V63.568ZM178.337 74.096C178.059 74.096 177.825 74 177.633 73.808C177.441 73.616 177.345 73.3813 177.345 73.104C177.345 72.8267 177.441 72.592 177.633 72.4C177.825 72.208 178.059 72.112 178.337 72.112C178.603 72.112 178.827 72.208 179.009 72.4C179.201 72.592 179.297 72.8267 179.297 73.104C179.297 73.3813 179.201 73.616 179.009 73.808C178.827 74 178.603 74.096 178.337 74.096ZM178.337 67.248C178.059 67.248 177.825 67.152 177.633 66.96C177.441 66.768 177.345 66.5333 177.345 66.256C177.345 65.9787 177.441 65.744 177.633 65.552C177.825 65.36 178.059 65.264 178.337 65.264C178.603 65.264 178.827 65.36 179.009 65.552C179.201 65.744 179.297 65.9787 179.297 66.256C179.297 66.5333 179.201 66.768 179.009 66.96C178.827 67.152 178.603 67.248 178.337 67.248ZM180.655 63.76V62.432H183.663V74H182.191V63.76H180.655ZM193.54 63.696H187.924V67.344C188.169 67.0027 188.532 66.7253 189.012 66.512C189.492 66.288 190.009 66.176 190.564 66.176C191.449 66.176 192.169 66.3627 192.724 66.736C193.279 67.0987 193.673 67.5733 193.908 68.16C194.153 68.736 194.276 69.3493 194.276 70C194.276 70.768 194.132 71.456 193.844 72.064C193.556 72.672 193.113 73.152 192.516 73.504C191.929 73.856 191.199 74.032 190.324 74.032C189.204 74.032 188.297 73.744 187.604 73.168C186.911 72.592 186.489 71.824 186.34 70.864H187.764C187.903 71.472 188.196 71.9467 188.644 72.288C189.092 72.6293 189.657 72.8 190.34 72.8C191.183 72.8 191.817 72.5493 192.244 72.048C192.671 71.536 192.884 70.864 192.884 70.032C192.884 69.2 192.671 68.56 192.244 68.112C191.817 67.6533 191.188 67.424 190.356 67.424C189.791 67.424 189.295 67.5627 188.868 67.84C188.452 68.1067 188.148 68.4747 187.956 68.944H186.58V62.416H193.54V63.696ZM200.172 69.584C200.172 68.688 200.354 67.904 200.716 67.232C201.079 66.5493 201.575 66.0213 202.204 65.648C202.844 65.2747 203.554 65.088 204.332 65.088C205.1 65.088 205.767 65.2533 206.332 65.584C206.898 65.9147 207.319 66.3307 207.596 66.832V65.232H209.068V74H207.596V72.368C207.308 72.88 206.876 73.3067 206.3 73.648C205.735 73.9787 205.074 74.144 204.316 74.144C203.538 74.144 202.834 73.952 202.204 73.568C201.575 73.184 201.079 72.6453 200.716 71.952C200.354 71.2587 200.172 70.4693 200.172 69.584ZM207.596 69.6C207.596 68.9387 207.463 68.3627 207.196 67.872C206.93 67.3813 206.567 67.008 206.108 66.752C205.66 66.4853 205.164 66.352 204.62 66.352C204.076 66.352 203.58 66.48 203.132 66.736C202.684 66.992 202.327 67.3653 202.06 67.856C201.794 68.3467 201.66 68.9227 201.66 69.584C201.66 70.256 201.794 70.8427 202.06 71.344C202.327 71.8347 202.684 72.2133 203.132 72.48C203.58 72.736 204.076 72.864 204.62 72.864C205.164 72.864 205.66 72.736 206.108 72.48C206.567 72.2133 206.93 71.8347 207.196 71.344C207.463 70.8427 207.596 70.2613 207.596 69.6ZM210.985 69.6C210.985 68.6933 211.166 67.904 211.529 67.232C211.892 66.5493 212.393 66.0213 213.033 65.648C213.684 65.2747 214.425 65.088 215.257 65.088C216.334 65.088 217.22 65.3493 217.913 65.872C218.617 66.3947 219.081 67.12 219.305 68.048H217.737C217.588 67.5147 217.294 67.0933 216.857 66.784C216.43 66.4747 215.897 66.32 215.257 66.32C214.425 66.32 213.753 66.608 213.241 67.184C212.729 67.7493 212.473 68.5547 212.473 69.6C212.473 70.656 212.729 71.472 213.241 72.048C213.753 72.624 214.425 72.912 215.257 72.912C215.897 72.912 216.43 72.7627 216.857 72.464C217.284 72.1653 217.577 71.7387 217.737 71.184H219.305C219.07 72.08 218.601 72.8 217.897 73.344C217.193 73.8773 216.313 74.144 215.257 74.144C214.425 74.144 213.684 73.9573 213.033 73.584C212.393 73.2107 211.892 72.6827 211.529 72C211.166 71.3173 210.985 70.5173 210.985 69.6ZM220.704 69.6C220.704 68.6933 220.885 67.904 221.248 67.232C221.61 66.5493 222.112 66.0213 222.752 65.648C223.402 65.2747 224.144 65.088 224.976 65.088C226.053 65.088 226.938 65.3493 227.632 65.872C228.336 66.3947 228.8 67.12 229.024 68.048H227.456C227.306 67.5147 227.013 67.0933 226.576 66.784C226.149 66.4747 225.616 66.32 224.976 66.32C224.144 66.32 223.472 66.608 222.96 67.184C222.448 67.7493 222.192 68.5547 222.192 69.6C222.192 70.656 222.448 71.472 222.96 72.048C223.472 72.624 224.144 72.912 224.976 72.912C225.616 72.912 226.149 72.7627 226.576 72.464C227.002 72.1653 227.296 71.7387 227.456 71.184H229.024C228.789 72.08 228.32 72.8 227.616 73.344C226.912 73.8773 226.032 74.144 224.976 74.144C224.144 74.144 223.402 73.9573 222.752 73.584C222.112 73.2107 221.61 72.6827 221.248 72C220.885 71.3173 220.704 70.5173 220.704 69.6ZM238.966 69.28C238.966 69.5573 238.95 69.8507 238.918 70.16H231.91C231.964 71.024 232.257 71.7013 232.79 72.192C233.334 72.672 233.99 72.912 234.758 72.912C235.388 72.912 235.91 72.768 236.326 72.48C236.753 72.1813 237.052 71.7867 237.222 71.296H238.79C238.556 72.1387 238.086 72.8267 237.382 73.36C236.678 73.8827 235.804 74.144 234.758 74.144C233.926 74.144 233.18 73.9573 232.518 73.584C231.868 73.2107 231.356 72.6827 230.982 72C230.609 71.3067 230.422 70.5067 230.422 69.6C230.422 68.6933 230.604 67.8987 230.966 67.216C231.329 66.5333 231.836 66.0107 232.486 65.648C233.148 65.2747 233.905 65.088 234.758 65.088C235.59 65.088 236.326 65.2693 236.966 65.632C237.606 65.9947 238.097 66.496 238.438 67.136C238.79 67.7653 238.966 68.48 238.966 69.28ZM237.462 68.976C237.462 68.4213 237.34 67.9467 237.094 67.552C236.849 67.1467 236.513 66.8427 236.086 66.64C235.67 66.4267 235.206 66.32 234.694 66.32C233.958 66.32 233.329 66.5547 232.806 67.024C232.294 67.4933 232.001 68.144 231.926 68.976H237.462ZM245.16 65.072C246.227 65.072 247.091 65.3973 247.752 66.048C248.414 66.688 248.744 67.616 248.744 68.832V74H247.304V69.04C247.304 68.1653 247.086 67.4987 246.648 67.04C246.211 66.5707 245.614 66.336 244.856 66.336C244.088 66.336 243.475 66.576 243.016 67.056C242.568 67.536 242.344 68.2347 242.344 69.152V74H240.888V65.232H242.344V66.48C242.632 66.032 243.022 65.6853 243.512 65.44C244.014 65.1947 244.563 65.072 245.16 65.072ZM250.579 69.584C250.579 68.688 250.76 67.904 251.123 67.232C251.485 66.5493 251.981 66.0213 252.611 65.648C253.251 65.2747 253.965 65.088 254.755 65.088C255.437 65.088 256.072 65.248 256.659 65.568C257.245 65.8773 257.693 66.288 258.003 66.8V62.16H259.475V74H258.003V72.352C257.715 72.8747 257.288 73.3067 256.723 73.648C256.157 73.9787 255.496 74.144 254.739 74.144C253.96 74.144 253.251 73.952 252.611 73.568C251.981 73.184 251.485 72.6453 251.123 71.952C250.76 71.2587 250.579 70.4693 250.579 69.584ZM258.003 69.6C258.003 68.9387 257.869 68.3627 257.603 67.872C257.336 67.3813 256.973 67.008 256.515 66.752C256.067 66.4853 255.571 66.352 255.027 66.352C254.483 66.352 253.987 66.48 253.539 66.736C253.091 66.992 252.733 67.3653 252.467 67.856C252.2 68.3467 252.067 68.9227 252.067 69.584C252.067 70.256 252.2 70.8427 252.467 71.344C252.733 71.8347 253.091 72.2133 253.539 72.48C253.987 72.736 254.483 72.864 255.027 72.864C255.571 72.864 256.067 72.736 256.515 72.48C256.973 72.2133 257.336 71.8347 257.603 71.344C257.869 70.8427 258.003 70.2613 258.003 69.6ZM262.687 63.808C262.41 63.808 262.175 63.712 261.983 63.52C261.791 63.328 261.695 63.0933 261.695 62.816C261.695 62.5387 261.791 62.304 261.983 62.112C262.175 61.92 262.41 61.824 262.687 61.824C262.954 61.824 263.178 61.92 263.359 62.112C263.551 62.304 263.647 62.5387 263.647 62.816C263.647 63.0933 263.551 63.328 263.359 63.52C263.178 63.712 262.954 63.808 262.687 63.808ZM263.391 65.232V74H261.935V65.232H263.391ZM271.594 62.16V74H270.138V62.16H271.594ZM282.076 69.28C282.076 69.5573 282.06 69.8507 282.028 70.16H275.02C275.073 71.024 275.366 71.7013 275.9 72.192C276.444 72.672 277.1 72.912 277.868 72.912C278.497 72.912 279.02 72.768 279.436 72.48C279.862 72.1813 280.161 71.7867 280.332 71.296H281.9C281.665 72.1387 281.196 72.8267 280.492 73.36C279.788 73.8827 278.913 74.144 277.868 74.144C277.036 74.144 276.289 73.9573 275.628 73.584C274.977 73.2107 274.465 72.6827 274.092 72C273.718 71.3067 273.532 70.5067 273.532 69.6C273.532 68.6933 273.713 67.8987 274.076 67.216C274.438 66.5333 274.945 66.0107 275.596 65.648C276.257 65.2747 277.014 65.088 277.868 65.088C278.7 65.088 279.436 65.2693 280.076 65.632C280.716 65.9947 281.206 66.496 281.548 67.136C281.9 67.7653 282.076 68.48 282.076 69.28ZM280.572 68.976C280.572 68.4213 280.449 67.9467 280.204 67.552C279.958 67.1467 279.622 66.8427 279.196 66.64C278.78 66.4267 278.316 66.32 277.804 66.32C277.068 66.32 276.438 66.5547 275.916 67.024C275.404 67.4933 275.11 68.144 275.036 68.976H280.572ZM289.719 62.16V74H288.263V62.16H289.719ZM299.977 65.232V74H298.521V72.704C298.243 73.152 297.854 73.504 297.353 73.76C296.862 74.0053 296.318 74.128 295.721 74.128C295.038 74.128 294.425 73.9893 293.881 73.712C293.337 73.424 292.905 72.9973 292.585 72.432C292.275 71.8667 292.121 71.1787 292.121 70.368V65.232H293.561V70.176C293.561 71.04 293.779 71.7067 294.217 72.176C294.654 72.6347 295.251 72.864 296.009 72.864C296.787 72.864 297.401 72.624 297.849 72.144C298.297 71.664 298.521 70.9653 298.521 70.048V65.232H299.977ZM301.891 69.6C301.891 68.6933 302.072 67.904 302.435 67.232C302.798 66.5493 303.299 66.0213 303.939 65.648C304.59 65.2747 305.331 65.088 306.163 65.088C307.24 65.088 308.126 65.3493 308.819 65.872C309.523 66.3947 309.987 67.12 310.211 68.048H308.643C308.494 67.5147 308.2 67.0933 307.763 66.784C307.336 66.4747 306.803 66.32 306.163 66.32C305.331 66.32 304.659 66.608 304.147 67.184C303.635 67.7493 303.379 68.5547 303.379 69.6C303.379 70.656 303.635 71.472 304.147 72.048C304.659 72.624 305.331 72.912 306.163 72.912C306.803 72.912 307.336 72.7627 307.763 72.464C308.19 72.1653 308.483 71.7387 308.643 71.184H310.211C309.976 72.08 309.507 72.8 308.803 73.344C308.099 73.8773 307.219 74.144 306.163 74.144C305.331 74.144 304.59 73.9573 303.939 73.584C303.299 73.2107 302.798 72.6827 302.435 72C302.072 71.3173 301.891 70.5173 301.891 69.6ZM312.906 63.808C312.629 63.808 312.394 63.712 312.202 63.52C312.01 63.328 311.914 63.0933 311.914 62.816C311.914 62.5387 312.01 62.304 312.202 62.112C312.394 61.92 312.629 61.824 312.906 61.824C313.173 61.824 313.397 61.92 313.578 62.112C313.77 62.304 313.866 62.5387 313.866 62.816C313.866 63.0933 313.77 63.328 313.578 63.52C313.397 63.712 313.173 63.808 312.906 63.808ZM313.61 65.232V74H312.154V65.232H313.61ZM25.688 93.584C25.688 92.688 25.8693 91.904 26.232 91.232C26.5947 90.5493 27.0907 90.0213 27.72 89.648C28.36 89.2747 29.0747 89.088 29.864 89.088C30.5467 89.088 31.1813 89.248 31.768 89.568C32.3547 89.8773 32.8027 90.288 33.112 90.8V86.16H34.584V98H33.112V96.352C32.824 96.8747 32.3973 97.3067 31.832 97.648C31.2667 97.9787 30.6053 98.144 29.848 98.144C29.0693 98.144 28.36 97.952 27.72 97.568C27.0907 97.184 26.5947 96.6453 26.232 95.952C25.8693 95.2587 25.688 94.4693 25.688 93.584ZM33.112 93.6C33.112 92.9387 32.9787 92.3627 32.712 91.872C32.4453 91.3813 32.0827 91.008 31.624 90.752C31.176 90.4853 30.68 90.352 30.136 90.352C29.592 90.352 29.096 90.48 28.648 90.736C28.2 90.992 27.8427 91.3653 27.576 91.856C27.3093 92.3467 27.176 92.9227 27.176 93.584C27.176 94.256 27.3093 94.8427 27.576 95.344C27.8427 95.8347 28.2 96.2133 28.648 96.48C29.096 96.736 29.592 96.864 30.136 96.864C30.68 96.864 31.176 96.736 31.624 96.48C32.0827 96.2133 32.4453 95.8347 32.712 95.344C32.9787 94.8427 33.112 94.2613 33.112 93.6ZM45.0445 93.28C45.0445 93.5573 45.0285 93.8507 44.9965 94.16H37.9885C38.0418 95.024 38.3352 95.7013 38.8685 96.192C39.4125 96.672 40.0685 96.912 40.8365 96.912C41.4658 96.912 41.9885 96.768 42.4045 96.48C42.8312 96.1813 43.1298 95.7867 43.3005 95.296H44.8685C44.6338 96.1387 44.1645 96.8267 43.4605 97.36C42.7565 97.8827 41.8818 98.144 40.8365 98.144C40.0045 98.144 39.2578 97.9573 38.5965 97.584C37.9458 97.2107 37.4338 96.6827 37.0605 96C36.6872 95.3067 36.5005 94.5067 36.5005 93.6C36.5005 92.6933 36.6818 91.8987 37.0445 91.216C37.4072 90.5333 37.9138 90.0107 38.5645 89.648C39.2258 89.2747 39.9832 89.088 40.8365 89.088C41.6685 89.088 42.4045 89.2693 43.0445 89.632C43.6845 89.9947 44.1752 90.496 44.5165 91.136C44.8685 91.7653 45.0445 92.48 45.0445 93.28ZM43.5405 92.976C43.5405 92.4213 43.4178 91.9467 43.1725 91.552C42.9272 91.1467 42.5912 90.8427 42.1645 90.64C41.7485 90.4267 41.2845 90.32 40.7725 90.32C40.0365 90.32 39.4072 90.5547 38.8845 91.024C38.3725 91.4933 38.0792 92.144 38.0045 92.976H43.5405ZM48.4224 86.16V98H46.9664V86.16H48.4224ZM56.6255 90.864C56.9242 90.3413 57.3615 89.9147 57.9375 89.584C58.5135 89.2533 59.1695 89.088 59.9055 89.088C60.6948 89.088 61.4042 89.2747 62.0335 89.648C62.6628 90.0213 63.1588 90.5493 63.5215 91.232C63.8842 91.904 64.0655 92.688 64.0655 93.584C64.0655 94.4693 63.8842 95.2587 63.5215 95.952C63.1588 96.6453 62.6575 97.184 62.0175 97.568C61.3882 97.952 60.6842 98.144 59.9055 98.144C59.1482 98.144 58.4815 97.9787 57.9055 97.648C57.3402 97.3173 56.9135 96.896 56.6255 96.384V98H55.1695V86.16H56.6255V90.864ZM62.5775 93.584C62.5775 92.9227 62.4442 92.3467 62.1775 91.856C61.9108 91.3653 61.5482 90.992 61.0895 90.736C60.6415 90.48 60.1455 90.352 59.6015 90.352C59.0682 90.352 58.5722 90.4853 58.1135 90.752C57.6655 91.008 57.3028 91.3867 57.0255 91.888C56.7588 92.3787 56.6255 92.9493 56.6255 93.6C56.6255 94.2613 56.7588 94.8427 57.0255 95.344C57.3028 95.8347 57.6655 96.2133 58.1135 96.48C58.5722 96.736 59.0682 96.864 59.6015 96.864C60.1455 96.864 60.6415 96.736 61.0895 96.48C61.5482 96.2133 61.9108 95.8347 62.1775 95.344C62.4442 94.8427 62.5775 94.256 62.5775 93.584ZM65.438 93.584C65.438 92.688 65.6193 91.904 65.982 91.232C66.3447 90.5493 66.8407 90.0213 67.47 89.648C68.11 89.2747 68.8193 89.088 69.598 89.088C70.366 89.088 71.0327 89.2533 71.598 89.584C72.1633 89.9147 72.5847 90.3307 72.862 90.832V89.232H74.334V98H72.862V96.368C72.574 96.88 72.142 97.3067 71.566 97.648C71.0007 97.9787 70.3393 98.144 69.582 98.144C68.8033 98.144 68.0993 97.952 67.47 97.568C66.8407 97.184 66.3447 96.6453 65.982 95.952C65.6193 95.2587 65.438 94.4693 65.438 93.584ZM72.862 93.6C72.862 92.9387 72.7287 92.3627 72.462 91.872C72.1953 91.3813 71.8327 91.008 71.374 90.752C70.926 90.4853 70.43 90.352 69.886 90.352C69.342 90.352 68.846 90.48 68.398 90.736C67.95 90.992 67.5927 91.3653 67.326 91.856C67.0593 92.3467 66.926 92.9227 66.926 93.584C66.926 94.256 67.0593 94.8427 67.326 95.344C67.5927 95.8347 67.95 96.2133 68.398 96.48C68.846 96.736 69.342 96.864 69.886 96.864C70.43 96.864 70.926 96.736 71.374 96.48C71.8327 96.2133 72.1953 95.8347 72.462 95.344C72.7287 94.8427 72.862 94.2613 72.862 93.6ZM80.4105 89.088C81.1678 89.088 81.8292 89.2533 82.3945 89.584C82.9705 89.9147 83.3972 90.3307 83.6745 90.832V89.232H85.1465V98.192C85.1465 98.992 84.9758 99.7013 84.6345 100.32C84.2932 100.949 83.8025 101.44 83.1625 101.792C82.5332 102.144 81.7972 102.32 80.9545 102.32C79.8025 102.32 78.8425 102.048 78.0745 101.504C77.3065 100.96 76.8532 100.219 76.7145 99.28H78.1545C78.3145 99.8133 78.6452 100.24 79.1465 100.56C79.6478 100.891 80.2505 101.056 80.9545 101.056C81.7545 101.056 82.4052 100.805 82.9065 100.304C83.4185 99.8027 83.6745 99.0987 83.6745 98.192V96.352C83.3865 96.864 82.9598 97.2907 82.3945 97.632C81.8292 97.9733 81.1678 98.144 80.4105 98.144C79.6318 98.144 78.9225 97.952 78.2825 97.568C77.6532 97.184 77.1572 96.6453 76.7945 95.952C76.4318 95.2587 76.2505 94.4693 76.2505 93.584C76.2505 92.688 76.4318 91.904 76.7945 91.232C77.1572 90.5493 77.6532 90.0213 78.2825 89.648C78.9225 89.2747 79.6318 89.088 80.4105 89.088ZM83.6745 93.6C83.6745 92.9387 83.5412 92.3627 83.2745 91.872C83.0078 91.3813 82.6452 91.008 82.1865 90.752C81.7385 90.4853 81.2425 90.352 80.6985 90.352C80.1545 90.352 79.6585 90.48 79.2105 90.736C78.7625 90.992 78.4052 91.3653 78.1385 91.856C77.8718 92.3467 77.7385 92.9227 77.7385 93.584C77.7385 94.256 77.8718 94.8427 78.1385 95.344C78.4052 95.8347 78.7625 96.2133 79.2105 96.48C79.6585 96.736 80.1545 96.864 80.6985 96.864C81.2425 96.864 81.7385 96.736 82.1865 96.48C82.6452 96.2133 83.0078 95.8347 83.2745 95.344C83.5412 94.8427 83.6745 94.2613 83.6745 93.6ZM91.879 89.072C92.9457 89.072 93.8097 89.3973 94.471 90.048C95.1323 90.688 95.463 91.616 95.463 92.832V98H94.023V93.04C94.023 92.1653 93.8043 91.4987 93.367 91.04C92.9297 90.5707 92.3323 90.336 91.575 90.336C90.807 90.336 90.1937 90.576 89.735 91.056C89.287 91.536 89.063 92.2347 89.063 93.152V98H87.607V89.232H89.063V90.48C89.351 90.032 89.7403 89.6853 90.231 89.44C90.7323 89.1947 91.2817 89.072 91.879 89.072ZM101.665 98.144C100.844 98.144 100.097 97.9573 99.4254 97.584C98.764 97.2107 98.2414 96.6827 97.8574 96C97.484 95.3067 97.2974 94.5067 97.2974 93.6C97.2974 92.704 97.4894 91.9147 97.8734 91.232C98.268 90.5387 98.8014 90.0107 99.4734 89.648C100.145 89.2747 100.897 89.088 101.729 89.088C102.561 89.088 103.313 89.2747 103.985 89.648C104.657 90.0107 105.185 90.5333 105.569 91.216C105.964 91.8987 106.161 92.6933 106.161 93.6C106.161 94.5067 105.959 95.3067 105.553 96C105.159 96.6827 104.62 97.2107 103.937 97.584C103.255 97.9573 102.497 98.144 101.665 98.144ZM101.665 96.864C102.188 96.864 102.679 96.7413 103.137 96.496C103.596 96.2507 103.964 95.8827 104.241 95.392C104.529 94.9013 104.673 94.304 104.673 93.6C104.673 92.896 104.535 92.2987 104.257 91.808C103.98 91.3173 103.617 90.9547 103.169 90.72C102.721 90.4747 102.236 90.352 101.713 90.352C101.18 90.352 100.689 90.4747 100.241 90.72C99.804 90.9547 99.452 91.3173 99.1854 91.808C98.9187 92.2987 98.7854 92.896 98.7854 93.6C98.7854 94.3147 98.9134 94.9173 99.1694 95.408C99.436 95.8987 99.788 96.2667 100.225 96.512C100.663 96.7467 101.143 96.864 101.665 96.864ZM120.341 93.28C120.341 93.5573 120.325 93.8507 120.293 94.16H113.285C113.339 95.024 113.632 95.7013 114.165 96.192C114.709 96.672 115.365 96.912 116.133 96.912C116.763 96.912 117.285 96.768 117.701 96.48C118.128 96.1813 118.427 95.7867 118.597 95.296H120.165C119.931 96.1387 119.461 96.8267 118.757 97.36C118.053 97.8827 117.179 98.144 116.133 98.144C115.301 98.144 114.555 97.9573 113.893 97.584C113.243 97.2107 112.731 96.6827 112.357 96C111.984 95.3067 111.797 94.5067 111.797 93.6C111.797 92.6933 111.979 91.8987 112.341 91.216C112.704 90.5333 113.211 90.0107 113.861 89.648C114.523 89.2747 115.28 89.088 116.133 89.088C116.965 89.088 117.701 89.2693 118.341 89.632C118.981 89.9947 119.472 90.496 119.813 91.136C120.165 91.7653 120.341 92.48 120.341 93.28ZM118.837 92.976C118.837 92.4213 118.715 91.9467 118.469 91.552C118.224 91.1467 117.888 90.8427 117.461 90.64C117.045 90.4267 116.581 90.32 116.069 90.32C115.333 90.32 114.704 90.5547 114.181 91.024C113.669 91.4933 113.376 92.144 113.301 92.976H118.837ZM125.985 93.584C125.985 92.688 126.166 91.904 126.529 91.232C126.892 90.5493 127.388 90.0213 128.017 89.648C128.657 89.2747 129.366 89.088 130.145 89.088C130.913 89.088 131.58 89.2533 132.145 89.584C132.71 89.9147 133.132 90.3307 133.409 90.832V89.232H134.881V98H133.409V96.368C133.121 96.88 132.689 97.3067 132.113 97.648C131.548 97.9787 130.886 98.144 130.129 98.144C129.35 98.144 128.646 97.952 128.017 97.568C127.388 97.184 126.892 96.6453 126.529 95.952C126.166 95.2587 125.985 94.4693 125.985 93.584ZM133.409 93.6C133.409 92.9387 133.276 92.3627 133.009 91.872C132.742 91.3813 132.38 91.008 131.921 90.752C131.473 90.4853 130.977 90.352 130.433 90.352C129.889 90.352 129.393 90.48 128.945 90.736C128.497 90.992 128.14 91.3653 127.873 91.856C127.606 92.3467 127.473 92.9227 127.473 93.584C127.473 94.256 127.606 94.8427 127.873 95.344C128.14 95.8347 128.497 96.2133 128.945 96.48C129.393 96.736 129.889 96.864 130.433 96.864C130.977 96.864 131.473 96.736 131.921 96.48C132.38 96.2133 132.742 95.8347 133.009 95.344C133.276 94.8427 133.409 94.2613 133.409 93.6ZM138.797 86.16V98H137.341V86.16H138.797ZM142.367 96.8H146.671V98H140.703V96.8L144.959 90.416H140.735V89.232H146.639V90.416L142.367 96.8ZM149.312 87.808C149.035 87.808 148.8 87.712 148.608 87.52C148.416 87.328 148.32 87.0933 148.32 86.816C148.32 86.5387 148.416 86.304 148.608 86.112C148.8 85.92 149.035 85.824 149.312 85.824C149.579 85.824 149.803 85.92 149.984 86.112C150.176 86.304 150.272 86.5387 150.272 86.816C150.272 87.0933 150.176 87.328 149.984 87.52C149.803 87.712 149.579 87.808 149.312 87.808ZM150.016 89.232V98H148.56V89.232H150.016ZM158.219 86.16V98H156.763V86.16H158.219ZM168.701 93.28C168.701 93.5573 168.685 93.8507 168.653 94.16H161.645C161.698 95.024 161.991 95.7013 162.525 96.192C163.069 96.672 163.725 96.912 164.493 96.912C165.122 96.912 165.645 96.768 166.061 96.48C166.487 96.1813 166.786 95.7867 166.957 95.296H168.525C168.29 96.1387 167.821 96.8267 167.117 97.36C166.413 97.8827 165.538 98.144 164.493 98.144C163.661 98.144 162.914 97.9573 162.253 97.584C161.602 97.2107 161.09 96.6827 160.717 96C160.343 95.3067 160.157 94.5067 160.157 93.6C160.157 92.6933 160.338 91.8987 160.701 91.216C161.063 90.5333 161.57 90.0107 162.221 89.648C162.882 89.2747 163.639 89.088 164.493 89.088C165.325 89.088 166.061 89.2693 166.701 89.632C167.341 89.9947 167.831 90.496 168.173 91.136C168.525 91.7653 168.701 92.48 168.701 93.28ZM167.197 92.976C167.197 92.4213 167.074 91.9467 166.829 91.552C166.583 91.1467 166.247 90.8427 165.821 90.64C165.405 90.4267 164.941 90.32 164.429 90.32C163.693 90.32 163.063 90.5547 162.541 91.024C162.029 91.4933 161.735 92.144 161.661 92.976H167.197ZM176.664 90.432V95.6C176.664 96.0267 176.755 96.3307 176.936 96.512C177.118 96.6827 177.432 96.768 177.88 96.768H178.952V98H177.64C176.83 98 176.222 97.8133 175.816 97.44C175.411 97.0667 175.208 96.4533 175.208 95.6V90.432H174.072V89.232H175.208V87.024H176.664V89.232H178.952V90.432H176.664ZM180.172 93.584C180.172 92.688 180.354 91.904 180.716 91.232C181.079 90.5493 181.575 90.0213 182.204 89.648C182.844 89.2747 183.554 89.088 184.332 89.088C185.1 89.088 185.767 89.2533 186.332 89.584C186.898 89.9147 187.319 90.3307 187.596 90.832V89.232H189.068V98H187.596V96.368C187.308 96.88 186.876 97.3067 186.3 97.648C185.735 97.9787 185.074 98.144 184.316 98.144C183.538 98.144 182.834 97.952 182.204 97.568C181.575 97.184 181.079 96.6453 180.716 95.952C180.354 95.2587 180.172 94.4693 180.172 93.584ZM187.596 93.6C187.596 92.9387 187.463 92.3627 187.196 91.872C186.93 91.3813 186.567 91.008 186.108 90.752C185.66 90.4853 185.164 90.352 184.62 90.352C184.076 90.352 183.58 90.48 183.132 90.736C182.684 90.992 182.327 91.3653 182.06 91.856C181.794 92.3467 181.66 92.9227 181.66 93.584C181.66 94.256 181.794 94.8427 182.06 95.344C182.327 95.8347 182.684 96.2133 183.132 96.48C183.58 96.736 184.076 96.864 184.62 96.864C185.164 96.864 185.66 96.736 186.108 96.48C186.567 96.2133 186.93 95.8347 187.196 95.344C187.463 94.8427 187.596 94.2613 187.596 93.6ZM192.985 90.848C193.273 90.3467 193.7 89.9307 194.265 89.6C194.841 89.2587 195.508 89.088 196.265 89.088C197.044 89.088 197.748 89.2747 198.377 89.648C199.017 90.0213 199.518 90.5493 199.881 91.232C200.244 91.904 200.425 92.688 200.425 93.584C200.425 94.4693 200.244 95.2587 199.881 95.952C199.518 96.6453 199.017 97.184 198.377 97.568C197.748 97.952 197.044 98.144 196.265 98.144C195.518 98.144 194.857 97.9787 194.281 97.648C193.716 97.3067 193.284 96.8853 192.985 96.384V102.16H191.529V89.232H192.985V90.848ZM198.937 93.584C198.937 92.9227 198.804 92.3467 198.537 91.856C198.27 91.3653 197.908 90.992 197.449 90.736C197.001 90.48 196.505 90.352 195.961 90.352C195.428 90.352 194.932 90.4853 194.473 90.752C194.025 91.008 193.662 91.3867 193.385 91.888C193.118 92.3787 192.985 92.9493 192.985 93.6C192.985 94.2613 193.118 94.8427 193.385 95.344C193.662 95.8347 194.025 96.2133 194.473 96.48C194.932 96.736 195.428 96.864 195.961 96.864C196.505 96.864 197.001 96.736 197.449 96.48C197.908 96.2133 198.27 95.8347 198.537 95.344C198.804 94.8427 198.937 94.256 198.937 93.584ZM203.797 90.848C204.085 90.3467 204.512 89.9307 205.077 89.6C205.653 89.2587 206.32 89.088 207.077 89.088C207.856 89.088 208.56 89.2747 209.189 89.648C209.829 90.0213 210.331 90.5493 210.693 91.232C211.056 91.904 211.237 92.688 211.237 93.584C211.237 94.4693 211.056 95.2587 210.693 95.952C210.331 96.6453 209.829 97.184 209.189 97.568C208.56 97.952 207.856 98.144 207.077 98.144C206.331 98.144 205.669 97.9787 205.093 97.648C204.528 97.3067 204.096 96.8853 203.797 96.384V102.16H202.341V89.232H203.797V90.848ZM209.749 93.584C209.749 92.9227 209.616 92.3467 209.349 91.856C209.083 91.3653 208.72 90.992 208.261 90.736C207.813 90.48 207.317 90.352 206.773 90.352C206.24 90.352 205.744 90.4853 205.285 90.752C204.837 91.008 204.475 91.3867 204.197 91.888C203.931 92.3787 203.797 92.9493 203.797 93.6C203.797 94.2613 203.931 94.8427 204.197 95.344C204.475 95.8347 204.837 96.2133 205.285 96.48C205.744 96.736 206.24 96.864 206.773 96.864C207.317 96.864 207.813 96.736 208.261 96.48C208.72 96.2133 209.083 95.8347 209.349 95.344C209.616 94.8427 209.749 94.256 209.749 93.584ZM212.61 93.584C212.61 92.688 212.791 91.904 213.154 91.232C213.517 90.5493 214.013 90.0213 214.642 89.648C215.282 89.2747 215.991 89.088 216.77 89.088C217.538 89.088 218.205 89.2533 218.77 89.584C219.335 89.9147 219.757 90.3307 220.034 90.832V89.232H221.506V98H220.034V96.368C219.746 96.88 219.314 97.3067 218.738 97.648C218.173 97.9787 217.511 98.144 216.754 98.144C215.975 98.144 215.271 97.952 214.642 97.568C214.013 97.184 213.517 96.6453 213.154 95.952C212.791 95.2587 212.61 94.4693 212.61 93.584ZM220.034 93.6C220.034 92.9387 219.901 92.3627 219.634 91.872C219.367 91.3813 219.005 91.008 218.546 90.752C218.098 90.4853 217.602 90.352 217.058 90.352C216.514 90.352 216.018 90.48 215.57 90.736C215.122 90.992 214.765 91.3653 214.498 91.856C214.231 92.3467 214.098 92.9227 214.098 93.584C214.098 94.256 214.231 94.8427 214.498 95.344C214.765 95.8347 215.122 96.2133 215.57 96.48C216.018 96.736 216.514 96.864 217.058 96.864C217.602 96.864 218.098 96.736 218.546 96.48C219.005 96.2133 219.367 95.8347 219.634 95.344C219.901 94.8427 220.034 94.2613 220.034 93.6ZM225.422 90.656C225.678 90.1547 226.041 89.7653 226.51 89.488C226.99 89.2107 227.572 89.072 228.254 89.072V90.576H227.87C226.238 90.576 225.422 91.4613 225.422 93.232V98H223.966V89.232H225.422V90.656ZM237.935 93.28C237.935 93.5573 237.919 93.8507 237.887 94.16H230.879C230.932 95.024 231.226 95.7013 231.759 96.192C232.303 96.672 232.959 96.912 233.727 96.912C234.356 96.912 234.879 96.768 235.295 96.48C235.722 96.1813 236.02 95.7867 236.191 95.296H237.759C237.524 96.1387 237.055 96.8267 236.351 97.36C235.647 97.8827 234.772 98.144 233.727 98.144C232.895 98.144 232.148 97.9573 231.487 97.584C230.836 97.2107 230.324 96.6827 229.951 96C229.578 95.3067 229.391 94.5067 229.391 93.6C229.391 92.6933 229.572 91.8987 229.935 91.216C230.298 90.5333 230.804 90.0107 231.455 89.648C232.116 89.2747 232.874 89.088 233.727 89.088C234.559 89.088 235.295 89.2693 235.935 89.632C236.575 89.9947 237.066 90.496 237.407 91.136C237.759 91.7653 237.935 92.48 237.935 93.28ZM236.431 92.976C236.431 92.4213 236.308 91.9467 236.063 91.552C235.818 91.1467 235.482 90.8427 235.055 90.64C234.639 90.4267 234.175 90.32 233.663 90.32C232.927 90.32 232.298 90.5547 231.775 91.024C231.263 91.4933 230.97 92.144 230.895 92.976H236.431ZM241.313 86.16V98H239.857V86.16H241.313ZM245.251 86.16V98H243.795V86.16H245.251ZM255.732 93.28C255.732 93.5573 255.716 93.8507 255.684 94.16H248.676C248.729 95.024 249.023 95.7013 249.556 96.192C250.1 96.672 250.756 96.912 251.524 96.912C252.153 96.912 252.676 96.768 253.092 96.48C253.519 96.1813 253.817 95.7867 253.988 95.296H255.556C255.321 96.1387 254.852 96.8267 254.148 97.36C253.444 97.8827 252.569 98.144 251.524 98.144C250.692 98.144 249.945 97.9573 249.284 97.584C248.633 97.2107 248.121 96.6827 247.748 96C247.375 95.3067 247.188 94.5067 247.188 93.6C247.188 92.6933 247.369 91.8987 247.732 91.216C248.095 90.5333 248.601 90.0107 249.252 89.648C249.913 89.2747 250.671 89.088 251.524 89.088C252.356 89.088 253.092 89.2693 253.732 89.632C254.372 89.9947 254.863 90.496 255.204 91.136C255.556 91.7653 255.732 92.48 255.732 93.28ZM254.228 92.976C254.228 92.4213 254.105 91.9467 253.86 91.552C253.615 91.1467 253.279 90.8427 252.852 90.64C252.436 90.4267 251.972 90.32 251.46 90.32C250.724 90.32 250.095 90.5547 249.572 91.024C249.06 91.4933 248.767 92.144 248.692 92.976H254.228ZM262.672 87.808C262.394 87.808 262.16 87.712 261.968 87.52C261.776 87.328 261.68 87.0933 261.68 86.816C261.68 86.5387 261.776 86.304 261.968 86.112C262.16 85.92 262.394 85.824 262.672 85.824C262.938 85.824 263.162 85.92 263.344 86.112C263.536 86.304 263.632 86.5387 263.632 86.816C263.632 87.0933 263.536 87.328 263.344 87.52C263.162 87.712 262.938 87.808 262.672 87.808ZM263.376 89.232V98H261.92V89.232H263.376ZM270.129 89.072C271.196 89.072 272.06 89.3973 272.721 90.048C273.382 90.688 273.713 91.616 273.713 92.832V98H272.273V93.04C272.273 92.1653 272.054 91.4987 271.617 91.04C271.18 90.5707 270.582 90.336 269.825 90.336C269.057 90.336 268.444 90.576 267.985 91.056C267.537 91.536 267.313 92.2347 267.313 93.152V98H265.857V89.232H267.313V90.48C267.601 90.032 267.99 89.6853 268.481 89.44C268.982 89.1947 269.532 89.072 270.129 89.072ZM25.688 117.6C25.688 116.693 25.8693 115.904 26.232 115.232C26.5947 114.549 27.096 114.021 27.736 113.648C28.3867 113.275 29.128 113.088 29.96 113.088C31.0373 113.088 31.9227 113.349 32.616 113.872C33.32 114.395 33.784 115.12 34.008 116.048H32.44C32.2907 115.515 31.9973 115.093 31.56 114.784C31.1333 114.475 30.6 114.32 29.96 114.32C29.128 114.32 28.456 114.608 27.944 115.184C27.432 115.749 27.176 116.555 27.176 117.6C27.176 118.656 27.432 119.472 27.944 120.048C28.456 120.624 29.128 120.912 29.96 120.912C30.6 120.912 31.1333 120.763 31.56 120.464C31.9867 120.165 32.28 119.739 32.44 119.184H34.008C33.7733 120.08 33.304 120.8 32.6 121.344C31.896 121.877 31.016 122.144 29.96 122.144C29.128 122.144 28.3867 121.957 27.736 121.584C27.096 121.211 26.5947 120.683 26.232 120C25.8693 119.317 25.688 118.517 25.688 117.6ZM35.4068 117.584C35.4068 116.688 35.5881 115.904 35.9508 115.232C36.3134 114.549 36.8094 114.021 37.4388 113.648C38.0788 113.275 38.7881 113.088 39.5668 113.088C40.3348 113.088 41.0014 113.253 41.5668 113.584C42.1321 113.915 42.5534 114.331 42.8308 114.832V113.232H44.3028V122H42.8308V120.368C42.5428 120.88 42.1108 121.307 41.5348 121.648C40.9694 121.979 40.3081 122.144 39.5508 122.144C38.7721 122.144 38.0681 121.952 37.4388 121.568C36.8094 121.184 36.3134 120.645 35.9508 119.952C35.5881 119.259 35.4068 118.469 35.4068 117.584ZM42.8308 117.6C42.8308 116.939 42.6974 116.363 42.4308 115.872C42.1641 115.381 41.8014 115.008 41.3428 114.752C40.8948 114.485 40.3988 114.352 39.8548 114.352C39.3108 114.352 38.8148 114.48 38.3668 114.736C37.9188 114.992 37.5614 115.365 37.2948 115.856C37.0281 116.347 36.8948 116.923 36.8948 117.584C36.8948 118.256 37.0281 118.843 37.2948 119.344C37.5614 119.835 37.9188 120.213 38.3668 120.48C38.8148 120.736 39.3108 120.864 39.8548 120.864C40.3988 120.864 40.8948 120.736 41.3428 120.48C41.8014 120.213 42.1641 119.835 42.4308 119.344C42.6974 118.843 42.8308 118.261 42.8308 117.6ZM57.3073 113.072C57.9899 113.072 58.5979 113.216 59.1313 113.504C59.6646 113.781 60.0859 114.203 60.3953 114.768C60.7046 115.333 60.8593 116.021 60.8593 116.832V122H59.4193V117.04C59.4193 116.165 59.2006 115.499 58.7633 115.04C58.3366 114.571 57.7553 114.336 57.0193 114.336C56.2619 114.336 55.6593 114.581 55.2113 115.072C54.7633 115.552 54.5393 116.251 54.5393 117.168V122H53.0993V117.04C53.0993 116.165 52.8806 115.499 52.4433 115.04C52.0166 114.571 51.4353 114.336 50.6993 114.336C49.9419 114.336 49.3393 114.581 48.8913 115.072C48.4433 115.552 48.2193 116.251 48.2193 117.168V122H46.7633V113.232H48.2193V114.496C48.5073 114.037 48.8913 113.685 49.3713 113.44C49.8619 113.195 50.4006 113.072 50.9873 113.072C51.7233 113.072 52.3739 113.237 52.9393 113.568C53.5046 113.899 53.9259 114.384 54.2033 115.024C54.4486 114.405 54.8539 113.925 55.4193 113.584C55.9846 113.243 56.6139 113.072 57.3073 113.072ZM71.2476 117.28C71.2476 117.557 71.2316 117.851 71.1996 118.16H64.1916C64.245 119.024 64.5383 119.701 65.0716 120.192C65.6156 120.672 66.2716 120.912 67.0396 120.912C67.669 120.912 68.1916 120.768 68.6076 120.48C69.0343 120.181 69.333 119.787 69.5036 119.296H71.0716C70.837 120.139 70.3676 120.827 69.6636 121.36C68.9596 121.883 68.085 122.144 67.0396 122.144C66.2076 122.144 65.461 121.957 64.7996 121.584C64.149 121.211 63.637 120.683 63.2636 120C62.8903 119.307 62.7036 118.507 62.7036 117.6C62.7036 116.693 62.885 115.899 63.2476 115.216C63.6103 114.533 64.117 114.011 64.7676 113.648C65.429 113.275 66.1863 113.088 67.0396 113.088C67.8716 113.088 68.6076 113.269 69.2476 113.632C69.8876 113.995 70.3783 114.496 70.7196 115.136C71.0716 115.765 71.2476 116.48 71.2476 117.28ZM69.7436 116.976C69.7436 116.421 69.621 115.947 69.3756 115.552C69.1303 115.147 68.7943 114.843 68.3676 114.64C67.9516 114.427 67.4876 114.32 66.9756 114.32C66.2396 114.32 65.6103 114.555 65.0876 115.024C64.5756 115.493 64.2823 116.144 64.2076 116.976H69.7436ZM74.6255 114.656C74.8815 114.155 75.2442 113.765 75.7135 113.488C76.1935 113.211 76.7748 113.072 77.4575 113.072V114.576H77.0735C75.4415 114.576 74.6255 115.461 74.6255 117.232V122H73.1695V113.232H74.6255V114.656ZM78.5943 117.584C78.5943 116.688 78.7756 115.904 79.1383 115.232C79.5009 114.549 79.9969 114.021 80.6263 113.648C81.2663 113.275 81.9756 113.088 82.7543 113.088C83.5223 113.088 84.1889 113.253 84.7543 113.584C85.3196 113.915 85.7409 114.331 86.0183 114.832V113.232H87.4903V122H86.0183V120.368C85.7303 120.88 85.2983 121.307 84.7223 121.648C84.1569 121.979 83.4956 122.144 82.7383 122.144C81.9596 122.144 81.2556 121.952 80.6263 121.568C79.9969 121.184 79.5009 120.645 79.1383 119.952C78.7756 119.259 78.5943 118.469 78.5943 117.584ZM86.0183 117.6C86.0183 116.939 85.8849 116.363 85.6183 115.872C85.3516 115.381 84.9889 115.008 84.5303 114.752C84.0823 114.485 83.5863 114.352 83.0423 114.352C82.4983 114.352 82.0023 114.48 81.5543 114.736C81.1063 114.992 80.7489 115.365 80.4823 115.856C80.2156 116.347 80.0823 116.923 80.0823 117.584C80.0823 118.256 80.2156 118.843 80.4823 119.344C80.7489 119.835 81.1063 120.213 81.5543 120.48C82.0023 120.736 82.4983 120.864 83.0423 120.864C83.5863 120.864 84.0823 120.736 84.5303 120.48C84.9889 120.213 85.3516 119.835 85.6183 119.344C85.8849 118.843 86.0183 118.261 86.0183 117.6ZM90.4148 122.096C90.1374 122.096 89.9028 122 89.7108 121.808C89.5188 121.616 89.4228 121.381 89.4228 121.104C89.4228 120.827 89.5188 120.592 89.7108 120.4C89.9028 120.208 90.1374 120.112 90.4148 120.112C90.6814 120.112 90.9054 120.208 91.0868 120.4C91.2788 120.592 91.3748 120.827 91.3748 121.104C91.3748 121.381 91.2788 121.616 91.0868 121.808C90.9054 122 90.6814 122.096 90.4148 122.096Z" fill="white"/>
<path d="M33.946 159.606H28.942L28.114 162H25.468L29.986 149.418H32.92L37.438 162H34.774L33.946 159.606ZM33.262 157.59L31.444 152.334L29.626 157.59H33.262ZM41.6468 148.68V162H39.1268V148.68H41.6468ZM46.6565 148.68V162H44.1365V148.68H46.6565ZM58.4163 156.798C58.4163 157.158 58.3923 157.482 58.3443 157.77H51.0543C51.1143 158.49 51.3663 159.054 51.8103 159.462C52.2543 159.87 52.8003 160.074 53.4483 160.074C54.3843 160.074 55.0503 159.672 55.4463 158.868H58.1643C57.8763 159.828 57.3243 160.62 56.5083 161.244C55.6923 161.856 54.6903 162.162 53.5023 162.162C52.5423 162.162 51.6783 161.952 50.9103 161.532C50.1543 161.1 49.5603 160.494 49.1283 159.714C48.7083 158.934 48.4983 158.034 48.4983 157.014C48.4983 155.982 48.7083 155.076 49.1283 154.296C49.5483 153.516 50.1363 152.916 50.8923 152.496C51.6483 152.076 52.5183 151.866 53.5023 151.866C54.4503 151.866 55.2963 152.07 56.0403 152.478C56.7963 152.886 57.3783 153.468 57.7863 154.224C58.2063 154.968 58.4163 155.826 58.4163 156.798ZM55.8063 156.078C55.7943 155.43 55.5603 154.914 55.1043 154.53C54.6483 154.134 54.0903 153.936 53.4303 153.936C52.8063 153.936 52.2783 154.128 51.8463 154.512C51.4263 154.884 51.1683 155.406 51.0723 156.078H55.8063ZM72.6087 150.786L67.8207 162H65.2647L70.0887 151.074H63.9327V148.914H72.6087V150.786ZM75.5221 162.126C75.0661 162.126 74.6881 161.988 74.3881 161.712C74.1001 161.424 73.9561 161.07 73.9561 160.65C73.9561 160.23 74.1001 159.882 74.3881 159.606C74.6881 159.318 75.0661 159.174 75.5221 159.174C75.9661 159.174 76.3321 159.318 76.6201 159.606C76.9081 159.882 77.0521 160.23 77.0521 160.65C77.0521 161.07 76.9081 161.424 76.6201 161.712C76.3321 161.988 75.9661 162.126 75.5221 162.126ZM75.5221 154.674C75.0661 154.674 74.6881 154.536 74.3881 154.26C74.1001 153.972 73.9561 153.618 73.9561 153.198C73.9561 152.778 74.1001 152.43 74.3881 152.154C74.6881 151.866 75.0661 151.722 75.5221 151.722C75.9661 151.722 76.3321 151.866 76.6201 152.154C76.9081 152.43 77.0521 152.778 77.0521 153.198C77.0521 153.618 76.9081 153.972 76.6201 154.26C76.3321 154.536 75.9661 154.674 75.5221 154.674ZM78.5406 151.2V148.878H82.8786V162H80.2866V151.2H78.5406ZM94.1881 151.056H88.3561V154.134C88.6081 153.822 88.9681 153.57 89.4361 153.378C89.9041 153.174 90.4021 153.072 90.9301 153.072C91.8901 153.072 92.6761 153.282 93.2881 153.702C93.9001 154.122 94.3441 154.662 94.6201 155.322C94.8961 155.97 95.0341 156.666 95.0341 157.41C95.0341 158.79 94.6381 159.9 93.8461 160.74C93.0661 161.58 91.9501 162 90.4981 162C89.1301 162 88.0381 161.658 87.2221 160.974C86.4061 160.29 85.9441 159.396 85.8361 158.292H88.2841C88.3921 158.772 88.6321 159.156 89.0041 159.444C89.3881 159.732 89.8741 159.876 90.4621 159.876C91.1701 159.876 91.7041 159.654 92.0641 159.21C92.4241 158.766 92.6041 158.178 92.6041 157.446C92.6041 156.702 92.4181 156.138 92.0461 155.754C91.6861 155.358 91.1521 155.16 90.4441 155.16C89.9401 155.16 89.5201 155.286 89.1841 155.538C88.8481 155.79 88.6081 156.126 88.4641 156.546H86.0521V148.842H94.1881V151.056ZM100.881 156.978C100.881 155.97 101.079 155.076 101.475 154.296C101.883 153.516 102.435 152.916 103.131 152.496C103.827 152.076 104.601 151.866 105.453 151.866C106.101 151.866 106.719 152.01 107.307 152.298C107.895 152.574 108.363 152.946 108.711 153.414V148.68H111.267V162H108.711V160.524C108.399 161.016 107.961 161.412 107.397 161.712C106.833 162.012 106.179 162.162 105.435 162.162C104.595 162.162 103.827 161.946 103.131 161.514C102.435 161.082 101.883 160.476 101.475 159.696C101.079 158.904 100.881 157.998 100.881 156.978ZM108.729 157.014C108.729 156.402 108.609 155.88 108.369 155.448C108.129 155.004 107.805 154.668 107.397 154.44C106.989 154.2 106.551 154.08 106.083 154.08C105.615 154.08 105.183 154.194 104.787 154.422C104.391 154.65 104.067 154.986 103.815 155.43C103.575 155.862 103.455 156.378 103.455 156.978C103.455 157.578 103.575 158.106 103.815 158.562C104.067 159.006 104.391 159.348 104.787 159.588C105.195 159.828 105.627 159.948 106.083 159.948C106.551 159.948 106.989 159.834 107.397 159.606C107.805 159.366 108.129 159.03 108.369 158.598C108.609 158.154 108.729 157.626 108.729 157.014ZM115.006 150.84C114.562 150.84 114.19 150.702 113.89 150.426C113.602 150.138 113.458 149.784 113.458 149.364C113.458 148.944 113.602 148.596 113.89 148.32C114.19 148.032 114.562 147.888 115.006 147.888C115.45 147.888 115.816 148.032 116.104 148.32C116.404 148.596 116.554 148.944 116.554 149.364C116.554 149.784 116.404 150.138 116.104 150.426C115.816 150.702 115.45 150.84 115.006 150.84ZM116.248 152.028V162H113.728V152.028H116.248ZM127.455 162.162C126.495 162.162 125.631 161.952 124.863 161.532C124.095 161.1 123.489 160.494 123.045 159.714C122.613 158.934 122.397 158.034 122.397 157.014C122.397 155.994 122.619 155.094 123.063 154.314C123.519 153.534 124.137 152.934 124.917 152.514C125.697 152.082 126.567 151.866 127.527 151.866C128.487 151.866 129.357 152.082 130.137 152.514C130.917 152.934 131.529 153.534 131.973 154.314C132.429 155.094 132.657 155.994 132.657 157.014C132.657 158.034 132.423 158.934 131.955 159.714C131.499 160.494 130.875 161.1 130.083 161.532C129.303 161.952 128.427 162.162 127.455 162.162ZM127.455 159.966C127.911 159.966 128.337 159.858 128.733 159.642C129.141 159.414 129.465 159.078 129.705 158.634C129.945 158.19 130.065 157.65 130.065 157.014C130.065 156.066 129.813 155.34 129.309 154.836C128.817 154.32 128.211 154.062 127.491 154.062C126.771 154.062 126.165 154.32 125.673 154.836C125.193 155.34 124.953 156.066 124.953 157.014C124.953 157.962 125.187 158.694 125.655 159.21C126.135 159.714 126.735 159.966 127.455 159.966ZM138.412 151.866C139.156 151.866 139.81 152.016 140.374 152.316C140.938 152.604 141.382 152.982 141.706 153.45V152.028H144.244V162.072C144.244 162.996 144.058 163.818 143.686 164.538C143.314 165.27 142.756 165.846 142.012 166.266C141.268 166.698 140.368 166.914 139.312 166.914C137.896 166.914 136.732 166.584 135.82 165.924C134.92 165.264 134.41 164.364 134.29 163.224H136.792C136.924 163.68 137.206 164.04 137.638 164.304C138.082 164.58 138.616 164.718 139.24 164.718C139.972 164.718 140.566 164.496 141.022 164.052C141.478 163.62 141.706 162.96 141.706 162.072V160.524C141.382 160.992 140.932 161.382 140.356 161.694C139.792 162.006 139.144 162.162 138.412 162.162C137.572 162.162 136.804 161.946 136.108 161.514C135.412 161.082 134.86 160.476 134.452 159.696C134.056 158.904 133.858 157.998 133.858 156.978C133.858 155.97 134.056 155.076 134.452 154.296C134.86 153.516 135.406 152.916 136.09 152.496C136.786 152.076 137.56 151.866 138.412 151.866ZM141.706 157.014C141.706 156.402 141.586 155.88 141.346 155.448C141.106 155.004 140.782 154.668 140.374 154.44C139.966 154.2 139.528 154.08 139.06 154.08C138.592 154.08 138.16 154.194 137.764 154.422C137.368 154.65 137.044 154.986 136.792 155.43C136.552 155.862 136.432 156.378 136.432 156.978C136.432 157.578 136.552 158.106 136.792 158.562C137.044 159.006 137.368 159.348 137.764 159.588C138.172 159.828 138.604 159.948 139.06 159.948C139.528 159.948 139.966 159.834 140.374 159.606C140.782 159.366 141.106 159.03 141.346 158.598C141.586 158.154 141.706 157.626 141.706 157.014ZM152.231 151.884C153.419 151.884 154.379 152.262 155.111 153.018C155.843 153.762 156.209 154.806 156.209 156.15V162H153.689V156.492C153.689 155.7 153.491 155.094 153.095 154.674C152.699 154.242 152.159 154.026 151.475 154.026C150.779 154.026 150.227 154.242 149.819 154.674C149.423 155.094 149.225 155.7 149.225 156.492V162H146.705V152.028H149.225V153.27C149.561 152.838 149.987 152.502 150.503 152.262C151.031 152.01 151.607 151.884 152.231 151.884ZM159.883 150.84C159.439 150.84 159.067 150.702 158.767 150.426C158.479 150.138 158.335 149.784 158.335 149.364C158.335 148.944 158.479 148.596 158.767 148.32C159.067 148.032 159.439 147.888 159.883 147.888C160.327 147.888 160.693 148.032 160.981 148.32C161.281 148.596 161.431 148.944 161.431 149.364C161.431 149.784 161.281 150.138 160.981 150.426C160.693 150.702 160.327 150.84 159.883 150.84ZM161.125 152.028V162H158.605V152.028H161.125ZM180.288 151.884C181.512 151.884 182.496 152.262 183.24 153.018C183.996 153.762 184.374 154.806 184.374 156.15V162H181.854V156.492C181.854 155.712 181.656 155.118 181.26 154.71C180.864 154.29 180.324 154.08 179.64 154.08C178.956 154.08 178.41 154.29 178.002 154.71C177.606 155.118 177.408 155.712 177.408 156.492V162H174.888V156.492C174.888 155.712 174.69 155.118 174.294 154.71C173.898 154.29 173.358 154.08 172.674 154.08C171.978 154.08 171.426 154.29 171.018 154.71C170.622 155.118 170.424 155.712 170.424 156.492V162H167.904V152.028H170.424V153.234C170.748 152.814 171.162 152.484 171.666 152.244C172.182 152.004 172.746 151.884 173.358 151.884C174.138 151.884 174.834 152.052 175.446 152.388C176.058 152.712 176.532 153.18 176.868 153.792C177.192 153.216 177.66 152.754 178.272 152.406C178.896 152.058 179.568 151.884 180.288 151.884ZM186.117 156.978C186.117 155.97 186.315 155.076 186.711 154.296C187.119 153.516 187.665 152.916 188.349 152.496C189.045 152.076 189.819 151.866 190.671 151.866C191.415 151.866 192.063 152.016 192.615 152.316C193.179 152.616 193.629 152.994 193.965 153.45V152.028H196.503V162H193.965V160.542C193.641 161.01 193.191 161.4 192.615 161.712C192.051 162.012 191.397 162.162 190.653 162.162C189.813 162.162 189.045 161.946 188.349 161.514C187.665 161.082 187.119 160.476 186.711 159.696C186.315 158.904 186.117 157.998 186.117 156.978ZM193.965 157.014C193.965 156.402 193.845 155.88 193.605 155.448C193.365 155.004 193.041 154.668 192.633 154.44C192.225 154.2 191.787 154.08 191.319 154.08C190.851 154.08 190.419 154.194 190.023 154.422C189.627 154.65 189.303 154.986 189.051 155.43C188.811 155.862 188.691 156.378 188.691 156.978C188.691 157.578 188.811 158.106 189.051 158.562C189.303 159.006 189.627 159.348 190.023 159.588C190.431 159.828 190.863 159.948 191.319 159.948C191.787 159.948 192.225 159.834 192.633 159.606C193.041 159.366 193.365 159.03 193.605 158.598C193.845 158.154 193.965 157.626 193.965 157.014ZM201.899 154.098V158.922C201.899 159.258 201.977 159.504 202.133 159.66C202.301 159.804 202.577 159.876 202.961 159.876H204.131V162H202.547C200.423 162 199.361 160.968 199.361 158.904V154.098H198.173V152.028H199.361V149.562H201.899V152.028H204.131V154.098H201.899ZM208.877 154.098V158.922C208.877 159.258 208.955 159.504 209.111 159.66C209.279 159.804 209.555 159.876 209.939 159.876H211.109V162H209.525C207.401 162 206.339 160.968 206.339 158.904V154.098H205.151V152.028H206.339V149.562H208.877V152.028H211.109V154.098H208.877ZM214.2 150.84C213.756 150.84 213.384 150.702 213.084 150.426C212.796 150.138 212.652 149.784 212.652 149.364C212.652 148.944 212.796 148.596 213.084 148.32C213.384 148.032 213.756 147.888 214.2 147.888C214.644 147.888 215.01 148.032 215.298 148.32C215.598 148.596 215.748 148.944 215.748 149.364C215.748 149.784 215.598 150.138 215.298 150.426C215.01 150.702 214.644 150.84 214.2 150.84ZM215.442 152.028V162H212.922V152.028H215.442ZM223.457 151.884C224.645 151.884 225.605 152.262 226.337 153.018C227.069 153.762 227.435 154.806 227.435 156.15V162H224.915V156.492C224.915 155.7 224.717 155.094 224.321 154.674C223.925 154.242 223.385 154.026 222.701 154.026C222.005 154.026 221.453 154.242 221.045 154.674C220.649 155.094 220.451 155.7 220.451 156.492V162H217.931V152.028H220.451V153.27C220.787 152.838 221.213 152.502 221.729 152.262C222.257 152.01 222.833 151.884 223.457 151.884ZM229.184 156.978C229.184 155.97 229.382 155.076 229.778 154.296C230.186 153.516 230.732 152.916 231.416 152.496C232.112 152.076 232.886 151.866 233.738 151.866C234.482 151.866 235.13 152.016 235.682 152.316C236.246 152.616 236.696 152.994 237.032 153.45V152.028H239.57V162H237.032V160.542C236.708 161.01 236.258 161.4 235.682 161.712C235.118 162.012 234.464 162.162 233.72 162.162C232.88 162.162 232.112 161.946 231.416 161.514C230.732 161.082 230.186 160.476 229.778 159.696C229.382 158.904 229.184 157.998 229.184 156.978ZM237.032 157.014C237.032 156.402 236.912 155.88 236.672 155.448C236.432 155.004 236.108 154.668 235.7 154.44C235.292 154.2 234.854 154.08 234.386 154.08C233.918 154.08 233.486 154.194 233.09 154.422C232.694 154.65 232.37 154.986 232.118 155.43C231.878 155.862 231.758 156.378 231.758 156.978C231.758 157.578 231.878 158.106 232.118 158.562C232.37 159.006 232.694 159.348 233.09 159.588C233.498 159.828 233.93 159.948 234.386 159.948C234.854 159.948 235.292 159.834 235.7 159.606C236.108 159.366 236.432 159.03 236.672 158.598C236.912 158.154 237.032 157.626 237.032 157.014ZM244.785 159.354L242.679 164.412H241.059L242.229 159.354H244.785ZM253.41 153.486C253.734 153.006 254.178 152.616 254.742 152.316C255.318 152.016 255.972 151.866 256.704 151.866C257.556 151.866 258.324 152.076 259.008 152.496C259.704 152.916 260.25 153.516 260.646 154.296C261.054 155.064 261.258 155.958 261.258 156.978C261.258 157.998 261.054 158.904 260.646 159.696C260.25 160.476 259.704 161.082 259.008 161.514C258.324 161.946 257.556 162.162 256.704 162.162C255.96 162.162 255.306 162.018 254.742 161.73C254.19 161.43 253.746 161.046 253.41 160.578V162H250.89V148.68H253.41V153.486ZM258.684 156.978C258.684 156.378 258.558 155.862 258.306 155.43C258.066 154.986 257.742 154.65 257.334 154.422C256.938 154.194 256.506 154.08 256.038 154.08C255.582 154.08 255.15 154.2 254.742 154.44C254.346 154.668 254.022 155.004 253.77 155.448C253.53 155.892 253.41 156.414 253.41 157.014C253.41 157.614 253.53 158.136 253.77 158.58C254.022 159.024 254.346 159.366 254.742 159.606C255.15 159.834 255.582 159.948 256.038 159.948C256.506 159.948 256.938 159.828 257.334 159.588C257.742 159.348 258.066 159.006 258.306 158.562C258.558 158.118 258.684 157.59 258.684 156.978ZM262.442 156.978C262.442 155.97 262.64 155.076 263.036 154.296C263.444 153.516 263.99 152.916 264.674 152.496C265.37 152.076 266.144 151.866 266.996 151.866C267.74 151.866 268.388 152.016 268.94 152.316C269.504 152.616 269.954 152.994 270.29 153.45V152.028H272.828V162H270.29V160.542C269.966 161.01 269.516 161.4 268.94 161.712C268.376 162.012 267.722 162.162 266.978 162.162C266.138 162.162 265.37 161.946 264.674 161.514C263.99 161.082 263.444 160.476 263.036 159.696C262.64 158.904 262.442 157.998 262.442 156.978ZM270.29 157.014C270.29 156.402 270.17 155.88 269.93 155.448C269.69 155.004 269.366 154.668 268.958 154.44C268.55 154.2 268.112 154.08 267.644 154.08C267.176 154.08 266.744 154.194 266.348 154.422C265.952 154.65 265.628 154.986 265.376 155.43C265.136 155.862 265.016 156.378 265.016 156.978C265.016 157.578 265.136 158.106 265.376 158.562C265.628 159.006 265.952 159.348 266.348 159.588C266.756 159.828 267.188 159.948 267.644 159.948C268.112 159.948 268.55 159.834 268.958 159.606C269.366 159.366 269.69 159.03 269.93 158.598C270.17 158.154 270.29 157.626 270.29 157.014ZM279.195 151.866C279.939 151.866 280.593 152.016 281.157 152.316C281.721 152.604 282.165 152.982 282.489 153.45V152.028H285.027V162.072C285.027 162.996 284.841 163.818 284.469 164.538C284.097 165.27 283.539 165.846 282.795 166.266C282.051 166.698 281.151 166.914 280.095 166.914C278.679 166.914 277.515 166.584 276.603 165.924C275.703 165.264 275.193 164.364 275.073 163.224H277.575C277.707 163.68 277.989 164.04 278.421 164.304C278.865 164.58 279.399 164.718 280.023 164.718C280.755 164.718 281.349 164.496 281.805 164.052C282.261 163.62 282.489 162.96 282.489 162.072V160.524C282.165 160.992 281.715 161.382 281.139 161.694C280.575 162.006 279.927 162.162 279.195 162.162C278.355 162.162 277.587 161.946 276.891 161.514C276.195 161.082 275.643 160.476 275.235 159.696C274.839 158.904 274.641 157.998 274.641 156.978C274.641 155.97 274.839 155.076 275.235 154.296C275.643 153.516 276.189 152.916 276.873 152.496C277.569 152.076 278.343 151.866 279.195 151.866ZM282.489 157.014C282.489 156.402 282.369 155.88 282.129 155.448C281.889 155.004 281.565 154.668 281.157 154.44C280.749 154.2 280.311 154.08 279.843 154.08C279.375 154.08 278.943 154.194 278.547 154.422C278.151 154.65 277.827 154.986 277.575 155.43C277.335 155.862 277.215 156.378 277.215 156.978C277.215 157.578 277.335 158.106 277.575 158.562C277.827 159.006 278.151 159.348 278.547 159.588C278.955 159.828 279.387 159.948 279.843 159.948C280.311 159.948 280.749 159.834 281.157 159.606C281.565 159.366 281.889 159.03 282.129 158.598C282.369 158.154 282.489 157.626 282.489 157.014ZM293.014 151.884C294.202 151.884 295.162 152.262 295.894 153.018C296.626 153.762 296.992 154.806 296.992 156.15V162H294.472V156.492C294.472 155.7 294.274 155.094 293.878 154.674C293.482 154.242 292.942 154.026 292.258 154.026C291.562 154.026 291.01 154.242 290.602 154.674C290.206 155.094 290.008 155.7 290.008 156.492V162H287.488V152.028H290.008V153.27C290.344 152.838 290.77 152.502 291.286 152.262C291.814 152.01 292.39 151.884 293.014 151.884ZM303.816 162.162C302.856 162.162 301.992 161.952 301.224 161.532C300.456 161.1 299.85 160.494 299.406 159.714C298.974 158.934 298.758 158.034 298.758 157.014C298.758 155.994 298.98 155.094 299.424 154.314C299.88 153.534 300.498 152.934 301.278 152.514C302.058 152.082 302.928 151.866 303.888 151.866C304.848 151.866 305.718 152.082 306.498 152.514C307.278 152.934 307.89 153.534 308.334 154.314C308.79 155.094 309.018 155.994 309.018 157.014C309.018 158.034 308.784 158.934 308.316 159.714C307.86 160.494 307.236 161.1 306.444 161.532C305.664 161.952 304.788 162.162 303.816 162.162ZM303.816 159.966C304.272 159.966 304.698 159.858 305.094 159.642C305.502 159.414 305.826 159.078 306.066 158.634C306.306 158.19 306.426 157.65 306.426 157.014C306.426 156.066 306.174 155.34 305.67 154.836C305.178 154.32 304.572 154.062 303.852 154.062C303.132 154.062 302.526 154.32 302.034 154.836C301.554 155.34 301.314 156.066 301.314 157.014C301.314 157.962 301.548 158.694 302.016 159.21C302.496 159.714 303.096 159.966 303.816 159.966ZM27.52 174.84C27.076 174.84 26.704 174.702 26.404 174.426C26.116 174.138 25.972 173.784 25.972 173.364C25.972 172.944 26.116 172.596 26.404 172.32C26.704 172.032 27.076 171.888 27.52 171.888C27.964 171.888 28.33 172.032 28.618 172.32C28.918 172.596 29.068 172.944 29.068 173.364C29.068 173.784 28.918 174.138 28.618 174.426C28.33 174.702 27.964 174.84 27.52 174.84ZM28.762 176.028V186H26.242V176.028H28.762ZM33.7718 172.68V186H31.2518V172.68H33.7718ZM38.7815 172.68V186H36.2615V172.68H38.7815ZM50.6853 176.028V186H48.1473V184.74C47.8233 185.172 47.3973 185.514 46.8693 185.766C46.3533 186.006 45.7893 186.126 45.1773 186.126C44.3973 186.126 43.7073 185.964 43.1073 185.64C42.5073 185.304 42.0333 184.818 41.6853 184.182C41.3493 183.534 41.1813 182.766 41.1813 181.878V176.028H43.7013V181.518C43.7013 182.31 43.8993 182.922 44.2953 183.354C44.6913 183.774 45.2313 183.984 45.9153 183.984C46.6113 183.984 47.1573 183.774 47.5533 183.354C47.9493 182.922 48.1473 182.31 48.1473 181.518V176.028H50.6853ZM65.5557 175.884C66.7797 175.884 67.7637 176.262 68.5077 177.018C69.2637 177.762 69.6417 178.806 69.6417 180.15V186H67.1217V180.492C67.1217 179.712 66.9237 179.118 66.5277 178.71C66.1317 178.29 65.5917 178.08 64.9077 178.08C64.2237 178.08 63.6777 178.29 63.2697 178.71C62.8737 179.118 62.6757 179.712 62.6757 180.492V186H60.1557V180.492C60.1557 179.712 59.9577 179.118 59.5617 178.71C59.1657 178.29 58.6257 178.08 57.9417 178.08C57.2457 178.08 56.6937 178.29 56.2857 178.71C55.8897 179.118 55.6917 179.712 55.6917 180.492V186H53.1717V176.028H55.6917V177.234C56.0157 176.814 56.4297 176.484 56.9337 176.244C57.4497 176.004 58.0137 175.884 58.6257 175.884C59.4057 175.884 60.1017 176.052 60.7137 176.388C61.3257 176.712 61.7997 177.18 62.1357 177.792C62.4597 177.216 62.9277 176.754 63.5397 176.406C64.1637 176.058 64.8357 175.884 65.5557 175.884ZM73.311 174.84C72.867 174.84 72.495 174.702 72.195 174.426C71.907 174.138 71.763 173.784 71.763 173.364C71.763 172.944 71.907 172.596 72.195 172.32C72.495 172.032 72.867 171.888 73.311 171.888C73.755 171.888 74.121 172.032 74.409 172.32C74.709 172.596 74.859 172.944 74.859 173.364C74.859 173.784 74.709 174.138 74.409 174.426C74.121 174.702 73.755 174.84 73.311 174.84ZM74.553 176.028V186H72.033V176.028H74.553ZM82.5688 175.884C83.7568 175.884 84.7168 176.262 85.4488 177.018C86.1808 177.762 86.5468 178.806 86.5468 180.15V186H84.0268V180.492C84.0268 179.7 83.8288 179.094 83.4328 178.674C83.0368 178.242 82.4968 178.026 81.8128 178.026C81.1168 178.026 80.5648 178.242 80.1568 178.674C79.7608 179.094 79.5628 179.7 79.5628 180.492V186H77.0428V176.028H79.5628V177.27C79.8988 176.838 80.3248 176.502 80.8408 176.262C81.3688 176.01 81.9448 175.884 82.5688 175.884ZM88.2952 180.978C88.2952 179.97 88.4932 179.076 88.8892 178.296C89.2972 177.516 89.8432 176.916 90.5272 176.496C91.2232 176.076 91.9972 175.866 92.8492 175.866C93.5932 175.866 94.2412 176.016 94.7932 176.316C95.3572 176.616 95.8072 176.994 96.1432 177.45V176.028H98.6812V186H96.1432V184.542C95.8192 185.01 95.3692 185.4 94.7932 185.712C94.2292 186.012 93.5752 186.162 92.8312 186.162C91.9912 186.162 91.2232 185.946 90.5272 185.514C89.8432 185.082 89.2972 184.476 88.8892 183.696C88.4932 182.904 88.2952 181.998 88.2952 180.978ZM96.1432 181.014C96.1432 180.402 96.0232 179.88 95.7832 179.448C95.5432 179.004 95.2192 178.668 94.8112 178.44C94.4032 178.2 93.9652 178.08 93.4972 178.08C93.0292 178.08 92.5972 178.194 92.2012 178.422C91.8052 178.65 91.4812 178.986 91.2292 179.43C90.9892 179.862 90.8692 180.378 90.8692 180.978C90.8692 181.578 90.9892 182.106 91.2292 182.562C91.4812 183.006 91.8052 183.348 92.2012 183.588C92.6092 183.828 93.0412 183.948 93.4972 183.948C93.9652 183.948 94.4032 183.834 94.8112 183.606C95.2192 183.366 95.5432 183.03 95.7832 182.598C96.0232 182.154 96.1432 181.626 96.1432 181.014ZM104.076 178.098V182.922C104.076 183.258 104.154 183.504 104.31 183.66C104.478 183.804 104.754 183.876 105.138 183.876H106.308V186H104.724C102.6 186 101.538 184.968 101.538 182.904V178.098H100.35V176.028H101.538V173.562H104.076V176.028H106.308V178.098H104.076ZM112.549 186.162C111.589 186.162 110.725 185.952 109.957 185.532C109.189 185.1 108.583 184.494 108.139 183.714C107.707 182.934 107.491 182.034 107.491 181.014C107.491 179.994 107.713 179.094 108.157 178.314C108.613 177.534 109.231 176.934 110.011 176.514C110.791 176.082 111.661 175.866 112.621 175.866C113.581 175.866 114.451 176.082 115.231 176.514C116.011 176.934 116.623 177.534 117.067 178.314C117.523 179.094 117.751 179.994 117.751 181.014C117.751 182.034 117.517 182.934 117.049 183.714C116.593 184.494 115.969 185.1 115.177 185.532C114.397 185.952 113.521 186.162 112.549 186.162ZM112.549 183.966C113.005 183.966 113.431 183.858 113.827 183.642C114.235 183.414 114.559 183.078 114.799 182.634C115.039 182.19 115.159 181.65 115.159 181.014C115.159 180.066 114.907 179.34 114.403 178.836C113.911 178.32 113.305 178.062 112.585 178.062C111.865 178.062 111.259 178.32 110.767 178.836C110.287 179.34 110.047 180.066 110.047 181.014C110.047 181.962 110.281 182.694 110.749 183.21C111.229 183.714 111.829 183.966 112.549 183.966ZM133.158 180.798C133.158 181.158 133.134 181.482 133.086 181.77H125.796C125.856 182.49 126.108 183.054 126.552 183.462C126.996 183.87 127.542 184.074 128.19 184.074C129.126 184.074 129.792 183.672 130.188 182.868H132.906C132.618 183.828 132.066 184.62 131.25 185.244C130.434 185.856 129.432 186.162 128.244 186.162C127.284 186.162 126.42 185.952 125.652 185.532C124.896 185.1 124.302 184.494 123.87 183.714C123.45 182.934 123.24 182.034 123.24 181.014C123.24 179.982 123.45 179.076 123.87 178.296C124.29 177.516 124.878 176.916 125.634 176.496C126.39 176.076 127.26 175.866 128.244 175.866C129.192 175.866 130.038 176.07 130.782 176.478C131.538 176.886 132.12 177.468 132.528 178.224C132.948 178.968 133.158 179.826 133.158 180.798ZM130.548 180.078C130.536 179.43 130.302 178.914 129.846 178.53C129.39 178.134 128.832 177.936 128.172 177.936C127.548 177.936 127.02 178.128 126.588 178.512C126.168 178.884 125.91 179.406 125.814 180.078H130.548ZM142.221 178.098V182.922C142.221 183.258 142.299 183.504 142.455 183.66C142.623 183.804 142.899 183.876 143.283 183.876H144.453V186H142.869C140.745 186 139.683 184.968 139.683 182.904V178.098H138.495V176.028H139.683V173.562H142.221V176.028H144.453V178.098H142.221ZM145.617 180.978C145.617 179.97 145.815 179.076 146.211 178.296C146.619 177.516 147.165 176.916 147.849 176.496C148.545 176.076 149.319 175.866 150.171 175.866C150.915 175.866 151.563 176.016 152.115 176.316C152.679 176.616 153.129 176.994 153.465 177.45V176.028H156.003V186H153.465V184.542C153.141 185.01 152.691 185.4 152.115 185.712C151.551 186.012 150.897 186.162 150.153 186.162C149.313 186.162 148.545 185.946 147.849 185.514C147.165 185.082 146.619 184.476 146.211 183.696C145.815 182.904 145.617 181.998 145.617 180.978ZM153.465 181.014C153.465 180.402 153.345 179.88 153.105 179.448C152.865 179.004 152.541 178.668 152.133 178.44C151.725 178.2 151.287 178.08 150.819 178.08C150.351 178.08 149.919 178.194 149.523 178.422C149.127 178.65 148.803 178.986 148.551 179.43C148.311 179.862 148.191 180.378 148.191 180.978C148.191 181.578 148.311 182.106 148.551 182.562C148.803 183.006 149.127 183.348 149.523 183.588C149.931 183.828 150.363 183.948 150.819 183.948C151.287 183.948 151.725 183.834 152.133 183.606C152.541 183.366 152.865 183.03 153.105 182.598C153.345 182.154 153.465 181.626 153.465 181.014ZM160.985 177.468C161.309 177.012 161.753 176.634 162.317 176.334C162.893 176.022 163.547 175.866 164.279 175.866C165.131 175.866 165.899 176.076 166.583 176.496C167.279 176.916 167.825 177.516 168.221 178.296C168.629 179.064 168.833 179.958 168.833 180.978C168.833 181.998 168.629 182.904 168.221 183.696C167.825 184.476 167.279 185.082 166.583 185.514C165.899 185.946 165.131 186.162 164.279 186.162C163.547 186.162 162.899 186.012 162.335 185.712C161.783 185.412 161.333 185.034 160.985 184.578V190.752H158.465V176.028H160.985V177.468ZM166.259 180.978C166.259 180.378 166.133 179.862 165.881 179.43C165.641 178.986 165.317 178.65 164.909 178.422C164.513 178.194 164.081 178.08 163.613 178.08C163.157 178.08 162.725 178.2 162.317 178.44C161.921 178.668 161.597 179.004 161.345 179.448C161.105 179.892 160.985 180.414 160.985 181.014C160.985 181.614 161.105 182.136 161.345 182.58C161.597 183.024 161.921 183.366 162.317 183.606C162.725 183.834 163.157 183.948 163.613 183.948C164.081 183.948 164.513 183.828 164.909 183.588C165.317 183.348 165.641 183.006 165.881 182.562C166.133 182.118 166.259 181.59 166.259 180.978ZM173.184 177.468C173.508 177.012 173.952 176.634 174.516 176.334C175.092 176.022 175.746 175.866 176.478 175.866C177.33 175.866 178.098 176.076 178.782 176.496C179.478 176.916 180.024 177.516 180.42 178.296C180.828 179.064 181.032 179.958 181.032 180.978C181.032 181.998 180.828 182.904 180.42 183.696C180.024 184.476 179.478 185.082 178.782 185.514C178.098 185.946 177.33 186.162 176.478 186.162C175.746 186.162 175.098 186.012 174.534 185.712C173.982 185.412 173.532 185.034 173.184 184.578V190.752H170.664V176.028H173.184V177.468ZM178.458 180.978C178.458 180.378 178.332 179.862 178.08 179.43C177.84 178.986 177.516 178.65 177.108 178.422C176.712 178.194 176.28 178.08 175.812 178.08C175.356 178.08 174.924 178.2 174.516 178.44C174.12 178.668 173.796 179.004 173.544 179.448C173.304 179.892 173.184 180.414 173.184 181.014C173.184 181.614 173.304 182.136 173.544 182.58C173.796 183.024 174.12 183.366 174.516 183.606C174.924 183.834 175.356 183.948 175.812 183.948C176.28 183.948 176.712 183.828 177.108 183.588C177.516 183.348 177.84 183.006 178.08 182.562C178.332 182.118 178.458 181.59 178.458 180.978ZM182.215 180.978C182.215 179.97 182.413 179.076 182.809 178.296C183.217 177.516 183.763 176.916 184.447 176.496C185.143 176.076 185.917 175.866 186.769 175.866C187.513 175.866 188.161 176.016 188.713 176.316C189.277 176.616 189.727 176.994 190.063 177.45V176.028H192.601V186H190.063V184.542C189.739 185.01 189.289 185.4 188.713 185.712C188.149 186.012 187.495 186.162 186.751 186.162C185.911 186.162 185.143 185.946 184.447 185.514C183.763 185.082 183.217 184.476 182.809 183.696C182.413 182.904 182.215 181.998 182.215 180.978ZM190.063 181.014C190.063 180.402 189.943 179.88 189.703 179.448C189.463 179.004 189.139 178.668 188.731 178.44C188.323 178.2 187.885 178.08 187.417 178.08C186.949 178.08 186.517 178.194 186.121 178.422C185.725 178.65 185.401 178.986 185.149 179.43C184.909 179.862 184.789 180.378 184.789 180.978C184.789 181.578 184.909 182.106 185.149 182.562C185.401 183.006 185.725 183.348 186.121 183.588C186.529 183.828 186.961 183.948 187.417 183.948C187.885 183.948 188.323 183.834 188.731 183.606C189.139 183.366 189.463 183.03 189.703 182.598C189.943 182.154 190.063 181.626 190.063 181.014ZM197.582 177.576C197.906 177.048 198.326 176.634 198.842 176.334C199.37 176.034 199.97 175.884 200.642 175.884V178.53H199.976C199.184 178.53 198.584 178.716 198.176 179.088C197.78 179.46 197.582 180.108 197.582 181.032V186H195.062V176.028H197.582V177.576ZM211.61 180.798C211.61 181.158 211.586 181.482 211.538 181.77H204.248C204.308 182.49 204.56 183.054 205.004 183.462C205.448 183.87 205.994 184.074 206.642 184.074C207.578 184.074 208.244 183.672 208.64 182.868H211.358C211.07 183.828 210.518 184.62 209.702 185.244C208.886 185.856 207.884 186.162 206.696 186.162C205.736 186.162 204.872 185.952 204.104 185.532C203.348 185.1 202.754 184.494 202.322 183.714C201.902 182.934 201.692 182.034 201.692 181.014C201.692 179.982 201.902 179.076 202.322 178.296C202.742 177.516 203.33 176.916 204.086 176.496C204.842 176.076 205.712 175.866 206.696 175.866C207.644 175.866 208.49 176.07 209.234 176.478C209.99 176.886 210.572 177.468 210.98 178.224C211.4 178.968 211.61 179.826 211.61 180.798ZM209 180.078C208.988 179.43 208.754 178.914 208.298 178.53C207.842 178.134 207.284 177.936 206.624 177.936C206 177.936 205.472 178.128 205.04 178.512C204.62 178.884 204.362 179.406 204.266 180.078H209ZM215.969 172.68V186H213.449V172.68H215.969ZM220.979 172.68V186H218.459V172.68H220.979ZM232.739 180.798C232.739 181.158 232.715 181.482 232.667 181.77H225.377C225.437 182.49 225.689 183.054 226.133 183.462C226.577 183.87 227.123 184.074 227.771 184.074C228.707 184.074 229.373 183.672 229.769 182.868H232.487C232.199 183.828 231.647 184.62 230.831 185.244C230.015 185.856 229.013 186.162 227.825 186.162C226.865 186.162 226.001 185.952 225.233 185.532C224.477 185.1 223.883 184.494 223.451 183.714C223.031 182.934 222.821 182.034 222.821 181.014C222.821 179.982 223.031 179.076 223.451 178.296C223.871 177.516 224.459 176.916 225.215 176.496C225.971 176.076 226.841 175.866 227.825 175.866C228.773 175.866 229.619 176.07 230.363 176.478C231.119 176.886 231.701 177.468 232.109 178.224C232.529 178.968 232.739 179.826 232.739 180.798ZM230.129 180.078C230.117 179.43 229.883 178.914 229.427 178.53C228.971 178.134 228.413 177.936 227.753 177.936C227.129 177.936 226.601 178.128 226.169 178.512C225.749 178.884 225.491 179.406 225.395 180.078H230.129ZM238.219 180.978C238.219 179.97 238.417 179.076 238.813 178.296C239.221 177.516 239.767 176.916 240.451 176.496C241.147 176.076 241.921 175.866 242.773 175.866C243.517 175.866 244.165 176.016 244.717 176.316C245.281 176.616 245.731 176.994 246.067 177.45V176.028H248.605V186H246.067V184.542C245.743 185.01 245.293 185.4 244.717 185.712C244.153 186.012 243.499 186.162 242.755 186.162C241.915 186.162 241.147 185.946 240.451 185.514C239.767 185.082 239.221 184.476 238.813 183.696C238.417 182.904 238.219 181.998 238.219 180.978ZM246.067 181.014C246.067 180.402 245.947 179.88 245.707 179.448C245.467 179.004 245.143 178.668 244.735 178.44C244.327 178.2 243.889 178.08 243.421 178.08C242.953 178.08 242.521 178.194 242.125 178.422C241.729 178.65 241.405 178.986 241.153 179.43C240.913 179.862 240.793 180.378 240.793 180.978C240.793 181.578 240.913 182.106 241.153 182.562C241.405 183.006 241.729 183.348 242.125 183.588C242.533 183.828 242.965 183.948 243.421 183.948C243.889 183.948 244.327 183.834 244.735 183.606C245.143 183.366 245.467 183.03 245.707 182.598C245.947 182.154 246.067 181.626 246.067 181.014ZM253.586 172.68V186H251.066V172.68H253.586ZM258.38 183.93H262.826V186H255.518V183.966L259.874 178.098H255.536V176.028H262.772V178.062L258.38 183.93ZM264.129 180.978C264.129 179.97 264.327 179.076 264.723 178.296C265.131 177.516 265.677 176.916 266.361 176.496C267.057 176.076 267.831 175.866 268.683 175.866C269.427 175.866 270.075 176.016 270.627 176.316C271.191 176.616 271.641 176.994 271.977 177.45V176.028H274.515V186H271.977V184.542C271.653 185.01 271.203 185.4 270.627 185.712C270.063 186.012 269.409 186.162 268.665 186.162C267.825 186.162 267.057 185.946 266.361 185.514C265.677 185.082 265.131 184.476 264.723 183.696C264.327 182.904 264.129 181.998 264.129 180.978ZM271.977 181.014C271.977 180.402 271.857 179.88 271.617 179.448C271.377 179.004 271.053 178.668 270.645 178.44C270.237 178.2 269.799 178.08 269.331 178.08C268.863 178.08 268.431 178.194 268.035 178.422C267.639 178.65 267.315 178.986 267.063 179.43C266.823 179.862 266.703 180.378 266.703 180.978C266.703 181.578 266.823 182.106 267.063 182.562C267.315 183.006 267.639 183.348 268.035 183.588C268.443 183.828 268.875 183.948 269.331 183.948C269.799 183.948 270.237 183.834 270.645 183.606C271.053 183.366 271.377 183.03 271.617 182.598C271.857 182.154 271.977 181.626 271.977 181.014ZM279.91 178.098V182.922C279.91 183.258 279.988 183.504 280.144 183.66C280.312 183.804 280.588 183.876 280.972 183.876H282.142V186H280.558C278.434 186 277.372 184.968 277.372 182.904V178.098H276.184V176.028H277.372V173.562H279.91V176.028H282.142V178.098H279.91ZM293.225 180.798C293.225 181.158 293.201 181.482 293.153 181.77H285.863C285.923 182.49 286.175 183.054 286.619 183.462C287.063 183.87 287.609 184.074 288.257 184.074C289.193 184.074 289.859 183.672 290.255 182.868H292.973C292.685 183.828 292.133 184.62 291.317 185.244C290.501 185.856 289.499 186.162 288.311 186.162C287.351 186.162 286.487 185.952 285.719 185.532C284.963 185.1 284.369 184.494 283.937 183.714C283.517 182.934 283.307 182.034 283.307 181.014C283.307 179.982 283.517 179.076 283.937 178.296C284.357 177.516 284.945 176.916 285.701 176.496C286.457 176.076 287.327 175.866 288.311 175.866C289.259 175.866 290.105 176.07 290.849 176.478C291.605 176.886 292.187 177.468 292.595 178.224C293.015 178.968 293.225 179.826 293.225 180.798ZM290.615 180.078C290.603 179.43 290.369 178.914 289.913 178.53C289.457 178.134 288.899 177.936 288.239 177.936C287.615 177.936 287.087 178.128 286.655 178.512C286.235 178.884 285.977 179.406 285.881 180.078H290.615ZM300.631 174.84C300.187 174.84 299.815 174.702 299.515 174.426C299.227 174.138 299.083 173.784 299.083 173.364C299.083 172.944 299.227 172.596 299.515 172.32C299.815 172.032 300.187 171.888 300.631 171.888C301.075 171.888 301.441 172.032 301.729 172.32C302.029 172.596 302.179 172.944 302.179 173.364C302.179 173.784 302.029 174.138 301.729 174.426C301.441 174.702 301.075 174.84 300.631 174.84ZM301.873 176.028V186H299.353V176.028H301.873ZM309.889 175.884C311.077 175.884 312.037 176.262 312.769 177.018C313.501 177.762 313.867 178.806 313.867 180.15V186H311.347V180.492C311.347 179.7 311.149 179.094 310.753 178.674C310.357 178.242 309.817 178.026 309.133 178.026C308.437 178.026 307.885 178.242 307.477 178.674C307.081 179.094 306.883 179.7 306.883 180.492V186H304.363V176.028H306.883V177.27C307.219 176.838 307.645 176.502 308.161 176.262C308.689 176.01 309.265 175.884 309.889 175.884ZM25.594 205.014C25.594 203.982 25.804 203.082 26.224 202.314C26.644 201.534 27.226 200.934 27.97 200.514C28.714 200.082 29.566 199.866 30.526 199.866C31.762 199.866 32.782 200.178 33.586 200.802C34.402 201.414 34.948 202.278 35.224 203.394H32.506C32.362 202.962 32.116 202.626 31.768 202.386C31.432 202.134 31.012 202.008 30.508 202.008C29.788 202.008 29.218 202.272 28.798 202.8C28.378 203.316 28.168 204.054 28.168 205.014C28.168 205.962 28.378 206.7 28.798 207.228C29.218 207.744 29.788 208.002 30.508 208.002C31.528 208.002 32.194 207.546 32.506 206.634H35.224C34.948 207.714 34.402 208.572 33.586 209.208C32.77 209.844 31.75 210.162 30.526 210.162C29.566 210.162 28.714 209.952 27.97 209.532C27.226 209.1 26.644 208.5 26.224 207.732C25.804 206.952 25.594 206.046 25.594 205.014ZM36.4221 204.978C36.4221 203.97 36.6201 203.076 37.0161 202.296C37.4241 201.516 37.9701 200.916 38.6541 200.496C39.3501 200.076 40.1241 199.866 40.9761 199.866C41.7201 199.866 42.3681 200.016 42.9201 200.316C43.4841 200.616 43.9341 200.994 44.2701 201.45V200.028H46.8081V210H44.2701V208.542C43.9461 209.01 43.4961 209.4 42.9201 209.712C42.3561 210.012 41.7021 210.162 40.9581 210.162C40.1181 210.162 39.3501 209.946 38.6541 209.514C37.9701 209.082 37.4241 208.476 37.0161 207.696C36.6201 206.904 36.4221 205.998 36.4221 204.978ZM44.2701 205.014C44.2701 204.402 44.1501 203.88 43.9101 203.448C43.6701 203.004 43.3461 202.668 42.9381 202.44C42.5301 202.2 42.0921 202.08 41.6241 202.08C41.1561 202.08 40.7241 202.194 40.3281 202.422C39.9321 202.65 39.6081 202.986 39.3561 203.43C39.1161 203.862 38.9961 204.378 38.9961 204.978C38.9961 205.578 39.1161 206.106 39.3561 206.562C39.6081 207.006 39.9321 207.348 40.3281 207.588C40.7361 207.828 41.1681 207.948 41.6241 207.948C42.0921 207.948 42.5301 207.834 42.9381 207.606C43.3461 207.366 43.6701 207.03 43.9101 206.598C44.1501 206.154 44.2701 205.626 44.2701 205.014ZM61.6533 199.884C62.8773 199.884 63.8613 200.262 64.6053 201.018C65.3613 201.762 65.7393 202.806 65.7393 204.15V210H63.2193V204.492C63.2193 203.712 63.0213 203.118 62.6253 202.71C62.2293 202.29 61.6893 202.08 61.0053 202.08C60.3213 202.08 59.7753 202.29 59.3673 202.71C58.9713 203.118 58.7733 203.712 58.7733 204.492V210H56.2533V204.492C56.2533 203.712 56.0553 203.118 55.6593 202.71C55.2633 202.29 54.7233 202.08 54.0393 202.08C53.3433 202.08 52.7913 202.29 52.3833 202.71C51.9873 203.118 51.7893 203.712 51.7893 204.492V210H49.2693V200.028H51.7893V201.234C52.1133 200.814 52.5273 200.484 53.0313 200.244C53.5473 200.004 54.1113 199.884 54.7233 199.884C55.5033 199.884 56.1993 200.052 56.8113 200.388C57.4233 200.712 57.8973 201.18 58.2333 201.792C58.5573 201.216 59.0253 200.754 59.6373 200.406C60.2613 200.058 60.9333 199.884 61.6533 199.884ZM77.4007 204.798C77.4007 205.158 77.3767 205.482 77.3287 205.77H70.0387C70.0987 206.49 70.3507 207.054 70.7947 207.462C71.2387 207.87 71.7847 208.074 72.4327 208.074C73.3687 208.074 74.0347 207.672 74.4307 206.868H77.1487C76.8607 207.828 76.3087 208.62 75.4927 209.244C74.6767 209.856 73.6747 210.162 72.4867 210.162C71.5267 210.162 70.6627 209.952 69.8947 209.532C69.1387 209.1 68.5447 208.494 68.1127 207.714C67.6927 206.934 67.4827 206.034 67.4827 205.014C67.4827 203.982 67.6927 203.076 68.1127 202.296C68.5327 201.516 69.1207 200.916 69.8767 200.496C70.6327 200.076 71.5027 199.866 72.4867 199.866C73.4347 199.866 74.2807 200.07 75.0247 200.478C75.7807 200.886 76.3627 201.468 76.7707 202.224C77.1907 202.968 77.4007 203.826 77.4007 204.798ZM74.7907 204.078C74.7787 203.43 74.5447 202.914 74.0887 202.53C73.6327 202.134 73.0747 201.936 72.4147 201.936C71.7907 201.936 71.2627 202.128 70.8307 202.512C70.4107 202.884 70.1527 203.406 70.0567 204.078H74.7907ZM81.76 201.576C82.084 201.048 82.504 200.634 83.02 200.334C83.548 200.034 84.148 199.884 84.82 199.884V202.53H84.154C83.362 202.53 82.762 202.716 82.354 203.088C81.958 203.46 81.76 204.108 81.76 205.032V210H79.24V200.028H81.76V201.576ZM85.8694 204.978C85.8694 203.97 86.0674 203.076 86.4634 202.296C86.8714 201.516 87.4174 200.916 88.1014 200.496C88.7974 200.076 89.5714 199.866 90.4234 199.866C91.1674 199.866 91.8154 200.016 92.3674 200.316C92.9314 200.616 93.3814 200.994 93.7174 201.45V200.028H96.2554V210H93.7174V208.542C93.3934 209.01 92.9434 209.4 92.3674 209.712C91.8034 210.012 91.1494 210.162 90.4054 210.162C89.5654 210.162 88.7974 209.946 88.1014 209.514C87.4174 209.082 86.8714 208.476 86.4634 207.696C86.0674 206.904 85.8694 205.998 85.8694 204.978ZM93.7174 205.014C93.7174 204.402 93.5974 203.88 93.3574 203.448C93.1174 203.004 92.7934 202.668 92.3854 202.44C91.9774 202.2 91.5394 202.08 91.0714 202.08C90.6034 202.08 90.1714 202.194 89.7754 202.422C89.3794 202.65 89.0554 202.986 88.8034 203.43C88.5634 203.862 88.4434 204.378 88.4434 204.978C88.4434 205.578 88.5634 206.106 88.8034 206.562C89.0554 207.006 89.3794 207.348 89.7754 207.588C90.1834 207.828 90.6154 207.948 91.0714 207.948C91.5394 207.948 91.9774 207.834 92.3854 207.606C92.7934 207.366 93.1174 207.03 93.3574 206.598C93.5974 206.154 93.7174 205.626 93.7174 205.014ZM99.8326 210.126C99.3766 210.126 98.9986 209.988 98.6986 209.712C98.4106 209.424 98.2666 209.07 98.2666 208.65C98.2666 208.23 98.4106 207.882 98.6986 207.606C98.9986 207.318 99.3766 207.174 99.8326 207.174C100.277 207.174 100.643 207.318 100.931 207.606C101.219 207.882 101.363 208.23 101.363 208.65C101.363 209.07 101.219 209.424 100.931 209.712C100.643 209.988 100.277 210.126 99.8326 210.126Z" fill="white"/>
<rect x="290" y="212" width="44" height="24" rx="12" fill="white" fill-opacity="0.22"/>
<g filter="url(#filter1_d_110_78)">
<rect x="292" y="214" width="20" height="20" rx="10" fill="white" fill-opacity="0.5" shape-rendering="crispEdges"/>
</g>
<defs>
<filter id="filter1_d_110_78" x="288" y="212" width="28" height="28" filterUnits="userSpaceOnUse" color-interpolation-filters="sRGB">
<feFlood flood-opacity="0" result="BackgroundImageFix"/>
<feColorMatrix in="SourceAlpha" type="matrix" values="0 0 0 0 0 0 0 0 0 0 0 0 0 0 0 0 0 0 127 0" result="hardAlpha"/>
<feOffset dy="2"/>
<feGaussianBlur stdDeviation="2"/>
<feComposite in2="hardAlpha" operator="out"/>
<feColorMatrix type="matrix" values="0 0 0 0 0.152941 0 0 0 0 0.152941 0 0 0 0 0.152941 0 0 0 0.1 0"/>
<feBlend mode="normal" in2="BackgroundImageFix" result="effect1_dropShadow_110_78"/>
<feBlend mode="normal" in="SourceGraphic" in2="effect1_dropShadow_110_78" result="shape"/>
</filter>
</defs>
</svg>
