<svg width="359" height="258" viewBox="0 0 359 258" fill="none" xmlns="http://www.w3.org/2000/svg">
<rect width="359" height="258" rx="20" fill="white" fill-opacity="0.25"/>
<rect x="1" y="1" width="357" height="256" rx="19" stroke="white" stroke-opacity="0.25" stroke-width="2"/>
<path d="M37.958 46.706L35.626 43.912C34.9807 44.0733 34.3207 44.154 33.646 44.154C32.2087 44.154 30.8887 43.8167 29.686 43.142C28.4833 42.4673 27.53 41.536 26.826 40.348C26.122 39.1453 25.77 37.7887 25.77 36.278C25.77 34.782 26.122 33.44 26.826 32.252C27.53 31.0493 28.4833 30.1107 29.686 29.436C30.8887 28.7613 32.2087 28.424 33.646 28.424C35.098 28.424 36.418 28.7613 37.606 29.436C38.8087 30.1107 39.7547 31.0493 40.444 32.252C41.148 33.44 41.5 34.782 41.5 36.278C41.5 37.642 41.2067 38.8887 40.62 40.018C40.048 41.1327 39.2633 42.042 38.266 42.746L41.786 46.706H37.958ZM28.938 36.278C28.938 37.3047 29.136 38.2067 29.532 38.984C29.928 39.7613 30.478 40.3627 31.182 40.788C31.9007 41.1987 32.722 41.404 33.646 41.404C34.57 41.404 35.384 41.1987 36.088 40.788C36.792 40.3627 37.342 39.7613 37.738 38.984C38.134 38.2067 38.332 37.3047 38.332 36.278C38.332 35.2513 38.134 34.3567 37.738 33.594C37.342 32.8167 36.792 32.2227 36.088 31.812C35.384 31.4013 34.57 31.196 33.646 31.196C32.722 31.196 31.9007 31.4013 31.182 31.812C30.478 32.2227 29.928 32.8167 29.532 33.594C29.136 34.3567 28.938 35.2513 28.938 36.278ZM55.3404 31.812V44H52.2384V42.46C51.8424 42.988 51.3217 43.406 50.6764 43.714C50.0457 44.0073 49.3564 44.154 48.6084 44.154C47.6551 44.154 46.8117 43.956 46.0784 43.56C45.3451 43.1493 44.7657 42.5553 44.3404 41.778C43.9297 40.986 43.7244 40.0473 43.7244 38.962V31.812H46.8044V38.522C46.8044 39.49 47.0464 40.238 47.5304 40.766C48.0144 41.2793 48.6744 41.536 49.5104 41.536C50.3611 41.536 51.0284 41.2793 51.5124 40.766C51.9964 40.238 52.2384 39.49 52.2384 38.522V31.812H55.3404ZM57.5873 37.862C57.5873 36.63 57.8293 35.5373 58.3133 34.584C58.812 33.6307 59.4793 32.8973 60.3153 32.384C61.166 31.8707 62.112 31.614 63.1533 31.614C64.0627 31.614 64.8547 31.7973 65.5293 32.164C66.2187 32.5307 66.7687 32.9927 67.1793 33.55V31.812H70.2813V44H67.1793V42.218C66.7833 42.79 66.2333 43.2667 65.5293 43.648C64.84 44.0147 64.0407 44.198 63.1313 44.198C62.1047 44.198 61.166 43.934 60.3153 43.406C59.4793 42.878 58.812 42.1373 58.3133 41.184C57.8293 40.216 57.5873 39.1087 57.5873 37.862ZM67.1793 37.906C67.1793 37.158 67.0327 36.52 66.7393 35.992C66.446 35.4493 66.05 35.0387 65.5513 34.76C65.0527 34.4667 64.5173 34.32 63.9453 34.32C63.3733 34.32 62.8453 34.4593 62.3613 34.738C61.8773 35.0167 61.4813 35.4273 61.1733 35.97C60.88 36.498 60.7333 37.1287 60.7333 37.862C60.7333 38.5953 60.88 39.2407 61.1733 39.798C61.4813 40.3407 61.8773 40.7587 62.3613 41.052C62.86 41.3453 63.388 41.492 63.9453 41.492C64.5173 41.492 65.0527 41.3527 65.5513 41.074C66.05 40.7807 66.446 40.37 66.7393 39.842C67.0327 39.2993 67.1793 38.654 67.1793 37.906ZM80.0435 31.636C81.4955 31.636 82.6688 32.098 83.5635 33.022C84.4582 33.9313 84.9055 35.2073 84.9055 36.85V44H81.8255V37.268C81.8255 36.3 81.5835 35.5593 81.0995 35.046C80.6155 34.518 79.9555 34.254 79.1195 34.254C78.2688 34.254 77.5942 34.518 77.0955 35.046C76.6115 35.5593 76.3695 36.3 76.3695 37.268V44H73.2895V31.812H76.3695V33.33C76.7802 32.802 77.3008 32.3913 77.9315 32.098C78.5768 31.79 79.2808 31.636 80.0435 31.636ZM87.0424 37.862C87.0424 36.63 87.2844 35.5373 87.7684 34.584C88.2671 33.6307 88.9417 32.8973 89.7924 32.384C90.6431 31.8707 91.5891 31.614 92.6304 31.614C93.4224 31.614 94.1777 31.79 94.8964 32.142C95.6151 32.4793 96.1871 32.934 96.6124 33.506V27.72H99.7364V44H96.6124V42.196C96.2311 42.7973 95.6957 43.2813 95.0064 43.648C94.3171 44.0147 93.5177 44.198 92.6084 44.198C91.5817 44.198 90.6431 43.934 89.7924 43.406C88.9417 42.878 88.2671 42.1373 87.7684 41.184C87.2844 40.216 87.0424 39.1087 87.0424 37.862ZM96.6344 37.906C96.6344 37.158 96.4877 36.52 96.1944 35.992C95.9011 35.4493 95.5051 35.0387 95.0064 34.76C94.5077 34.4667 93.9724 34.32 93.4004 34.32C92.8284 34.32 92.3004 34.4593 91.8164 34.738C91.3324 35.0167 90.9364 35.4273 90.6284 35.97C90.3351 36.498 90.1884 37.1287 90.1884 37.862C90.1884 38.5953 90.3351 39.2407 90.6284 39.798C90.9364 40.3407 91.3324 40.7587 91.8164 41.052C92.3151 41.3453 92.8431 41.492 93.4004 41.492C93.9724 41.492 94.5077 41.3527 95.0064 41.074C95.5051 40.7807 95.9011 40.37 96.1944 39.842C96.4877 39.2993 96.6344 38.654 96.6344 37.906ZM108.157 44.198C106.983 44.198 105.927 43.9413 104.989 43.428C104.05 42.9 103.309 42.1593 102.767 41.206C102.239 40.2527 101.975 39.1527 101.975 37.906C101.975 36.6593 102.246 35.5593 102.789 34.606C103.346 33.6527 104.101 32.9193 105.055 32.406C106.008 31.878 107.071 31.614 108.245 31.614C109.418 31.614 110.481 31.878 111.435 32.406C112.388 32.9193 113.136 33.6527 113.679 34.606C114.236 35.5593 114.515 36.6593 114.515 37.906C114.515 39.1527 114.229 40.2527 113.657 41.206C113.099 42.1593 112.337 42.9 111.369 43.428C110.415 43.9413 109.345 44.198 108.157 44.198ZM108.157 41.514C108.714 41.514 109.235 41.382 109.719 41.118C110.217 40.8393 110.613 40.4287 110.907 39.886C111.2 39.3433 111.347 38.6833 111.347 37.906C111.347 36.7473 111.039 35.86 110.423 35.244C109.821 34.6133 109.081 34.298 108.201 34.298C107.321 34.298 106.58 34.6133 105.979 35.244C105.392 35.86 105.099 36.7473 105.099 37.906C105.099 39.0647 105.385 39.9593 105.957 40.59C106.543 41.206 107.277 41.514 108.157 41.514ZM133.346 37.642C133.346 38.082 133.317 38.478 133.258 38.83H124.348C124.421 39.71 124.729 40.3993 125.272 40.898C125.815 41.3967 126.482 41.646 127.274 41.646C128.418 41.646 129.232 41.1547 129.716 40.172H133.038C132.686 41.3453 132.011 42.3133 131.014 43.076C130.017 43.824 128.792 44.198 127.34 44.198C126.167 44.198 125.111 43.9413 124.172 43.428C123.248 42.9 122.522 42.1593 121.994 41.206C121.481 40.2527 121.224 39.1527 121.224 37.906C121.224 36.6447 121.481 35.5373 121.994 34.584C122.507 33.6307 123.226 32.8973 124.15 32.384C125.074 31.8707 126.137 31.614 127.34 31.614C128.499 31.614 129.533 31.8633 130.442 32.362C131.366 32.8607 132.077 33.572 132.576 34.496C133.089 35.4053 133.346 36.454 133.346 37.642ZM130.156 36.762C130.141 35.97 129.855 35.3393 129.298 34.87C128.741 34.386 128.059 34.144 127.252 34.144C126.489 34.144 125.844 34.3787 125.316 34.848C124.803 35.3027 124.487 35.9407 124.37 36.762H130.156ZM140.258 44.198C139.261 44.198 138.366 44.022 137.574 43.67C136.782 43.3033 136.152 42.812 135.682 42.196C135.228 41.58 134.978 40.898 134.934 40.15H138.036C138.095 40.6193 138.322 41.008 138.718 41.316C139.129 41.624 139.635 41.778 140.236 41.778C140.823 41.778 141.278 41.6607 141.6 41.426C141.938 41.1913 142.106 40.8907 142.106 40.524C142.106 40.128 141.901 39.8347 141.49 39.644C141.094 39.4387 140.456 39.2187 139.576 38.984C138.667 38.764 137.919 38.5367 137.332 38.302C136.76 38.0673 136.262 37.708 135.836 37.224C135.426 36.74 135.22 36.0873 135.22 35.266C135.22 34.5913 135.411 33.9753 135.792 33.418C136.188 32.8607 136.746 32.4207 137.464 32.098C138.198 31.7753 139.056 31.614 140.038 31.614C141.49 31.614 142.649 31.9807 143.514 32.714C144.38 33.4327 144.856 34.408 144.944 35.64H141.996C141.952 35.156 141.747 34.7747 141.38 34.496C141.028 34.2027 140.552 34.056 139.95 34.056C139.393 34.056 138.96 34.1587 138.652 34.364C138.359 34.5693 138.212 34.8553 138.212 35.222C138.212 35.6327 138.418 35.948 138.828 36.168C139.239 36.3733 139.877 36.586 140.742 36.806C141.622 37.026 142.348 37.2533 142.92 37.488C143.492 37.7227 143.984 38.0893 144.394 38.588C144.82 39.072 145.04 39.7173 145.054 40.524C145.054 41.228 144.856 41.8587 144.46 42.416C144.079 42.9733 143.522 43.4133 142.788 43.736C142.07 44.044 141.226 44.198 140.258 44.198ZM146.79 37.906C146.79 36.6447 147.047 35.5447 147.56 34.606C148.074 33.6527 148.785 32.9193 149.694 32.406C150.604 31.878 151.645 31.614 152.818 31.614C154.329 31.614 155.576 31.9953 156.558 32.758C157.556 33.506 158.223 34.562 158.56 35.926H155.238C155.062 35.398 154.762 34.9873 154.336 34.694C153.926 34.386 153.412 34.232 152.796 34.232C151.916 34.232 151.22 34.5547 150.706 35.2C150.193 35.8307 149.936 36.7327 149.936 37.906C149.936 39.0647 150.193 39.9667 150.706 40.612C151.22 41.2427 151.916 41.558 152.796 41.558C154.043 41.558 154.857 41.0007 155.238 39.886H158.56C158.223 41.206 157.556 42.2547 156.558 43.032C155.561 43.8093 154.314 44.198 152.818 44.198C151.645 44.198 150.604 43.9413 149.694 43.428C148.785 42.9 148.074 42.1667 147.56 41.228C147.047 40.2747 146.79 39.1673 146.79 37.906ZM162.379 30.36C161.836 30.36 161.381 30.1913 161.015 29.854C160.663 29.502 160.487 29.0693 160.487 28.556C160.487 28.0427 160.663 27.6173 161.015 27.28C161.381 26.928 161.836 26.752 162.379 26.752C162.921 26.752 163.369 26.928 163.721 27.28C164.087 27.6173 164.271 28.0427 164.271 28.556C164.271 29.0693 164.087 29.502 163.721 29.854C163.369 30.1913 162.921 30.36 162.379 30.36ZM163.897 31.812V44H160.817V31.812H163.897Z" fill="white"/>
<path d="M29.704 62.848C30.92 62.848 31.9707 63.0773 32.856 63.536C33.752 63.984 34.4347 64.6293 34.904 65.472C35.384 66.3147 35.624 67.3067 35.624 68.448C35.624 69.5893 35.384 70.5813 34.904 71.424C34.4347 72.256 33.752 72.896 32.856 73.344C31.9707 73.7813 30.92 74 29.704 74H26.232V62.848H29.704ZM29.704 72.8C31.144 72.8 32.2427 72.4213 33 71.664C33.7573 70.896 34.136 69.824 34.136 68.448C34.136 67.0613 33.752 65.9787 32.984 65.2C32.2267 64.4213 31.1333 64.032 29.704 64.032H27.688V72.8H29.704ZM38.2965 63.808C38.0192 63.808 37.7845 63.712 37.5925 63.52C37.4005 63.328 37.3045 63.0933 37.3045 62.816C37.3045 62.5387 37.4005 62.304 37.5925 62.112C37.7845 61.92 38.0192 61.824 38.2965 61.824C38.5632 61.824 38.7872 61.92 38.9685 62.112C39.1605 62.304 39.2565 62.5387 39.2565 62.816C39.2565 63.0933 39.1605 63.328 38.9685 63.52C38.7872 63.712 38.5632 63.808 38.2965 63.808ZM39.0005 65.232V74H37.5445V65.232H39.0005ZM48.8516 74.144C48.1796 74.144 47.577 74.032 47.0436 73.808C46.5103 73.5733 46.089 73.2533 45.7796 72.848C45.4703 72.432 45.2996 71.9573 45.2676 71.424H46.7716C46.8143 71.8613 47.017 72.2187 47.3796 72.496C47.753 72.7733 48.2383 72.912 48.8356 72.912C49.3903 72.912 49.8276 72.7893 50.1476 72.544C50.4676 72.2987 50.6276 71.9893 50.6276 71.616C50.6276 71.232 50.457 70.9493 50.1156 70.768C49.7743 70.576 49.2463 70.3893 48.5316 70.208C47.881 70.0373 47.3476 69.8667 46.9316 69.696C46.5263 69.5147 46.1743 69.2533 45.8756 68.912C45.5876 68.56 45.4436 68.1013 45.4436 67.536C45.4436 67.088 45.577 66.6773 45.8436 66.304C46.1103 65.9307 46.489 65.6373 46.9796 65.424C47.4703 65.2 48.0303 65.088 48.6596 65.088C49.6303 65.088 50.4143 65.3333 51.0116 65.824C51.609 66.3147 51.929 66.9867 51.9716 67.84H50.5156C50.4836 67.3813 50.297 67.0133 49.9556 66.736C49.625 66.4587 49.177 66.32 48.6116 66.32C48.089 66.32 47.673 66.432 47.3636 66.656C47.0543 66.88 46.8996 67.1733 46.8996 67.536C46.8996 67.824 46.9903 68.064 47.1716 68.256C47.3636 68.4373 47.5983 68.5867 47.8756 68.704C48.1636 68.8107 48.5583 68.9333 49.0596 69.072C49.689 69.2427 50.201 69.4133 50.5956 69.584C50.9903 69.744 51.3263 69.9893 51.6036 70.32C51.8916 70.6507 52.041 71.0827 52.0516 71.616C52.0516 72.096 51.9183 72.528 51.6516 72.912C51.385 73.296 51.0063 73.6 50.5156 73.824C50.0356 74.0373 49.481 74.144 48.8516 74.144ZM57.931 74.144C57.1097 74.144 56.363 73.9573 55.691 73.584C55.0297 73.2107 54.507 72.6827 54.123 72C53.7497 71.3067 53.563 70.5067 53.563 69.6C53.563 68.704 53.755 67.9147 54.139 67.232C54.5337 66.5387 55.067 66.0107 55.739 65.648C56.411 65.2747 57.163 65.088 57.995 65.088C58.827 65.088 59.579 65.2747 60.251 65.648C60.923 66.0107 61.451 66.5333 61.835 67.216C62.2297 67.8987 62.427 68.6933 62.427 69.6C62.427 70.5067 62.2243 71.3067 61.819 72C61.4243 72.6827 60.8857 73.2107 60.203 73.584C59.5203 73.9573 58.763 74.144 57.931 74.144ZM57.931 72.864C58.4537 72.864 58.9443 72.7413 59.403 72.496C59.8617 72.2507 60.2297 71.8827 60.507 71.392C60.795 70.9013 60.939 70.304 60.939 69.6C60.939 68.896 60.8003 68.2987 60.523 67.808C60.2457 67.3173 59.883 66.9547 59.435 66.72C58.987 66.4747 58.5017 66.352 57.979 66.352C57.4457 66.352 56.955 66.4747 56.507 66.72C56.0697 66.9547 55.7177 67.3173 55.451 67.808C55.1843 68.2987 55.051 68.896 55.051 69.6C55.051 70.3147 55.179 70.9173 55.435 71.408C55.7017 71.8987 56.0537 72.2667 56.491 72.512C56.9283 72.7467 57.4083 72.864 57.931 72.864ZM65.7974 62.16V74H64.3414V62.16H65.7974ZM69.0309 63.808C68.7535 63.808 68.5189 63.712 68.3269 63.52C68.1349 63.328 68.0389 63.0933 68.0389 62.816C68.0389 62.5387 68.1349 62.304 68.3269 62.112C68.5189 61.92 68.7535 61.824 69.0309 61.824C69.2975 61.824 69.5215 61.92 69.7029 62.112C69.8949 62.304 69.9909 62.5387 69.9909 62.816C69.9909 63.0933 69.8949 63.328 69.7029 63.52C69.5215 63.712 69.2975 63.808 69.0309 63.808ZM69.7349 65.232V74H68.2789V65.232H69.7349ZM73.9924 66.432V71.6C73.9924 72.0267 74.083 72.3307 74.2644 72.512C74.4457 72.6827 74.7604 72.768 75.2084 72.768H76.2804V74H74.9684C74.1577 74 73.5497 73.8133 73.1444 73.44C72.739 73.0667 72.5364 72.4533 72.5364 71.6V66.432H71.4004V65.232H72.5364V63.024H73.9924V65.232H76.2804V66.432H73.9924ZM81.8685 74.144C81.0472 74.144 80.3005 73.9573 79.6285 73.584C78.9672 73.2107 78.4445 72.6827 78.0605 72C77.6872 71.3067 77.5005 70.5067 77.5005 69.6C77.5005 68.704 77.6925 67.9147 78.0765 67.232C78.4712 66.5387 79.0045 66.0107 79.6765 65.648C80.3485 65.2747 81.1005 65.088 81.9325 65.088C82.7645 65.088 83.5165 65.2747 84.1885 65.648C84.8605 66.0107 85.3885 66.5333 85.7725 67.216C86.1672 67.8987 86.3645 68.6933 86.3645 69.6C86.3645 70.5067 86.1618 71.3067 85.7565 72C85.3618 72.6827 84.8232 73.2107 84.1405 73.584C83.4578 73.9573 82.7005 74.144 81.8685 74.144ZM81.8685 72.864C82.3912 72.864 82.8818 72.7413 83.3405 72.496C83.7992 72.2507 84.1672 71.8827 84.4445 71.392C84.7325 70.9013 84.8765 70.304 84.8765 69.6C84.8765 68.896 84.7378 68.2987 84.4605 67.808C84.1832 67.3173 83.8205 66.9547 83.3725 66.72C82.9245 66.4747 82.4392 66.352 81.9165 66.352C81.3832 66.352 80.8925 66.4747 80.4445 66.72C80.0072 66.9547 79.6552 67.3173 79.3885 67.808C79.1218 68.2987 78.9885 68.896 78.9885 69.6C78.9885 70.3147 79.1165 70.9173 79.3725 71.408C79.6392 71.8987 79.9912 72.2667 80.4285 72.512C80.8658 72.7467 81.3458 72.864 81.8685 72.864ZM89.7829 71.984L87.9909 76.288H87.0149L88.1829 71.984H89.7829ZM95.1724 69.584C95.1724 68.688 95.3537 67.904 95.7164 67.232C96.079 66.5493 96.575 66.0213 97.2044 65.648C97.8444 65.2747 98.5537 65.088 99.3324 65.088C100.1 65.088 100.767 65.2533 101.332 65.584C101.898 65.9147 102.319 66.3307 102.596 66.832V65.232H104.068V74H102.596V72.368C102.308 72.88 101.876 73.3067 101.3 73.648C100.735 73.9787 100.074 74.144 99.3164 74.144C98.5377 74.144 97.8337 73.952 97.2044 73.568C96.575 73.184 96.079 72.6453 95.7164 71.952C95.3537 71.2587 95.1724 70.4693 95.1724 69.584ZM102.596 69.6C102.596 68.9387 102.463 68.3627 102.196 67.872C101.93 67.3813 101.567 67.008 101.108 66.752C100.66 66.4853 100.164 66.352 99.6204 66.352C99.0764 66.352 98.5804 66.48 98.1324 66.736C97.6844 66.992 97.327 67.3653 97.0604 67.856C96.7937 68.3467 96.6604 68.9227 96.6604 69.584C96.6604 70.256 96.7937 70.8427 97.0604 71.344C97.327 71.8347 97.6844 72.2133 98.1324 72.48C98.5804 72.736 99.0764 72.864 99.6204 72.864C100.164 72.864 100.66 72.736 101.108 72.48C101.567 72.2133 101.93 71.8347 102.196 71.344C102.463 70.8427 102.596 70.2613 102.596 69.6ZM107.985 66.848C108.273 66.3467 108.7 65.9307 109.265 65.6C109.841 65.2587 110.508 65.088 111.265 65.088C112.044 65.088 112.748 65.2747 113.377 65.648C114.017 66.0213 114.518 66.5493 114.881 67.232C115.244 67.904 115.425 68.688 115.425 69.584C115.425 70.4693 115.244 71.2587 114.881 71.952C114.518 72.6453 114.017 73.184 113.377 73.568C112.748 73.952 112.044 74.144 111.265 74.144C110.518 74.144 109.857 73.9787 109.281 73.648C108.716 73.3067 108.284 72.8853 107.985 72.384V78.16H106.529V65.232H107.985V66.848ZM113.937 69.584C113.937 68.9227 113.804 68.3467 113.537 67.856C113.27 67.3653 112.908 66.992 112.449 66.736C112.001 66.48 111.505 66.352 110.961 66.352C110.428 66.352 109.932 66.4853 109.473 66.752C109.025 67.008 108.662 67.3867 108.385 67.888C108.118 68.3787 107.985 68.9493 107.985 69.6C107.985 70.2613 108.118 70.8427 108.385 71.344C108.662 71.8347 109.025 72.2133 109.473 72.48C109.932 72.736 110.428 72.864 110.961 72.864C111.505 72.864 112.001 72.736 112.449 72.48C112.908 72.2133 113.27 71.8347 113.537 71.344C113.804 70.8427 113.937 70.256 113.937 69.584ZM118.797 66.848C119.085 66.3467 119.512 65.9307 120.077 65.6C120.653 65.2587 121.32 65.088 122.077 65.088C122.856 65.088 123.56 65.2747 124.189 65.648C124.829 66.0213 125.331 66.5493 125.693 67.232C126.056 67.904 126.237 68.688 126.237 69.584C126.237 70.4693 126.056 71.2587 125.693 71.952C125.331 72.6453 124.829 73.184 124.189 73.568C123.56 73.952 122.856 74.144 122.077 74.144C121.331 74.144 120.669 73.9787 120.093 73.648C119.528 73.3067 119.096 72.8853 118.797 72.384V78.16H117.341V65.232H118.797V66.848ZM124.749 69.584C124.749 68.9227 124.616 68.3467 124.349 67.856C124.083 67.3653 123.72 66.992 123.261 66.736C122.813 66.48 122.317 66.352 121.773 66.352C121.24 66.352 120.744 66.4853 120.285 66.752C119.837 67.008 119.475 67.3867 119.197 67.888C118.931 68.3787 118.797 68.9493 118.797 69.6C118.797 70.2613 118.931 70.8427 119.197 71.344C119.475 71.8347 119.837 72.2133 120.285 72.48C120.744 72.736 121.24 72.864 121.773 72.864C122.317 72.864 122.813 72.736 123.261 72.48C123.72 72.2133 124.083 71.8347 124.349 71.344C124.616 70.8427 124.749 70.256 124.749 69.584ZM136.154 69.28C136.154 69.5573 136.138 69.8507 136.106 70.16H129.098C129.151 71.024 129.445 71.7013 129.978 72.192C130.522 72.672 131.178 72.912 131.946 72.912C132.575 72.912 133.098 72.768 133.514 72.48C133.941 72.1813 134.239 71.7867 134.41 71.296H135.978C135.743 72.1387 135.274 72.8267 134.57 73.36C133.866 73.8827 132.991 74.144 131.946 74.144C131.114 74.144 130.367 73.9573 129.706 73.584C129.055 73.2107 128.543 72.6827 128.17 72C127.797 71.3067 127.61 70.5067 127.61 69.6C127.61 68.6933 127.791 67.8987 128.154 67.216C128.517 66.5333 129.023 66.0107 129.674 65.648C130.335 65.2747 131.093 65.088 131.946 65.088C132.778 65.088 133.514 65.2693 134.154 65.632C134.794 65.9947 135.285 66.496 135.626 67.136C135.978 67.7653 136.154 68.48 136.154 69.28ZM134.65 68.976C134.65 68.4213 134.527 67.9467 134.282 67.552C134.037 67.1467 133.701 66.8427 133.274 66.64C132.858 66.4267 132.394 66.32 131.882 66.32C131.146 66.32 130.517 66.5547 129.994 67.024C129.482 67.4933 129.189 68.144 129.114 68.976H134.65ZM142.348 65.072C143.414 65.072 144.278 65.3973 144.94 66.048C145.601 66.688 145.932 67.616 145.932 68.832V74H144.492V69.04C144.492 68.1653 144.273 67.4987 143.836 67.04C143.398 66.5707 142.801 66.336 142.044 66.336C141.276 66.336 140.662 66.576 140.204 67.056C139.756 67.536 139.532 68.2347 139.532 69.152V74H138.076V65.232H139.532V66.48C139.82 66.032 140.209 65.6853 140.7 65.44C141.201 65.1947 141.75 65.072 142.348 65.072ZM147.766 69.584C147.766 68.688 147.947 67.904 148.31 67.232C148.673 66.5493 149.169 66.0213 149.798 65.648C150.438 65.2747 151.147 65.088 151.926 65.088C152.694 65.088 153.361 65.2533 153.926 65.584C154.491 65.9147 154.913 66.3307 155.19 66.832V65.232H156.662V74H155.19V72.368C154.902 72.88 154.47 73.3067 153.894 73.648C153.329 73.9787 152.667 74.144 151.91 74.144C151.131 74.144 150.427 73.952 149.798 73.568C149.169 73.184 148.673 72.6453 148.31 71.952C147.947 71.2587 147.766 70.4693 147.766 69.584ZM155.19 69.6C155.19 68.9387 155.057 68.3627 154.79 67.872C154.523 67.3813 154.161 67.008 153.702 66.752C153.254 66.4853 152.758 66.352 152.214 66.352C151.67 66.352 151.174 66.48 150.726 66.736C150.278 66.992 149.921 67.3653 149.654 67.856C149.387 68.3467 149.254 68.9227 149.254 69.584C149.254 70.256 149.387 70.8427 149.654 71.344C149.921 71.8347 150.278 72.2133 150.726 72.48C151.174 72.736 151.67 72.864 152.214 72.864C152.758 72.864 153.254 72.736 153.702 72.48C154.161 72.2133 154.523 71.8347 154.79 71.344C155.057 70.8427 155.19 70.2613 155.19 69.6ZM162.844 69.6C162.844 68.6933 163.026 67.904 163.388 67.232C163.751 66.5493 164.252 66.0213 164.892 65.648C165.543 65.2747 166.284 65.088 167.116 65.088C168.194 65.088 169.079 65.3493 169.772 65.872C170.476 66.3947 170.94 67.12 171.164 68.048H169.596C169.447 67.5147 169.154 67.0933 168.716 66.784C168.29 66.4747 167.756 66.32 167.116 66.32C166.284 66.32 165.612 66.608 165.1 67.184C164.588 67.7493 164.332 68.5547 164.332 69.6C164.332 70.656 164.588 71.472 165.1 72.048C165.612 72.624 166.284 72.912 167.116 72.912C167.756 72.912 168.29 72.7627 168.716 72.464C169.143 72.1653 169.436 71.7387 169.596 71.184H171.164C170.93 72.08 170.46 72.8 169.756 73.344C169.052 73.8773 168.172 74.144 167.116 74.144C166.284 74.144 165.543 73.9573 164.892 73.584C164.252 73.2107 163.751 72.6827 163.388 72C163.026 71.3173 162.844 70.5173 162.844 69.6ZM177.459 65.072C178.12 65.072 178.718 65.216 179.251 65.504C179.784 65.7813 180.2 66.2027 180.499 66.768C180.808 67.3333 180.963 68.0213 180.963 68.832V74H179.523V69.04C179.523 68.1653 179.304 67.4987 178.867 67.04C178.43 66.5707 177.832 66.336 177.075 66.336C176.307 66.336 175.694 66.576 175.235 67.056C174.787 67.536 174.563 68.2347 174.563 69.152V74H173.107V62.16H174.563V66.48C174.851 66.032 175.246 65.6853 175.747 65.44C176.259 65.1947 176.83 65.072 177.459 65.072ZM184.093 63.808C183.816 63.808 183.581 63.712 183.389 63.52C183.197 63.328 183.101 63.0933 183.101 62.816C183.101 62.5387 183.197 62.304 183.389 62.112C183.581 61.92 183.816 61.824 184.093 61.824C184.36 61.824 184.584 61.92 184.765 62.112C184.957 62.304 185.053 62.5387 185.053 62.816C185.053 63.0933 184.957 63.328 184.765 63.52C184.584 63.712 184.36 63.808 184.093 63.808ZM184.797 65.232V74H183.341V65.232H184.797ZM195.055 65.232V74H193.599V72.704C193.322 73.152 192.932 73.504 192.431 73.76C191.94 74.0053 191.396 74.128 190.799 74.128C190.116 74.128 189.503 73.9893 188.959 73.712C188.415 73.424 187.983 72.9973 187.663 72.432C187.354 71.8667 187.199 71.1787 187.199 70.368V65.232H188.639V70.176C188.639 71.04 188.858 71.7067 189.295 72.176C189.732 72.6347 190.33 72.864 191.087 72.864C191.866 72.864 192.479 72.624 192.927 72.144C193.375 71.664 193.599 70.9653 193.599 70.048V65.232H195.055ZM196.969 69.584C196.969 68.688 197.151 67.904 197.513 67.232C197.876 66.5493 198.372 66.0213 199.001 65.648C199.641 65.2747 200.356 65.088 201.145 65.088C201.828 65.088 202.463 65.248 203.049 65.568C203.636 65.8773 204.084 66.288 204.393 66.8V62.16H205.865V74H204.393V72.352C204.105 72.8747 203.679 73.3067 203.113 73.648C202.548 73.9787 201.887 74.144 201.129 74.144C200.351 74.144 199.641 73.952 199.001 73.568C198.372 73.184 197.876 72.6453 197.513 71.952C197.151 71.2587 196.969 70.4693 196.969 69.584ZM204.393 69.6C204.393 68.9387 204.26 68.3627 203.993 67.872C203.727 67.3813 203.364 67.008 202.905 66.752C202.457 66.4853 201.961 66.352 201.417 66.352C200.873 66.352 200.377 66.48 199.929 66.736C199.481 66.992 199.124 67.3653 198.857 67.856C198.591 68.3467 198.457 68.9227 198.457 69.584C198.457 70.256 198.591 70.8427 198.857 71.344C199.124 71.8347 199.481 72.2133 199.929 72.48C200.377 72.736 200.873 72.864 201.417 72.864C201.961 72.864 202.457 72.736 202.905 72.48C203.364 72.2133 203.727 71.8347 203.993 71.344C204.26 70.8427 204.393 70.2613 204.393 69.6ZM209.078 63.808C208.8 63.808 208.566 63.712 208.374 63.52C208.182 63.328 208.086 63.0933 208.086 62.816C208.086 62.5387 208.182 62.304 208.374 62.112C208.566 61.92 208.8 61.824 209.078 61.824C209.344 61.824 209.568 61.92 209.75 62.112C209.942 62.304 210.038 62.5387 210.038 62.816C210.038 63.0933 209.942 63.328 209.75 63.52C209.568 63.712 209.344 63.808 209.078 63.808ZM209.782 65.232V74H208.326V65.232H209.782ZM217.985 62.16V74H216.529V62.16H217.985ZM219.922 69.584C219.922 68.688 220.104 67.904 220.466 67.232C220.829 66.5493 221.325 66.0213 221.954 65.648C222.594 65.2747 223.304 65.088 224.082 65.088C224.85 65.088 225.517 65.2533 226.082 65.584C226.648 65.9147 227.069 66.3307 227.346 66.832V65.232H228.818V74H227.346V72.368C227.058 72.88 226.626 73.3067 226.05 73.648C225.485 73.9787 224.824 74.144 224.066 74.144C223.288 74.144 222.584 73.952 221.954 73.568C221.325 73.184 220.829 72.6453 220.466 71.952C220.104 71.2587 219.922 70.4693 219.922 69.584ZM227.346 69.6C227.346 68.9387 227.213 68.3627 226.946 67.872C226.68 67.3813 226.317 67.008 225.858 66.752C225.41 66.4853 224.914 66.352 224.37 66.352C223.826 66.352 223.33 66.48 222.882 66.736C222.434 66.992 222.077 67.3653 221.81 67.856C221.544 68.3467 221.41 68.9227 221.41 69.584C221.41 70.256 221.544 70.8427 221.81 71.344C222.077 71.8347 222.434 72.2133 222.882 72.48C223.33 72.736 223.826 72.864 224.37 72.864C224.914 72.864 225.41 72.736 225.858 72.48C226.317 72.2133 226.68 71.8347 226.946 71.344C227.213 70.8427 227.346 70.2613 227.346 69.6ZM237.001 66.848C237.289 66.3467 237.715 65.9307 238.281 65.6C238.857 65.2587 239.523 65.088 240.281 65.088C241.059 65.088 241.763 65.2747 242.392 65.648C243.032 66.0213 243.534 66.5493 243.897 67.232C244.259 67.904 244.441 68.688 244.441 69.584C244.441 70.4693 244.259 71.2587 243.897 71.952C243.534 72.6453 243.032 73.184 242.392 73.568C241.763 73.952 241.059 74.144 240.281 74.144C239.534 74.144 238.873 73.9787 238.297 73.648C237.731 73.3067 237.299 72.8853 237.001 72.384V78.16H235.545V65.232H237.001V66.848ZM242.953 69.584C242.953 68.9227 242.819 68.3467 242.553 67.856C242.286 67.3653 241.923 66.992 241.465 66.736C241.017 66.48 240.521 66.352 239.977 66.352C239.443 66.352 238.947 66.4853 238.489 66.752C238.041 67.008 237.678 67.3867 237.401 67.888C237.134 68.3787 237.001 68.9493 237.001 69.6C237.001 70.2613 237.134 70.8427 237.401 71.344C237.678 71.8347 238.041 72.2133 238.489 72.48C238.947 72.736 239.443 72.864 239.977 72.864C240.521 72.864 241.017 72.736 241.465 72.48C241.923 72.2133 242.286 71.8347 242.553 71.344C242.819 70.8427 242.953 70.256 242.953 69.584ZM250.181 74.144C249.36 74.144 248.613 73.9573 247.941 73.584C247.28 73.2107 246.757 72.6827 246.373 72C246 71.3067 245.813 70.5067 245.813 69.6C245.813 68.704 246.005 67.9147 246.389 67.232C246.784 66.5387 247.317 66.0107 247.989 65.648C248.661 65.2747 249.413 65.088 250.245 65.088C251.077 65.088 251.829 65.2747 252.501 65.648C253.173 66.0107 253.701 66.5333 254.085 67.216C254.48 67.8987 254.677 68.6933 254.677 69.6C254.677 70.5067 254.474 71.3067 254.069 72C253.674 72.6827 253.136 73.2107 252.453 73.584C251.77 73.9573 251.013 74.144 250.181 74.144ZM250.181 72.864C250.704 72.864 251.194 72.7413 251.653 72.496C252.112 72.2507 252.48 71.8827 252.757 71.392C253.045 70.9013 253.189 70.304 253.189 69.6C253.189 68.896 253.05 68.2987 252.773 67.808C252.496 67.3173 252.133 66.9547 251.685 66.72C251.237 66.4747 250.752 66.352 250.229 66.352C249.696 66.352 249.205 66.4747 248.757 66.72C248.32 66.9547 247.968 67.3173 247.701 67.808C247.434 68.2987 247.301 68.896 247.301 69.6C247.301 70.3147 247.429 70.9173 247.685 71.408C247.952 71.8987 248.304 72.2667 248.741 72.512C249.178 72.7467 249.658 72.864 250.181 72.864ZM258.047 66.656C258.303 66.1547 258.666 65.7653 259.135 65.488C259.615 65.2107 260.197 65.072 260.879 65.072V66.576H260.495C258.863 66.576 258.047 67.4613 258.047 69.232V74H256.591V65.232H258.047V66.656ZM264.336 66.432V71.6C264.336 72.0267 264.427 72.3307 264.608 72.512C264.789 72.6827 265.104 72.768 265.552 72.768H266.624V74H265.312C264.501 74 263.893 73.8133 263.488 73.44C263.083 73.0667 262.88 72.4533 262.88 71.6V66.432H261.744V65.232H262.88V63.024H264.336V65.232H266.624V66.432H264.336ZM267.844 69.584C267.844 68.688 268.026 67.904 268.388 67.232C268.751 66.5493 269.247 66.0213 269.876 65.648C270.516 65.2747 271.226 65.088 272.004 65.088C272.772 65.088 273.439 65.2533 274.004 65.584C274.57 65.9147 274.991 66.3307 275.268 66.832V65.232H276.74V74H275.268V72.368C274.98 72.88 274.548 73.3067 273.972 73.648C273.407 73.9787 272.746 74.144 271.988 74.144C271.21 74.144 270.506 73.952 269.876 73.568C269.247 73.184 268.751 72.6453 268.388 71.952C268.026 71.2587 267.844 70.4693 267.844 69.584ZM275.268 69.6C275.268 68.9387 275.135 68.3627 274.868 67.872C274.602 67.3813 274.239 67.008 273.78 66.752C273.332 66.4853 272.836 66.352 272.292 66.352C271.748 66.352 271.252 66.48 270.804 66.736C270.356 66.992 269.999 67.3653 269.732 67.856C269.466 68.3467 269.332 68.9227 269.332 69.584C269.332 70.256 269.466 70.8427 269.732 71.344C269.999 71.8347 270.356 72.2133 270.804 72.48C271.252 72.736 271.748 72.864 272.292 72.864C272.836 72.864 273.332 72.736 273.78 72.48C274.239 72.2133 274.602 71.8347 274.868 71.344C275.135 70.8427 275.268 70.2613 275.268 69.6ZM280.705 71.984L278.913 76.288H277.937L279.105 71.984H280.705ZM29.336 98.144C28.664 98.144 28.0613 98.032 27.528 97.808C26.9947 97.5733 26.5733 97.2533 26.264 96.848C25.9547 96.432 25.784 95.9573 25.752 95.424H27.256C27.2987 95.8613 27.5013 96.2187 27.864 96.496C28.2373 96.7733 28.7227 96.912 29.32 96.912C29.8747 96.912 30.312 96.7893 30.632 96.544C30.952 96.2987 31.112 95.9893 31.112 95.616C31.112 95.232 30.9413 94.9493 30.6 94.768C30.2587 94.576 29.7307 94.3893 29.016 94.208C28.3653 94.0373 27.832 93.8667 27.416 93.696C27.0107 93.5147 26.6587 93.2533 26.36 92.912C26.072 92.56 25.928 92.1013 25.928 91.536C25.928 91.088 26.0613 90.6773 26.328 90.304C26.5947 89.9307 26.9733 89.6373 27.464 89.424C27.9547 89.2 28.5147 89.088 29.144 89.088C30.1147 89.088 30.8987 89.3333 31.496 89.824C32.0933 90.3147 32.4133 90.9867 32.456 91.84H31C30.968 91.3813 30.7813 91.0133 30.44 90.736C30.1093 90.4587 29.6613 90.32 29.096 90.32C28.5733 90.32 28.1573 90.432 27.848 90.656C27.5387 90.88 27.384 91.1733 27.384 91.536C27.384 91.824 27.4747 92.064 27.656 92.256C27.848 92.4373 28.0827 92.5867 28.36 92.704C28.648 92.8107 29.0427 92.9333 29.544 93.072C30.1733 93.2427 30.6853 93.4133 31.08 93.584C31.4747 93.744 31.8107 93.9893 32.088 94.32C32.376 94.6507 32.5253 95.0827 32.536 95.616C32.536 96.096 32.4027 96.528 32.136 96.912C31.8693 97.296 31.4907 97.6 31 97.824C30.52 98.0373 29.9653 98.144 29.336 98.144ZM36.0474 90.848C36.3354 90.3467 36.762 89.9307 37.3274 89.6C37.9034 89.2587 38.57 89.088 39.3274 89.088C40.106 89.088 40.81 89.2747 41.4394 89.648C42.0794 90.0213 42.5807 90.5493 42.9434 91.232C43.306 91.904 43.4874 92.688 43.4874 93.584C43.4874 94.4693 43.306 95.2587 42.9434 95.952C42.5807 96.6453 42.0794 97.184 41.4394 97.568C40.81 97.952 40.106 98.144 39.3274 98.144C38.5807 98.144 37.9194 97.9787 37.3434 97.648C36.778 97.3067 36.346 96.8853 36.0474 96.384V102.16H34.5914V89.232H36.0474V90.848ZM41.9994 93.584C41.9994 92.9227 41.866 92.3467 41.5994 91.856C41.3327 91.3653 40.97 90.992 40.5114 90.736C40.0634 90.48 39.5674 90.352 39.0234 90.352C38.49 90.352 37.994 90.4853 37.5354 90.752C37.0874 91.008 36.7247 91.3867 36.4474 91.888C36.1807 92.3787 36.0474 92.9493 36.0474 93.6C36.0474 94.2613 36.1807 94.8427 36.4474 95.344C36.7247 95.8347 37.0874 96.2133 37.5354 96.48C37.994 96.736 38.49 96.864 39.0234 96.864C39.5674 96.864 40.0634 96.736 40.5114 96.48C40.97 96.2133 41.3327 95.8347 41.5994 95.344C41.866 94.8427 41.9994 94.256 41.9994 93.584ZM53.4039 93.28C53.4039 93.5573 53.3879 93.8507 53.3559 94.16H46.3479C46.4012 95.024 46.6945 95.7013 47.2279 96.192C47.7719 96.672 48.4279 96.912 49.1959 96.912C49.8252 96.912 50.3479 96.768 50.7639 96.48C51.1905 96.1813 51.4892 95.7867 51.6599 95.296H53.2279C52.9932 96.1387 52.5239 96.8267 51.8199 97.36C51.1159 97.8827 50.2412 98.144 49.1959 98.144C48.3639 98.144 47.6172 97.9573 46.9559 97.584C46.3052 97.2107 45.7932 96.6827 45.4199 96C45.0465 95.3067 44.8599 94.5067 44.8599 93.6C44.8599 92.6933 45.0412 91.8987 45.4039 91.216C45.7665 90.5333 46.2732 90.0107 46.9239 89.648C47.5852 89.2747 48.3425 89.088 49.1959 89.088C50.0279 89.088 50.7639 89.2693 51.4039 89.632C52.0439 89.9947 52.5345 90.496 52.8759 91.136C53.2279 91.7653 53.4039 92.48 53.4039 93.28ZM51.8999 92.976C51.8999 92.4213 51.7772 91.9467 51.5319 91.552C51.2865 91.1467 50.9505 90.8427 50.5239 90.64C50.1079 90.4267 49.6439 90.32 49.1319 90.32C48.3959 90.32 47.7665 90.5547 47.2439 91.024C46.7319 91.4933 46.4385 92.144 46.3639 92.976H51.8999ZM58.9418 89.088C59.6991 89.088 60.3604 89.2533 60.9258 89.584C61.5018 89.9147 61.9284 90.3307 62.2058 90.832V89.232H63.6778V98.192C63.6778 98.992 63.5071 99.7013 63.1658 100.32C62.8244 100.949 62.3338 101.44 61.6938 101.792C61.0644 102.144 60.3284 102.32 59.4858 102.32C58.3338 102.32 57.3738 102.048 56.6058 101.504C55.8378 100.96 55.3844 100.219 55.2458 99.28H56.6858C56.8458 99.8133 57.1764 100.24 57.6778 100.56C58.1791 100.891 58.7818 101.056 59.4858 101.056C60.2858 101.056 60.9364 100.805 61.4378 100.304C61.9498 99.8027 62.2058 99.0987 62.2058 98.192V96.352C61.9178 96.864 61.4911 97.2907 60.9258 97.632C60.3604 97.9733 59.6991 98.144 58.9418 98.144C58.1631 98.144 57.4538 97.952 56.8138 97.568C56.1844 97.184 55.6884 96.6453 55.3258 95.952C54.9631 95.2587 54.7818 94.4693 54.7818 93.584C54.7818 92.688 54.9631 91.904 55.3258 91.232C55.6884 90.5493 56.1844 90.0213 56.8138 89.648C57.4538 89.2747 58.1631 89.088 58.9418 89.088ZM62.2058 93.6C62.2058 92.9387 62.0724 92.3627 61.8058 91.872C61.5391 91.3813 61.1764 91.008 60.7178 90.752C60.2698 90.4853 59.7738 90.352 59.2298 90.352C58.6858 90.352 58.1898 90.48 57.7418 90.736C57.2938 90.992 56.9364 91.3653 56.6698 91.856C56.4031 92.3467 56.2698 92.9227 56.2698 93.584C56.2698 94.256 56.4031 94.8427 56.6698 95.344C56.9364 95.8347 57.2938 96.2133 57.7418 96.48C58.1898 96.736 58.6858 96.864 59.2298 96.864C59.7738 96.864 60.2698 96.736 60.7178 96.48C61.1764 96.2133 61.5391 95.8347 61.8058 95.344C62.0724 94.8427 62.2058 94.2613 62.2058 93.6ZM70.4103 89.072C71.4769 89.072 72.3409 89.3973 73.0023 90.048C73.6636 90.688 73.9943 91.616 73.9943 92.832V98H72.5543V93.04C72.5543 92.1653 72.3356 91.4987 71.8983 91.04C71.4609 90.5707 70.8636 90.336 70.1063 90.336C69.3383 90.336 68.7249 90.576 68.2663 91.056C67.8183 91.536 67.5943 92.2347 67.5943 93.152V98H66.1383V89.232H67.5943V90.48C67.8823 90.032 68.2716 89.6853 68.7623 89.44C69.2636 89.1947 69.8129 89.072 70.4103 89.072ZM77.1246 87.808C76.8473 87.808 76.6126 87.712 76.4206 87.52C76.2286 87.328 76.1326 87.0933 76.1326 86.816C76.1326 86.5387 76.2286 86.304 76.4206 86.112C76.6126 85.92 76.8473 85.824 77.1246 85.824C77.3913 85.824 77.6153 85.92 77.7966 86.112C77.9886 86.304 78.0846 86.5387 78.0846 86.816C78.0846 87.0933 77.9886 87.328 77.7966 87.52C77.6153 87.712 77.3913 87.808 77.1246 87.808ZM77.8286 89.232V98H76.3726V89.232H77.8286ZM86.3518 90.432V95.6C86.3518 96.0267 86.4424 96.3307 86.6238 96.512C86.8051 96.6827 87.1198 96.768 87.5677 96.768H88.6398V98H87.3278C86.5171 98 85.9091 97.8133 85.5038 97.44C85.0984 97.0667 84.8958 96.4533 84.8958 95.6V90.432H83.7598V89.232H84.8958V87.024H86.3518V89.232H88.6398V90.432H86.3518ZM98.1799 89.232V98H96.7239V96.704C96.4465 97.152 96.0572 97.504 95.5559 97.76C95.0652 98.0053 94.5212 98.128 93.9239 98.128C93.2412 98.128 92.6279 97.9893 92.0839 97.712C91.5399 97.424 91.1079 96.9973 90.7879 96.432C90.4785 95.8667 90.3239 95.1787 90.3239 94.368V89.232H91.7639V94.176C91.7639 95.04 91.9825 95.7067 92.4199 96.176C92.8572 96.6347 93.4545 96.864 94.2119 96.864C94.9905 96.864 95.6039 96.624 96.0519 96.144C96.4999 95.664 96.7239 94.9653 96.7239 94.048V89.232H98.1799ZM102.414 90.432V95.6C102.414 96.0267 102.505 96.3307 102.686 96.512C102.868 96.6827 103.182 96.768 103.63 96.768H104.702V98H103.39C102.58 98 101.972 97.8133 101.566 97.44C101.161 97.0667 100.958 96.4533 100.958 95.6V90.432H99.8223V89.232H100.958V87.024H102.414V89.232H104.702V90.432H102.414ZM108.242 90.432V95.6C108.242 96.0267 108.333 96.3307 108.514 96.512C108.696 96.6827 109.01 96.768 109.458 96.768H110.53V98H109.218C108.408 98 107.8 97.8133 107.394 97.44C106.989 97.0667 106.786 96.4533 106.786 95.6V90.432H105.65V89.232H106.786V87.024H108.242V89.232H110.53V90.432H108.242ZM116.119 98.144C115.297 98.144 114.551 97.9573 113.879 97.584C113.217 97.2107 112.695 96.6827 112.311 96C111.937 95.3067 111.751 94.5067 111.751 93.6C111.751 92.704 111.943 91.9147 112.327 91.232C112.721 90.5387 113.255 90.0107 113.927 89.648C114.599 89.2747 115.351 89.088 116.183 89.088C117.015 89.088 117.767 89.2747 118.439 89.648C119.111 90.0107 119.639 90.5333 120.023 91.216C120.417 91.8987 120.615 92.6933 120.615 93.6C120.615 94.5067 120.412 95.3067 120.007 96C119.612 96.6827 119.073 97.2107 118.391 97.584C117.708 97.9573 116.951 98.144 116.119 98.144ZM116.119 96.864C116.641 96.864 117.132 96.7413 117.591 96.496C118.049 96.2507 118.417 95.8827 118.695 95.392C118.983 94.9013 119.127 94.304 119.127 93.6C119.127 92.896 118.988 92.2987 118.711 91.808C118.433 91.3173 118.071 90.9547 117.623 90.72C117.175 90.4747 116.689 90.352 116.167 90.352C115.633 90.352 115.143 90.4747 114.695 90.72C114.257 90.9547 113.905 91.3173 113.639 91.808C113.372 92.2987 113.239 92.896 113.239 93.6C113.239 94.3147 113.367 94.9173 113.623 95.408C113.889 95.8987 114.241 96.2667 114.679 96.512C115.116 96.7467 115.596 96.864 116.119 96.864ZM128.571 90.432V95.6C128.571 96.0267 128.661 96.3307 128.843 96.512C129.024 96.6827 129.339 96.768 129.786 96.768H130.859V98H129.547C128.736 98 128.128 97.8133 127.723 97.44C127.317 97.0667 127.115 96.4533 127.115 95.6V90.432H125.979V89.232H127.115V87.024H128.571V89.232H130.859V90.432H128.571ZM134.079 90.656C134.335 90.1547 134.697 89.7653 135.167 89.488C135.647 89.2107 136.228 89.072 136.911 89.072V90.576H136.527C134.895 90.576 134.079 91.4613 134.079 93.232V98H132.623V89.232H134.079V90.656ZM138.047 93.584C138.047 92.688 138.229 91.904 138.591 91.232C138.954 90.5493 139.45 90.0213 140.079 89.648C140.719 89.2747 141.429 89.088 142.207 89.088C142.975 89.088 143.642 89.2533 144.207 89.584C144.773 89.9147 145.194 90.3307 145.471 90.832V89.232H146.943V98H145.471V96.368C145.183 96.88 144.751 97.3067 144.175 97.648C143.61 97.9787 142.949 98.144 142.191 98.144C141.413 98.144 140.709 97.952 140.079 97.568C139.45 97.184 138.954 96.6453 138.591 95.952C138.229 95.2587 138.047 94.4693 138.047 93.584ZM145.471 93.6C145.471 92.9387 145.338 92.3627 145.071 91.872C144.805 91.3813 144.442 91.008 143.983 90.752C143.535 90.4853 143.039 90.352 142.495 90.352C141.951 90.352 141.455 90.48 141.007 90.736C140.559 90.992 140.202 91.3653 139.935 91.856C139.669 92.3467 139.535 92.9227 139.535 93.584C139.535 94.256 139.669 94.8427 139.935 95.344C140.202 95.8347 140.559 96.2133 141.007 96.48C141.455 96.736 141.951 96.864 142.495 96.864C143.039 96.864 143.535 96.736 143.983 96.48C144.442 96.2133 144.805 95.8347 145.071 95.344C145.338 94.8427 145.471 94.2613 145.471 93.6ZM153.676 89.072C154.743 89.072 155.607 89.3973 156.268 90.048C156.929 90.688 157.26 91.616 157.26 92.832V98H155.82V93.04C155.82 92.1653 155.601 91.4987 155.164 91.04C154.727 90.5707 154.129 90.336 153.372 90.336C152.604 90.336 151.991 90.576 151.532 91.056C151.084 91.536 150.86 92.2347 150.86 93.152V98H149.404V89.232H150.86V90.48C151.148 90.032 151.537 89.6853 152.028 89.44C152.529 89.1947 153.079 89.072 153.676 89.072ZM163.91 89.072C164.977 89.072 165.841 89.3973 166.502 90.048C167.164 90.688 167.494 91.616 167.494 92.832V98H166.054V93.04C166.054 92.1653 165.836 91.4987 165.398 91.04C164.961 90.5707 164.364 90.336 163.606 90.336C162.838 90.336 162.225 90.576 161.766 91.056C161.318 91.536 161.094 92.2347 161.094 93.152V98H159.638V89.232H161.094V90.48C161.382 90.032 161.772 89.6853 162.262 89.44C162.764 89.1947 163.313 89.072 163.91 89.072ZM177.873 93.28C177.873 93.5573 177.857 93.8507 177.825 94.16H170.817C170.87 95.024 171.163 95.7013 171.697 96.192C172.241 96.672 172.897 96.912 173.665 96.912C174.294 96.912 174.817 96.768 175.233 96.48C175.659 96.1813 175.958 95.7867 176.129 95.296H177.697C177.462 96.1387 176.993 96.8267 176.289 97.36C175.585 97.8827 174.71 98.144 173.665 98.144C172.833 98.144 172.086 97.9573 171.425 97.584C170.774 97.2107 170.262 96.6827 169.889 96C169.515 95.3067 169.329 94.5067 169.329 93.6C169.329 92.6933 169.51 91.8987 169.873 91.216C170.235 90.5333 170.742 90.0107 171.393 89.648C172.054 89.2747 172.811 89.088 173.665 89.088C174.497 89.088 175.233 89.2693 175.873 89.632C176.513 89.9947 177.003 90.496 177.345 91.136C177.697 91.7653 177.873 92.48 177.873 93.28ZM176.369 92.976C176.369 92.4213 176.246 91.9467 176.001 91.552C175.755 91.1467 175.419 90.8427 174.993 90.64C174.577 90.4267 174.113 90.32 173.601 90.32C172.865 90.32 172.235 90.5547 171.713 91.024C171.201 91.4933 170.907 92.144 170.833 92.976H176.369ZM184.812 87.808C184.535 87.808 184.3 87.712 184.108 87.52C183.916 87.328 183.82 87.0933 183.82 86.816C183.82 86.5387 183.916 86.304 184.108 86.112C184.3 85.92 184.535 85.824 184.812 85.824C185.079 85.824 185.303 85.92 185.484 86.112C185.676 86.304 185.772 86.5387 185.772 86.816C185.772 87.0933 185.676 87.328 185.484 87.52C185.303 87.712 185.079 87.808 184.812 87.808ZM185.516 89.232V98H184.06V89.232H185.516ZM189.454 86.16V98H187.998V86.16H189.454ZM199.769 90.432H197.929V98H196.473V90.432H195.337V89.232H196.473V88.608C196.473 87.6267 196.723 86.912 197.225 86.464C197.737 86.0053 198.553 85.776 199.673 85.776V86.992C199.033 86.992 198.579 87.12 198.313 87.376C198.057 87.6213 197.929 88.032 197.929 88.608V89.232H199.769V90.432ZM202.922 90.656C203.178 90.1547 203.541 89.7653 204.01 89.488C204.49 89.2107 205.072 89.072 205.754 89.072V90.576H205.37C203.738 90.576 202.922 91.4613 202.922 93.232V98H201.466V89.232H202.922V90.656ZM208.187 87.808C207.91 87.808 207.675 87.712 207.483 87.52C207.291 87.328 207.195 87.0933 207.195 86.816C207.195 86.5387 207.291 86.304 207.483 86.112C207.675 85.92 207.91 85.824 208.187 85.824C208.454 85.824 208.678 85.92 208.859 86.112C209.051 86.304 209.147 86.5387 209.147 86.816C209.147 87.0933 209.051 87.328 208.859 87.52C208.678 87.712 208.454 87.808 208.187 87.808ZM208.891 89.232V98H207.435V89.232H208.891ZM214.989 89.088C215.746 89.088 216.407 89.2533 216.973 89.584C217.549 89.9147 217.975 90.3307 218.253 90.832V89.232H219.725V98.192C219.725 98.992 219.554 99.7013 219.213 100.32C218.871 100.949 218.381 101.44 217.741 101.792C217.111 102.144 216.375 102.32 215.533 102.32C214.381 102.32 213.421 102.048 212.653 101.504C211.885 100.96 211.431 100.219 211.293 99.28H212.733C212.893 99.8133 213.223 100.24 213.725 100.56C214.226 100.891 214.829 101.056 215.533 101.056C216.333 101.056 216.983 100.805 217.485 100.304C217.997 99.8027 218.253 99.0987 218.253 98.192V96.352C217.965 96.864 217.538 97.2907 216.973 97.632C216.407 97.9733 215.746 98.144 214.989 98.144C214.21 98.144 213.501 97.952 212.861 97.568C212.231 97.184 211.735 96.6453 211.373 95.952C211.01 95.2587 210.829 94.4693 210.829 93.584C210.829 92.688 211.01 91.904 211.373 91.232C211.735 90.5493 212.231 90.0213 212.861 89.648C213.501 89.2747 214.21 89.088 214.989 89.088ZM218.253 93.6C218.253 92.9387 218.119 92.3627 217.853 91.872C217.586 91.3813 217.223 91.008 216.765 90.752C216.317 90.4853 215.821 90.352 215.277 90.352C214.733 90.352 214.237 90.48 213.789 90.736C213.341 90.992 212.983 91.3653 212.717 91.856C212.45 92.3467 212.317 92.9227 212.317 93.584C212.317 94.256 212.45 94.8427 212.717 95.344C212.983 95.8347 213.341 96.2133 213.789 96.48C214.237 96.736 214.733 96.864 215.277 96.864C215.821 96.864 216.317 96.736 216.765 96.48C217.223 96.2133 217.586 95.8347 217.853 95.344C218.119 94.8427 218.253 94.2613 218.253 93.6ZM226.009 98.144C225.188 98.144 224.441 97.9573 223.769 97.584C223.108 97.2107 222.585 96.6827 222.201 96C221.828 95.3067 221.641 94.5067 221.641 93.6C221.641 92.704 221.833 91.9147 222.217 91.232C222.612 90.5387 223.145 90.0107 223.817 89.648C224.489 89.2747 225.241 89.088 226.073 89.088C226.905 89.088 227.657 89.2747 228.329 89.648C229.001 90.0107 229.529 90.5333 229.913 91.216C230.308 91.8987 230.505 92.6933 230.505 93.6C230.505 94.5067 230.302 95.3067 229.897 96C229.502 96.6827 228.964 97.2107 228.281 97.584C227.598 97.9573 226.841 98.144 226.009 98.144ZM226.009 96.864C226.532 96.864 227.022 96.7413 227.481 96.496C227.94 96.2507 228.308 95.8827 228.585 95.392C228.873 94.9013 229.017 94.304 229.017 93.6C229.017 92.896 228.878 92.2987 228.601 91.808C228.324 91.3173 227.961 90.9547 227.513 90.72C227.065 90.4747 226.58 90.352 226.057 90.352C225.524 90.352 225.033 90.4747 224.585 90.72C224.148 90.9547 223.796 91.3173 223.529 91.808C223.262 92.2987 223.129 92.896 223.129 93.6C223.129 94.3147 223.257 94.9173 223.513 95.408C223.78 95.8987 224.132 96.2667 224.569 96.512C225.006 96.7467 225.486 96.864 226.009 96.864ZM232.884 98.096C232.606 98.096 232.372 98 232.18 97.808C231.988 97.616 231.892 97.3813 231.892 97.104C231.892 96.8267 231.988 96.592 232.18 96.4C232.372 96.208 232.606 96.112 232.884 96.112C233.15 96.112 233.374 96.208 233.556 96.4C233.748 96.592 233.844 96.8267 233.844 97.104C233.844 97.3813 233.748 97.616 233.556 97.808C233.374 98 233.15 98.096 232.884 98.096Z" fill="white"/>
<path d="M33.946 135.606H28.942L28.114 138H25.468L29.986 125.418H32.92L37.438 138H34.774L33.946 135.606ZM33.262 133.59L31.444 128.334L29.626 133.59H33.262ZM41.6468 129.468C41.9708 129.012 42.4148 128.634 42.9788 128.334C43.5548 128.022 44.2088 127.866 44.9408 127.866C45.7928 127.866 46.5608 128.076 47.2448 128.496C47.9408 128.916 48.4868 129.516 48.8828 130.296C49.2908 131.064 49.4948 131.958 49.4948 132.978C49.4948 133.998 49.2908 134.904 48.8828 135.696C48.4868 136.476 47.9408 137.082 47.2448 137.514C46.5608 137.946 45.7928 138.162 44.9408 138.162C44.2088 138.162 43.5608 138.012 42.9968 137.712C42.4448 137.412 41.9948 137.034 41.6468 136.578V142.752H39.1268V128.028H41.6468V129.468ZM46.9208 132.978C46.9208 132.378 46.7948 131.862 46.5428 131.43C46.3028 130.986 45.9788 130.65 45.5708 130.422C45.1748 130.194 44.7428 130.08 44.2748 130.08C43.8188 130.08 43.3868 130.2 42.9788 130.44C42.5828 130.668 42.2588 131.004 42.0068 131.448C41.7668 131.892 41.6468 132.414 41.6468 133.014C41.6468 133.614 41.7668 134.136 42.0068 134.58C42.2588 135.024 42.5828 135.366 42.9788 135.606C43.3868 135.834 43.8188 135.948 44.2748 135.948C44.7428 135.948 45.1748 135.828 45.5708 135.588C45.9788 135.348 46.3028 135.006 46.5428 134.562C46.7948 134.118 46.9208 133.59 46.9208 132.978ZM53.846 129.468C54.17 129.012 54.614 128.634 55.178 128.334C55.754 128.022 56.408 127.866 57.14 127.866C57.992 127.866 58.76 128.076 59.444 128.496C60.14 128.916 60.686 129.516 61.082 130.296C61.49 131.064 61.694 131.958 61.694 132.978C61.694 133.998 61.49 134.904 61.082 135.696C60.686 136.476 60.14 137.082 59.444 137.514C58.76 137.946 57.992 138.162 57.14 138.162C56.408 138.162 55.76 138.012 55.196 137.712C54.644 137.412 54.194 137.034 53.846 136.578V142.752H51.326V128.028H53.846V129.468ZM59.12 132.978C59.12 132.378 58.994 131.862 58.742 131.43C58.502 130.986 58.178 130.65 57.77 130.422C57.374 130.194 56.942 130.08 56.474 130.08C56.018 130.08 55.586 130.2 55.178 130.44C54.782 130.668 54.458 131.004 54.206 131.448C53.966 131.892 53.846 132.414 53.846 133.014C53.846 133.614 53.966 134.136 54.206 134.58C54.458 135.024 54.782 135.366 55.178 135.606C55.586 135.834 56.018 135.948 56.474 135.948C56.942 135.948 57.374 135.828 57.77 135.588C58.178 135.348 58.502 135.006 58.742 134.562C58.994 134.118 59.12 133.59 59.12 132.978ZM72.7952 132.798C72.7952 133.158 72.7712 133.482 72.7232 133.77H65.4332C65.4932 134.49 65.7452 135.054 66.1892 135.462C66.6332 135.87 67.1792 136.074 67.8272 136.074C68.7632 136.074 69.4292 135.672 69.8252 134.868H72.5432C72.2552 135.828 71.7032 136.62 70.8872 137.244C70.0712 137.856 69.0692 138.162 67.8812 138.162C66.9212 138.162 66.0572 137.952 65.2892 137.532C64.5332 137.1 63.9392 136.494 63.5072 135.714C63.0872 134.934 62.8772 134.034 62.8772 133.014C62.8772 131.982 63.0872 131.076 63.5072 130.296C63.9272 129.516 64.5152 128.916 65.2712 128.496C66.0272 128.076 66.8972 127.866 67.8812 127.866C68.8292 127.866 69.6752 128.07 70.4192 128.478C71.1752 128.886 71.7572 129.468 72.1652 130.224C72.5852 130.968 72.7952 131.826 72.7952 132.798ZM70.1852 132.078C70.1732 131.43 69.9392 130.914 69.4832 130.53C69.0272 130.134 68.4692 129.936 67.8092 129.936C67.1852 129.936 66.6572 130.128 66.2252 130.512C65.8052 130.884 65.5472 131.406 65.4512 132.078H70.1852ZM80.1606 127.884C81.3486 127.884 82.3086 128.262 83.0406 129.018C83.7726 129.762 84.1386 130.806 84.1386 132.15V138H81.6186V132.492C81.6186 131.7 81.4206 131.094 81.0246 130.674C80.6286 130.242 80.0886 130.026 79.4046 130.026C78.7086 130.026 78.1566 130.242 77.7486 130.674C77.3526 131.094 77.1546 131.7 77.1546 132.492V138H74.6346V128.028H77.1546V129.27C77.4906 128.838 77.9166 128.502 78.4326 128.262C78.9606 128.01 79.5366 127.884 80.1606 127.884ZM85.887 132.978C85.887 131.97 86.085 131.076 86.481 130.296C86.889 129.516 87.435 128.916 88.119 128.496C88.815 128.076 89.589 127.866 90.441 127.866C91.185 127.866 91.833 128.016 92.385 128.316C92.949 128.616 93.399 128.994 93.735 129.45V128.028H96.273V138H93.735V136.542C93.411 137.01 92.961 137.4 92.385 137.712C91.821 138.012 91.167 138.162 90.423 138.162C89.583 138.162 88.815 137.946 88.119 137.514C87.435 137.082 86.889 136.476 86.481 135.696C86.085 134.904 85.887 133.998 85.887 132.978ZM93.735 133.014C93.735 132.402 93.615 131.88 93.375 131.448C93.135 131.004 92.811 130.668 92.403 130.44C91.995 130.2 91.557 130.08 91.089 130.08C90.621 130.08 90.189 130.194 89.793 130.422C89.397 130.65 89.073 130.986 88.821 131.43C88.581 131.862 88.461 132.378 88.461 132.978C88.461 133.578 88.581 134.106 88.821 134.562C89.073 135.006 89.397 135.348 89.793 135.588C90.201 135.828 90.633 135.948 91.089 135.948C91.557 135.948 91.995 135.834 92.403 135.606C92.811 135.366 93.135 135.03 93.375 134.598C93.615 134.154 93.735 133.626 93.735 133.014ZM112.293 132.798C112.293 133.158 112.269 133.482 112.221 133.77H104.931C104.991 134.49 105.243 135.054 105.687 135.462C106.131 135.87 106.677 136.074 107.325 136.074C108.261 136.074 108.927 135.672 109.323 134.868H112.041C111.753 135.828 111.201 136.62 110.385 137.244C109.569 137.856 108.567 138.162 107.379 138.162C106.419 138.162 105.555 137.952 104.787 137.532C104.031 137.1 103.437 136.494 103.005 135.714C102.585 134.934 102.375 134.034 102.375 133.014C102.375 131.982 102.585 131.076 103.005 130.296C103.425 129.516 104.013 128.916 104.769 128.496C105.525 128.076 106.395 127.866 107.379 127.866C108.327 127.866 109.173 128.07 109.917 128.478C110.673 128.886 111.255 129.468 111.663 130.224C112.083 130.968 112.293 131.826 112.293 132.798ZM109.683 132.078C109.671 131.43 109.437 130.914 108.981 130.53C108.525 130.134 107.967 129.936 107.307 129.936C106.683 129.936 106.155 130.128 105.723 130.512C105.303 130.884 105.045 131.406 104.949 132.078H109.683ZM117.949 138.162C117.133 138.162 116.401 138.018 115.753 137.73C115.105 137.43 114.589 137.028 114.205 136.524C113.833 136.02 113.629 135.462 113.593 134.85H116.131C116.179 135.234 116.365 135.552 116.689 135.804C117.025 136.056 117.439 136.182 117.931 136.182C118.411 136.182 118.783 136.086 119.047 135.894C119.323 135.702 119.461 135.456 119.461 135.156C119.461 134.832 119.293 134.592 118.957 134.436C118.633 134.268 118.111 134.088 117.391 133.896C116.647 133.716 116.035 133.53 115.555 133.338C115.087 133.146 114.679 132.852 114.331 132.456C113.995 132.06 113.827 131.526 113.827 130.854C113.827 130.302 113.983 129.798 114.295 129.342C114.619 128.886 115.075 128.526 115.663 128.262C116.263 127.998 116.965 127.866 117.769 127.866C118.957 127.866 119.905 128.166 120.613 128.766C121.321 129.354 121.711 130.152 121.783 131.16H119.371C119.335 130.764 119.167 130.452 118.867 130.224C118.579 129.984 118.189 129.864 117.697 129.864C117.241 129.864 116.887 129.948 116.635 130.116C116.395 130.284 116.275 130.518 116.275 130.818C116.275 131.154 116.443 131.412 116.779 131.592C117.115 131.76 117.637 131.934 118.345 132.114C119.065 132.294 119.659 132.48 120.127 132.672C120.595 132.864 120.997 133.164 121.333 133.572C121.681 133.968 121.861 134.496 121.873 135.156C121.873 135.732 121.711 136.248 121.387 136.704C121.075 137.16 120.619 137.52 120.019 137.784C119.431 138.036 118.741 138.162 117.949 138.162ZM123.293 133.014C123.293 131.982 123.503 131.082 123.923 130.314C124.343 129.534 124.925 128.934 125.669 128.514C126.413 128.082 127.265 127.866 128.225 127.866C129.461 127.866 130.481 128.178 131.285 128.802C132.101 129.414 132.647 130.278 132.923 131.394H130.205C130.061 130.962 129.815 130.626 129.467 130.386C129.131 130.134 128.711 130.008 128.207 130.008C127.487 130.008 126.917 130.272 126.497 130.8C126.077 131.316 125.867 132.054 125.867 133.014C125.867 133.962 126.077 134.7 126.497 135.228C126.917 135.744 127.487 136.002 128.207 136.002C129.227 136.002 129.893 135.546 130.205 134.634H132.923C132.647 135.714 132.101 136.572 131.285 137.208C130.469 137.844 129.449 138.162 128.225 138.162C127.265 138.162 126.413 137.952 125.669 137.532C124.925 137.1 124.343 136.5 123.923 135.732C123.503 134.952 123.293 134.046 123.293 133.014ZM136.047 126.84C135.603 126.84 135.231 126.702 134.931 126.426C134.643 126.138 134.499 125.784 134.499 125.364C134.499 124.944 134.643 124.596 134.931 124.32C135.231 124.032 135.603 123.888 136.047 123.888C136.491 123.888 136.857 124.032 137.145 124.32C137.445 124.596 137.595 124.944 137.595 125.364C137.595 125.784 137.445 126.138 137.145 126.426C136.857 126.702 136.491 126.84 136.047 126.84ZM137.289 128.028V138H134.769V128.028H137.289ZM142.533 135.354L140.427 140.412H138.807L139.977 135.354H142.533ZM152.454 138.162C151.638 138.162 150.906 138.018 150.258 137.73C149.61 137.43 149.094 137.028 148.71 136.524C148.338 136.02 148.134 135.462 148.098 134.85H150.636C150.684 135.234 150.87 135.552 151.194 135.804C151.53 136.056 151.944 136.182 152.436 136.182C152.916 136.182 153.288 136.086 153.552 135.894C153.828 135.702 153.966 135.456 153.966 135.156C153.966 134.832 153.798 134.592 153.462 134.436C153.138 134.268 152.616 134.088 151.896 133.896C151.152 133.716 150.54 133.53 150.06 133.338C149.592 133.146 149.184 132.852 148.836 132.456C148.5 132.06 148.332 131.526 148.332 130.854C148.332 130.302 148.488 129.798 148.8 129.342C149.124 128.886 149.58 128.526 150.168 128.262C150.768 127.998 151.47 127.866 152.274 127.866C153.462 127.866 154.41 128.166 155.118 128.766C155.826 129.354 156.216 130.152 156.288 131.16H153.876C153.84 130.764 153.672 130.452 153.372 130.224C153.084 129.984 152.694 129.864 152.202 129.864C151.746 129.864 151.392 129.948 151.14 130.116C150.9 130.284 150.78 130.518 150.78 130.818C150.78 131.154 150.948 131.412 151.284 131.592C151.62 131.76 152.142 131.934 152.85 132.114C153.57 132.294 154.164 132.48 154.632 132.672C155.1 132.864 155.502 133.164 155.838 133.572C156.186 133.968 156.366 134.496 156.378 135.156C156.378 135.732 156.216 136.248 155.892 136.704C155.58 137.16 155.124 137.52 154.524 137.784C153.936 138.036 153.246 138.162 152.454 138.162ZM160.967 129.468C161.291 129.012 161.735 128.634 162.299 128.334C162.875 128.022 163.529 127.866 164.261 127.866C165.113 127.866 165.881 128.076 166.565 128.496C167.261 128.916 167.807 129.516 168.203 130.296C168.611 131.064 168.815 131.958 168.815 132.978C168.815 133.998 168.611 134.904 168.203 135.696C167.807 136.476 167.261 137.082 166.565 137.514C165.881 137.946 165.113 138.162 164.261 138.162C163.529 138.162 162.881 138.012 162.317 137.712C161.765 137.412 161.315 137.034 160.967 136.578V142.752H158.447V128.028H160.967V129.468ZM166.241 132.978C166.241 132.378 166.115 131.862 165.863 131.43C165.623 130.986 165.299 130.65 164.891 130.422C164.495 130.194 164.063 130.08 163.595 130.08C163.139 130.08 162.707 130.2 162.299 130.44C161.903 130.668 161.579 131.004 161.327 131.448C161.087 131.892 160.967 132.414 160.967 133.014C160.967 133.614 161.087 134.136 161.327 134.58C161.579 135.024 161.903 135.366 162.299 135.606C162.707 135.834 163.139 135.948 163.595 135.948C164.063 135.948 164.495 135.828 164.891 135.588C165.299 135.348 165.623 135.006 165.863 134.562C166.115 134.118 166.241 133.59 166.241 132.978ZM179.916 132.798C179.916 133.158 179.892 133.482 179.844 133.77H172.554C172.614 134.49 172.866 135.054 173.31 135.462C173.754 135.87 174.3 136.074 174.948 136.074C175.884 136.074 176.55 135.672 176.946 134.868H179.664C179.376 135.828 178.824 136.62 178.008 137.244C177.192 137.856 176.19 138.162 175.002 138.162C174.042 138.162 173.178 137.952 172.41 137.532C171.654 137.1 171.06 136.494 170.628 135.714C170.208 134.934 169.998 134.034 169.998 133.014C169.998 131.982 170.208 131.076 170.628 130.296C171.048 129.516 171.636 128.916 172.392 128.496C173.148 128.076 174.018 127.866 175.002 127.866C175.95 127.866 176.796 128.07 177.54 128.478C178.296 128.886 178.878 129.468 179.286 130.224C179.706 130.968 179.916 131.826 179.916 132.798ZM177.306 132.078C177.294 131.43 177.06 130.914 176.604 130.53C176.148 130.134 175.59 129.936 174.93 129.936C174.306 129.936 173.778 130.128 173.346 130.512C172.926 130.884 172.668 131.406 172.572 132.078H177.306ZM187.282 127.884C188.47 127.884 189.43 128.262 190.162 129.018C190.894 129.762 191.26 130.806 191.26 132.15V138H188.74V132.492C188.74 131.7 188.542 131.094 188.146 130.674C187.75 130.242 187.21 130.026 186.526 130.026C185.83 130.026 185.278 130.242 184.87 130.674C184.474 131.094 184.276 131.7 184.276 132.492V138H181.756V128.028H184.276V129.27C184.612 128.838 185.038 128.502 185.554 128.262C186.082 128.01 186.658 127.884 187.282 127.884ZM197.562 127.866C198.306 127.866 198.96 128.016 199.524 128.316C200.088 128.604 200.532 128.982 200.856 129.45V128.028H203.394V138.072C203.394 138.996 203.208 139.818 202.836 140.538C202.464 141.27 201.906 141.846 201.162 142.266C200.418 142.698 199.518 142.914 198.462 142.914C197.046 142.914 195.882 142.584 194.97 141.924C194.07 141.264 193.56 140.364 193.44 139.224H195.942C196.074 139.68 196.356 140.04 196.788 140.304C197.232 140.58 197.766 140.718 198.39 140.718C199.122 140.718 199.716 140.496 200.172 140.052C200.628 139.62 200.856 138.96 200.856 138.072V136.524C200.532 136.992 200.082 137.382 199.506 137.694C198.942 138.006 198.294 138.162 197.562 138.162C196.722 138.162 195.954 137.946 195.258 137.514C194.562 137.082 194.01 136.476 193.602 135.696C193.206 134.904 193.008 133.998 193.008 132.978C193.008 131.97 193.206 131.076 193.602 130.296C194.01 129.516 194.556 128.916 195.24 128.496C195.936 128.076 196.71 127.866 197.562 127.866ZM200.856 133.014C200.856 132.402 200.736 131.88 200.496 131.448C200.256 131.004 199.932 130.668 199.524 130.44C199.116 130.2 198.678 130.08 198.21 130.08C197.742 130.08 197.31 130.194 196.914 130.422C196.518 130.65 196.194 130.986 195.942 131.43C195.702 131.862 195.582 132.378 195.582 132.978C195.582 133.578 195.702 134.106 195.942 134.562C196.194 135.006 196.518 135.348 196.914 135.588C197.322 135.828 197.754 135.948 198.21 135.948C198.678 135.948 199.116 135.834 199.524 135.606C199.932 135.366 200.256 135.03 200.496 134.598C200.736 134.154 200.856 133.626 200.856 133.014ZM210.283 138.162C209.323 138.162 208.459 137.952 207.691 137.532C206.923 137.1 206.317 136.494 205.873 135.714C205.441 134.934 205.225 134.034 205.225 133.014C205.225 131.994 205.447 131.094 205.891 130.314C206.347 129.534 206.965 128.934 207.745 128.514C208.525 128.082 209.395 127.866 210.355 127.866C211.315 127.866 212.185 128.082 212.965 128.514C213.745 128.934 214.357 129.534 214.801 130.314C215.257 131.094 215.485 131.994 215.485 133.014C215.485 134.034 215.251 134.934 214.783 135.714C214.327 136.494 213.703 137.1 212.911 137.532C212.131 137.952 211.255 138.162 210.283 138.162ZM210.283 135.966C210.739 135.966 211.165 135.858 211.561 135.642C211.969 135.414 212.293 135.078 212.533 134.634C212.773 134.19 212.893 133.65 212.893 133.014C212.893 132.066 212.641 131.34 212.137 130.836C211.645 130.32 211.039 130.062 210.319 130.062C209.599 130.062 208.993 130.32 208.501 130.836C208.021 131.34 207.781 132.066 207.781 133.014C207.781 133.962 208.015 134.694 208.483 135.21C208.963 135.714 209.563 135.966 210.283 135.966ZM224.557 130.098V134.922C224.557 135.258 224.635 135.504 224.791 135.66C224.959 135.804 225.235 135.876 225.619 135.876H226.789V138H225.205C223.081 138 222.019 136.968 222.019 134.904V130.098H220.831V128.028H222.019V125.562H224.557V128.028H226.789V130.098H224.557ZM238.015 128.028V138H235.477V136.74C235.153 137.172 234.727 137.514 234.199 137.766C233.683 138.006 233.119 138.126 232.507 138.126C231.727 138.126 231.037 137.964 230.437 137.64C229.837 137.304 229.363 136.818 229.015 136.182C228.679 135.534 228.511 134.766 228.511 133.878V128.028H231.031V133.518C231.031 134.31 231.229 134.922 231.625 135.354C232.021 135.774 232.561 135.984 233.245 135.984C233.941 135.984 234.487 135.774 234.883 135.354C235.279 134.922 235.477 134.31 235.477 133.518V128.028H238.015ZM243.436 130.098V134.922C243.436 135.258 243.514 135.504 243.67 135.66C243.838 135.804 244.114 135.876 244.498 135.876H245.668V138H244.084C241.96 138 240.898 136.968 240.898 134.904V130.098H239.71V128.028H240.898V125.562H243.436V128.028H245.668V130.098H243.436ZM250.414 130.098V134.922C250.414 135.258 250.492 135.504 250.648 135.66C250.816 135.804 251.092 135.876 251.476 135.876H252.646V138H251.062C248.938 138 247.876 136.968 247.876 134.904V130.098H246.688V128.028H247.876V125.562H250.414V128.028H252.646V130.098H250.414ZM258.887 138.162C257.927 138.162 257.063 137.952 256.295 137.532C255.527 137.1 254.921 136.494 254.477 135.714C254.045 134.934 253.829 134.034 253.829 133.014C253.829 131.994 254.051 131.094 254.495 130.314C254.951 129.534 255.569 128.934 256.349 128.514C257.129 128.082 257.999 127.866 258.959 127.866C259.919 127.866 260.789 128.082 261.569 128.514C262.349 128.934 262.961 129.534 263.405 130.314C263.861 131.094 264.089 131.994 264.089 133.014C264.089 134.034 263.855 134.934 263.387 135.714C262.931 136.494 262.307 137.1 261.515 137.532C260.735 137.952 259.859 138.162 258.887 138.162ZM258.887 135.966C259.343 135.966 259.769 135.858 260.165 135.642C260.573 135.414 260.897 135.078 261.137 134.634C261.377 134.19 261.497 133.65 261.497 133.014C261.497 132.066 261.245 131.34 260.741 130.836C260.249 130.32 259.643 130.062 258.923 130.062C258.203 130.062 257.597 130.32 257.105 130.836C256.625 131.34 256.385 132.066 256.385 133.014C256.385 133.962 256.619 134.694 257.087 135.21C257.567 135.714 258.167 135.966 258.887 135.966ZM273.16 130.098V134.922C273.16 135.258 273.238 135.504 273.394 135.66C273.562 135.804 273.838 135.876 274.222 135.876H275.392V138H273.808C271.684 138 270.622 136.968 270.622 134.904V130.098H269.434V128.028H270.622V125.562H273.16V128.028H275.392V130.098H273.16ZM279.725 129.576C280.049 129.048 280.469 128.634 280.985 128.334C281.513 128.034 282.113 127.884 282.785 127.884V130.53H282.119C281.327 130.53 280.727 130.716 280.319 131.088C279.923 131.46 279.725 132.108 279.725 133.032V138H277.205V128.028H279.725V129.576ZM283.834 132.978C283.834 131.97 284.032 131.076 284.428 130.296C284.836 129.516 285.382 128.916 286.066 128.496C286.762 128.076 287.536 127.866 288.388 127.866C289.132 127.866 289.78 128.016 290.332 128.316C290.896 128.616 291.346 128.994 291.682 129.45V128.028H294.22V138H291.682V136.542C291.358 137.01 290.908 137.4 290.332 137.712C289.768 138.012 289.114 138.162 288.37 138.162C287.53 138.162 286.762 137.946 286.066 137.514C285.382 137.082 284.836 136.476 284.428 135.696C284.032 134.904 283.834 133.998 283.834 132.978ZM291.682 133.014C291.682 132.402 291.562 131.88 291.322 131.448C291.082 131.004 290.758 130.668 290.35 130.44C289.942 130.2 289.504 130.08 289.036 130.08C288.568 130.08 288.136 130.194 287.74 130.422C287.344 130.65 287.02 130.986 286.768 131.43C286.528 131.862 286.408 132.378 286.408 132.978C286.408 133.578 286.528 134.106 286.768 134.562C287.02 135.006 287.344 135.348 287.74 135.588C288.148 135.828 288.58 135.948 289.036 135.948C289.504 135.948 289.942 135.834 290.35 135.606C290.758 135.366 291.082 135.03 291.322 134.598C291.562 134.154 291.682 133.626 291.682 133.014ZM302.207 127.884C303.395 127.884 304.355 128.262 305.087 129.018C305.819 129.762 306.185 130.806 306.185 132.15V138H303.665V132.492C303.665 131.7 303.467 131.094 303.071 130.674C302.675 130.242 302.135 130.026 301.451 130.026C300.755 130.026 300.203 130.242 299.795 130.674C299.399 131.094 299.201 131.7 299.201 132.492V138H296.681V128.028H299.201V129.27C299.537 128.838 299.963 128.502 300.479 128.262C301.007 128.01 301.583 127.884 302.207 127.884ZM314.108 127.884C315.296 127.884 316.256 128.262 316.988 129.018C317.72 129.762 318.086 130.806 318.086 132.15V138H315.566V132.492C315.566 131.7 315.368 131.094 314.972 130.674C314.576 130.242 314.036 130.026 313.352 130.026C312.656 130.026 312.104 130.242 311.696 130.674C311.3 131.094 311.102 131.7 311.102 132.492V138H308.582V128.028H311.102V129.27C311.438 128.838 311.864 128.502 312.38 128.262C312.908 128.01 313.484 127.884 314.108 127.884ZM329.752 132.798C329.752 133.158 329.728 133.482 329.68 133.77H322.39C322.45 134.49 322.702 135.054 323.146 135.462C323.59 135.87 324.136 136.074 324.784 136.074C325.72 136.074 326.386 135.672 326.782 134.868H329.5C329.212 135.828 328.66 136.62 327.844 137.244C327.028 137.856 326.026 138.162 324.838 138.162C323.878 138.162 323.014 137.952 322.246 137.532C321.49 137.1 320.896 136.494 320.464 135.714C320.044 134.934 319.834 134.034 319.834 133.014C319.834 131.982 320.044 131.076 320.464 130.296C320.884 129.516 321.472 128.916 322.228 128.496C322.984 128.076 323.854 127.866 324.838 127.866C325.786 127.866 326.632 128.07 327.376 128.478C328.132 128.886 328.714 129.468 329.122 130.224C329.542 130.968 329.752 131.826 329.752 132.798ZM327.142 132.078C327.13 131.43 326.896 130.914 326.44 130.53C325.984 130.134 325.426 129.936 324.766 129.936C324.142 129.936 323.614 130.128 323.182 130.512C322.762 130.884 322.504 131.406 322.408 132.078H327.142ZM27.52 150.84C27.076 150.84 26.704 150.702 26.404 150.426C26.116 150.138 25.972 149.784 25.972 149.364C25.972 148.944 26.116 148.596 26.404 148.32C26.704 148.032 27.076 147.888 27.52 147.888C27.964 147.888 28.33 148.032 28.618 148.32C28.918 148.596 29.068 148.944 29.068 149.364C29.068 149.784 28.918 150.138 28.618 150.426C28.33 150.702 27.964 150.84 27.52 150.84ZM28.762 152.028V162H26.242V152.028H28.762ZM33.7718 148.68V162H31.2518V148.68H33.7718ZM45.1226 154.098H43.3766V162H40.8206V154.098H39.6866V152.028H40.8206V151.524C40.8206 150.3 41.1686 149.4 41.8646 148.824C42.5606 148.248 43.6106 147.978 45.0146 148.014V150.138C44.4026 150.126 43.9766 150.228 43.7366 150.444C43.4966 150.66 43.3766 151.05 43.3766 151.614V152.028H45.1226V154.098ZM49.2757 153.576C49.5997 153.048 50.0197 152.634 50.5357 152.334C51.0637 152.034 51.6637 151.884 52.3357 151.884V154.53H51.6697C50.8777 154.53 50.2777 154.716 49.8697 155.088C49.4737 155.46 49.2757 156.108 49.2757 157.032V162H46.7557V152.028H49.2757V153.576ZM55.311 150.84C54.867 150.84 54.495 150.702 54.195 150.426C53.907 150.138 53.763 149.784 53.763 149.364C53.763 148.944 53.907 148.596 54.195 148.32C54.495 148.032 54.867 147.888 55.311 147.888C55.755 147.888 56.121 148.032 56.409 148.32C56.709 148.596 56.859 148.944 56.859 149.364C56.859 149.784 56.709 150.138 56.409 150.426C56.121 150.702 55.755 150.84 55.311 150.84ZM56.553 152.028V162H54.033V152.028H56.553ZM62.9488 151.866C63.6928 151.866 64.3468 152.016 64.9108 152.316C65.4748 152.604 65.9188 152.982 66.2428 153.45V152.028H68.7808V162.072C68.7808 162.996 68.5948 163.818 68.2228 164.538C67.8508 165.27 67.2928 165.846 66.5488 166.266C65.8048 166.698 64.9048 166.914 63.8488 166.914C62.4328 166.914 61.2688 166.584 60.3568 165.924C59.4568 165.264 58.9468 164.364 58.8268 163.224H61.3288C61.4608 163.68 61.7428 164.04 62.1748 164.304C62.6188 164.58 63.1528 164.718 63.7768 164.718C64.5088 164.718 65.1028 164.496 65.5588 164.052C66.0148 163.62 66.2428 162.96 66.2428 162.072V160.524C65.9188 160.992 65.4688 161.382 64.8928 161.694C64.3288 162.006 63.6808 162.162 62.9488 162.162C62.1088 162.162 61.3408 161.946 60.6448 161.514C59.9488 161.082 59.3968 160.476 58.9888 159.696C58.5928 158.904 58.3948 157.998 58.3948 156.978C58.3948 155.97 58.5928 155.076 58.9888 154.296C59.3968 153.516 59.9428 152.916 60.6268 152.496C61.3228 152.076 62.0968 151.866 62.9488 151.866ZM66.2428 157.014C66.2428 156.402 66.1228 155.88 65.8828 155.448C65.6428 155.004 65.3188 154.668 64.9108 154.44C64.5028 154.2 64.0648 154.08 63.5968 154.08C63.1288 154.08 62.6968 154.194 62.3008 154.422C61.9048 154.65 61.5808 154.986 61.3288 155.43C61.0888 155.862 60.9688 156.378 60.9688 156.978C60.9688 157.578 61.0888 158.106 61.3288 158.562C61.5808 159.006 61.9048 159.348 62.3008 159.588C62.7088 159.828 63.1408 159.948 63.5968 159.948C64.0648 159.948 64.5028 159.834 64.9108 159.606C65.3188 159.366 65.6428 159.03 65.8828 158.598C66.1228 158.154 66.2428 157.626 66.2428 157.014ZM75.67 162.162C74.71 162.162 73.846 161.952 73.078 161.532C72.31 161.1 71.704 160.494 71.26 159.714C70.828 158.934 70.612 158.034 70.612 157.014C70.612 155.994 70.834 155.094 71.278 154.314C71.734 153.534 72.352 152.934 73.132 152.514C73.912 152.082 74.782 151.866 75.742 151.866C76.702 151.866 77.572 152.082 78.352 152.514C79.132 152.934 79.744 153.534 80.188 154.314C80.644 155.094 80.872 155.994 80.872 157.014C80.872 158.034 80.638 158.934 80.17 159.714C79.714 160.494 79.09 161.1 78.298 161.532C77.518 161.952 76.642 162.162 75.67 162.162ZM75.67 159.966C76.126 159.966 76.552 159.858 76.948 159.642C77.356 159.414 77.68 159.078 77.92 158.634C78.16 158.19 78.28 157.65 78.28 157.014C78.28 156.066 78.028 155.34 77.524 154.836C77.032 154.32 76.426 154.062 75.706 154.062C74.986 154.062 74.38 154.32 73.888 154.836C73.408 155.34 73.168 156.066 73.168 157.014C73.168 157.962 73.402 158.694 73.87 159.21C74.35 159.714 74.95 159.966 75.67 159.966ZM83.8365 162.126C83.3805 162.126 83.0025 161.988 82.7025 161.712C82.4145 161.424 82.2705 161.07 82.2705 160.65C82.2705 160.23 82.4145 159.882 82.7025 159.606C83.0025 159.318 83.3805 159.174 83.8365 159.174C84.2805 159.174 84.6465 159.318 84.9345 159.606C85.2225 159.882 85.3665 160.23 85.3665 160.65C85.3665 161.07 85.2225 161.424 84.9345 161.712C84.6465 161.988 84.2805 162.126 83.8365 162.126Z" fill="white"/>
<rect x="290" y="212" width="44" height="24" rx="12" fill="white"/>
<g filter="url(#filter1_d_110_230)">
<rect x="312" y="214" width="20" height="20" rx="10" fill="#E98462"/>
</g>
<defs>
<filter id="filter1_d_110_230" x="308" y="212" width="28" height="28" filterUnits="userSpaceOnUse" color-interpolation-filters="sRGB">
<feFlood flood-opacity="0" result="BackgroundImageFix"/>
<feColorMatrix in="SourceAlpha" type="matrix" values="0 0 0 0 0 0 0 0 0 0 0 0 0 0 0 0 0 0 127 0" result="hardAlpha"/>
<feOffset dy="2"/>
<feGaussianBlur stdDeviation="2"/>
<feComposite in2="hardAlpha" operator="out"/>
<feColorMatrix type="matrix" values="0 0 0 0 0.152941 0 0 0 0 0.152941 0 0 0 0 0.152941 0 0 0 0.1 0"/>
<feBlend mode="normal" in2="BackgroundImageFix" result="effect1_dropShadow_110_230"/>
<feBlend mode="normal" in="SourceGraphic" in2="effect1_dropShadow_110_230" result="shape"/>
</filter>
</defs>
</svg>
