<svg width="359" height="258" viewBox="0 0 359 258" fill="none" xmlns="http://www.w3.org/2000/svg">
<rect width="359" height="258" rx="20" fill="white" fill-opacity="0.14"/>
<rect x="0.5" y="0.5" width="358" height="257" rx="19.5" stroke="white" stroke-opacity="0.25"/>
<path d="M29.598 28.644V44H26.518V28.644H29.598ZM35.721 27.72V44H32.641V27.72H35.721ZM47.5923 34.342V40.238C47.5923 40.6487 47.6876 40.9493 47.8783 41.14C48.0836 41.316 48.4209 41.404 48.8903 41.404H50.3203V44H48.3843C45.7883 44 44.4903 42.7387 44.4903 40.216V34.342H43.0383V31.812H44.4903V28.798H47.5923V31.812H50.3203V34.342H47.5923ZM64.0416 31.812V44H60.9396V42.46C60.5436 42.988 60.0229 43.406 59.3776 43.714C58.7469 44.0073 58.0576 44.154 57.3096 44.154C56.3562 44.154 55.5129 43.956 54.7796 43.56C54.0462 43.1493 53.4669 42.5553 53.0416 41.778C52.6309 40.986 52.4256 40.0473 52.4256 38.962V31.812H55.5056V38.522C55.5056 39.49 55.7476 40.238 56.2316 40.766C56.7156 41.2793 57.3756 41.536 58.2116 41.536C59.0622 41.536 59.7296 41.2793 60.2136 40.766C60.6976 40.238 60.9396 39.49 60.9396 38.522V31.812H64.0416ZM72.4925 44.198C71.3192 44.198 70.2632 43.9413 69.3245 43.428C68.3858 42.9 67.6452 42.1593 67.1025 41.206C66.5745 40.2527 66.3105 39.1527 66.3105 37.906C66.3105 36.6593 66.5818 35.5593 67.1245 34.606C67.6818 33.6527 68.4372 32.9193 69.3905 32.406C70.3438 31.878 71.4072 31.614 72.5805 31.614C73.7538 31.614 74.8172 31.878 75.7705 32.406C76.7238 32.9193 77.4718 33.6527 78.0145 34.606C78.5718 35.5593 78.8505 36.6593 78.8505 37.906C78.8505 39.1527 78.5645 40.2527 77.9925 41.206C77.4352 42.1593 76.6725 42.9 75.7045 43.428C74.7512 43.9413 73.6805 44.198 72.4925 44.198ZM72.4925 41.514C73.0498 41.514 73.5705 41.382 74.0545 41.118C74.5532 40.8393 74.9492 40.4287 75.2425 39.886C75.5358 39.3433 75.6825 38.6833 75.6825 37.906C75.6825 36.7473 75.3745 35.86 74.7585 35.244C74.1572 34.6133 73.4165 34.298 72.5365 34.298C71.6565 34.298 70.9158 34.6133 70.3145 35.244C69.7278 35.86 69.4345 36.7473 69.4345 37.906C69.4345 39.0647 69.7205 39.9593 70.2925 40.59C70.8792 41.206 71.6125 41.514 72.4925 41.514ZM89.432 33.704C89.828 33.0587 90.3413 32.5527 90.972 32.186C91.6173 31.8193 92.3507 31.636 93.172 31.636V34.87H92.358C91.39 34.87 90.6567 35.0973 90.158 35.552C89.674 36.0067 89.432 36.7987 89.432 37.928V44H86.352V31.812H89.432V33.704ZM96.8085 30.36C96.2658 30.36 95.8112 30.1913 95.4445 29.854C95.0925 29.502 94.9165 29.0693 94.9165 28.556C94.9165 28.0427 95.0925 27.6173 95.4445 27.28C95.8112 26.928 96.2658 26.752 96.8085 26.752C97.3512 26.752 97.7985 26.928 98.1505 27.28C98.5172 27.6173 98.7005 28.0427 98.7005 28.556C98.7005 29.0693 98.5172 29.502 98.1505 29.854C97.7985 30.1913 97.3512 30.36 96.8085 30.36ZM98.3265 31.812V44H95.2465V31.812H98.3265ZM112.7 37.642C112.7 38.082 112.67 38.478 112.612 38.83H103.702C103.775 39.71 104.083 40.3993 104.626 40.898C105.168 41.3967 105.836 41.646 106.628 41.646C107.772 41.646 108.586 41.1547 109.07 40.172H112.392C112.04 41.3453 111.365 42.3133 110.368 43.076C109.37 43.824 108.146 44.198 106.694 44.198C105.52 44.198 104.464 43.9413 103.526 43.428C102.602 42.9 101.876 42.1593 101.348 41.206C100.834 40.2527 100.578 39.1527 100.578 37.906C100.578 36.6447 100.834 35.5373 101.348 34.584C101.861 33.6307 102.58 32.8973 103.504 32.384C104.428 31.8707 105.491 31.614 106.694 31.614C107.852 31.614 108.886 31.8633 109.796 32.362C110.72 32.8607 111.431 33.572 111.93 34.496C112.443 35.4053 112.7 36.454 112.7 37.642ZM109.51 36.762C109.495 35.97 109.209 35.3393 108.652 34.87C108.094 34.386 107.412 34.144 106.606 34.144C105.843 34.144 105.198 34.3787 104.67 34.848C104.156 35.3027 103.841 35.9407 103.724 36.762H109.51ZM121.702 31.636C123.154 31.636 124.327 32.098 125.222 33.022C126.116 33.9313 126.564 35.2073 126.564 36.85V44H123.484V37.268C123.484 36.3 123.242 35.5593 122.758 35.046C122.274 34.518 121.614 34.254 120.778 34.254C119.927 34.254 119.252 34.518 118.754 35.046C118.27 35.5593 118.028 36.3 118.028 37.268V44H114.948V31.812H118.028V33.33C118.438 32.802 118.959 32.3913 119.59 32.098C120.235 31.79 120.939 31.636 121.702 31.636ZM133.079 34.342V40.238C133.079 40.6487 133.174 40.9493 133.365 41.14C133.57 41.316 133.907 41.404 134.377 41.404H135.807V44H133.871C131.275 44 129.977 42.7387 129.977 40.216V34.342H128.525V31.812H129.977V28.798H133.079V31.812H135.807V34.342H133.079ZM141.102 33.704C141.498 33.0587 142.011 32.5527 142.642 32.186C143.287 31.8193 144.021 31.636 144.842 31.636V34.87H144.028C143.06 34.87 142.327 35.0973 141.828 35.552C141.344 36.0067 141.102 36.7987 141.102 37.928V44H138.022V31.812H141.102V33.704ZM152.328 44.198C151.155 44.198 150.099 43.9413 149.16 43.428C148.222 42.9 147.481 42.1593 146.938 41.206C146.41 40.2527 146.146 39.1527 146.146 37.906C146.146 36.6593 146.418 35.5593 146.96 34.606C147.518 33.6527 148.273 32.9193 149.226 32.406C150.18 31.878 151.243 31.614 152.416 31.614C153.59 31.614 154.653 31.878 155.606 32.406C156.56 32.9193 157.308 33.6527 157.85 34.606C158.408 35.5593 158.686 36.6593 158.686 37.906C158.686 39.1527 158.4 40.2527 157.828 41.206C157.271 42.1593 156.508 42.9 155.54 43.428C154.587 43.9413 153.516 44.198 152.328 44.198ZM152.328 41.514C152.886 41.514 153.406 41.382 153.89 41.118C154.389 40.8393 154.785 40.4287 155.078 39.886C155.372 39.3433 155.518 38.6833 155.518 37.906C155.518 36.7473 155.21 35.86 154.594 35.244C153.993 34.6133 153.252 34.298 152.372 34.298C151.492 34.298 150.752 34.6133 150.15 35.244C149.564 35.86 149.27 36.7473 149.27 37.906C149.27 39.0647 149.556 39.9593 150.128 40.59C150.715 41.206 151.448 41.514 152.328 41.514Z" fill="white"/>
<path d="M35.448 62.848L31.24 74H29.56L25.352 62.848H26.904L30.408 72.464L33.912 62.848H35.448ZM45.0445 69.28C45.0445 69.5573 45.0285 69.8507 44.9965 70.16H37.9885C38.0418 71.024 38.3352 71.7013 38.8685 72.192C39.4125 72.672 40.0685 72.912 40.8365 72.912C41.4658 72.912 41.9885 72.768 42.4045 72.48C42.8312 72.1813 43.1298 71.7867 43.3005 71.296H44.8685C44.6338 72.1387 44.1645 72.8267 43.4605 73.36C42.7565 73.8827 41.8818 74.144 40.8365 74.144C40.0045 74.144 39.2578 73.9573 38.5965 73.584C37.9458 73.2107 37.4338 72.6827 37.0605 72C36.6872 71.3067 36.5005 70.5067 36.5005 69.6C36.5005 68.6933 36.6818 67.8987 37.0445 67.216C37.4072 66.5333 37.9138 66.0107 38.5645 65.648C39.2258 65.2747 39.9832 65.088 40.8365 65.088C41.6685 65.088 42.4045 65.2693 43.0445 65.632C43.6845 65.9947 44.1752 66.496 44.5165 67.136C44.8685 67.7653 45.0445 68.48 45.0445 69.28ZM43.5405 68.976C43.5405 68.4213 43.4178 67.9467 43.1725 67.552C42.9272 67.1467 42.5912 66.8427 42.1645 66.64C41.7485 66.4267 41.2845 66.32 40.7725 66.32C40.0365 66.32 39.4072 66.5547 38.8845 67.024C38.3725 67.4933 38.0792 68.144 38.0045 68.976H43.5405ZM48.4224 66.656C48.6784 66.1547 49.041 65.7653 49.5104 65.488C49.9904 65.2107 50.5717 65.072 51.2544 65.072V66.576H50.8704C49.2384 66.576 48.4224 67.4613 48.4224 69.232V74H46.9664V65.232H48.4224V66.656ZM56.0391 74.144C55.3671 74.144 54.7645 74.032 54.2311 73.808C53.6978 73.5733 53.2765 73.2533 52.9671 72.848C52.6578 72.432 52.4871 71.9573 52.4551 71.424H53.9591C54.0018 71.8613 54.2045 72.2187 54.5671 72.496C54.9405 72.7733 55.4258 72.912 56.0231 72.912C56.5778 72.912 57.0151 72.7893 57.3351 72.544C57.6551 72.2987 57.8151 71.9893 57.8151 71.616C57.8151 71.232 57.6445 70.9493 57.3031 70.768C56.9618 70.576 56.4338 70.3893 55.7191 70.208C55.0685 70.0373 54.5351 69.8667 54.1191 69.696C53.7138 69.5147 53.3618 69.2533 53.0631 68.912C52.7751 68.56 52.6311 68.1013 52.6311 67.536C52.6311 67.088 52.7645 66.6773 53.0311 66.304C53.2978 65.9307 53.6765 65.6373 54.1671 65.424C54.6578 65.2 55.2178 65.088 55.8471 65.088C56.8178 65.088 57.6018 65.3333 58.1991 65.824C58.7965 66.3147 59.1165 66.9867 59.1591 67.84H57.7031C57.6711 67.3813 57.4845 67.0133 57.1431 66.736C56.8125 66.4587 56.3645 66.32 55.7991 66.32C55.2765 66.32 54.8605 66.432 54.5511 66.656C54.2418 66.88 54.0871 67.1733 54.0871 67.536C54.0871 67.824 54.1778 68.064 54.3591 68.256C54.5511 68.4373 54.7858 68.5867 55.0631 68.704C55.3511 68.8107 55.7458 68.9333 56.2471 69.072C56.8765 69.2427 57.3885 69.4133 57.7831 69.584C58.1778 69.744 58.5138 69.9893 58.7911 70.32C59.0791 70.6507 59.2285 71.0827 59.2391 71.616C59.2391 72.096 59.1058 72.528 58.8391 72.912C58.5725 73.296 58.1938 73.6 57.7031 73.824C57.2231 74.0373 56.6685 74.144 56.0391 74.144ZM65.1185 74.144C64.2972 74.144 63.5505 73.9573 62.8785 73.584C62.2172 73.2107 61.6945 72.6827 61.3105 72C60.9372 71.3067 60.7505 70.5067 60.7505 69.6C60.7505 68.704 60.9425 67.9147 61.3265 67.232C61.7212 66.5387 62.2545 66.0107 62.9265 65.648C63.5985 65.2747 64.3505 65.088 65.1825 65.088C66.0145 65.088 66.7665 65.2747 67.4385 65.648C68.1105 66.0107 68.6385 66.5333 69.0225 67.216C69.4172 67.8987 69.6145 68.6933 69.6145 69.6C69.6145 70.5067 69.4118 71.3067 69.0065 72C68.6118 72.6827 68.0732 73.2107 67.3905 73.584C66.7078 73.9573 65.9505 74.144 65.1185 74.144ZM65.1185 72.864C65.6412 72.864 66.1318 72.7413 66.5905 72.496C67.0492 72.2507 67.4172 71.8827 67.6945 71.392C67.9825 70.9013 68.1265 70.304 68.1265 69.6C68.1265 68.896 67.9878 68.2987 67.7105 67.808C67.4332 67.3173 67.0705 66.9547 66.6225 66.72C66.1745 66.4747 65.6892 66.352 65.1665 66.352C64.6332 66.352 64.1425 66.4747 63.6945 66.72C63.2572 66.9547 62.9052 67.3173 62.6385 67.808C62.3718 68.2987 62.2385 68.896 62.2385 69.6C62.2385 70.3147 62.3665 70.9173 62.6225 71.408C62.8892 71.8987 63.2412 72.2667 63.6785 72.512C64.1158 72.7467 64.5958 72.864 65.1185 72.864ZM77.2505 62.16V74H75.7945V62.16H77.2505ZM87.732 69.28C87.732 69.5573 87.716 69.8507 87.684 70.16H80.676C80.7293 71.024 81.0227 71.7013 81.556 72.192C82.1 72.672 82.756 72.912 83.524 72.912C84.1533 72.912 84.676 72.768 85.092 72.48C85.5187 72.1813 85.8173 71.7867 85.988 71.296H87.556C87.3213 72.1387 86.852 72.8267 86.148 73.36C85.444 73.8827 84.5693 74.144 83.524 74.144C82.692 74.144 81.9453 73.9573 81.284 73.584C80.6333 73.2107 80.1213 72.6827 79.748 72C79.3747 71.3067 79.188 70.5067 79.188 69.6C79.188 68.6933 79.3693 67.8987 79.732 67.216C80.0947 66.5333 80.6013 66.0107 81.252 65.648C81.9133 65.2747 82.6707 65.088 83.524 65.088C84.356 65.088 85.092 65.2693 85.732 65.632C86.372 65.9947 86.8627 66.496 87.204 67.136C87.556 67.7653 87.732 68.48 87.732 69.28ZM86.228 68.976C86.228 68.4213 86.1053 67.9467 85.86 67.552C85.6147 67.1467 85.2787 66.8427 84.852 66.64C84.436 66.4267 83.972 66.32 83.46 66.32C82.724 66.32 82.0947 66.5547 81.572 67.024C81.06 67.4933 80.7667 68.144 80.692 68.976H86.228ZM93.2955 63.76V62.432H96.3035V74H94.8315V63.76H93.2955ZM100.677 70.896C100.783 71.504 101.029 71.9733 101.413 72.304C101.807 72.6347 102.335 72.8 102.997 72.8C103.882 72.8 104.533 72.4533 104.949 71.76C105.375 71.0667 105.578 69.8987 105.557 68.256C105.333 68.736 104.959 69.1147 104.437 69.392C103.914 69.6587 103.333 69.792 102.693 69.792C101.978 69.792 101.338 69.648 100.773 69.36C100.218 69.0613 99.7805 68.6293 99.4605 68.064C99.1405 67.4987 98.9805 66.816 98.9805 66.016C98.9805 64.8747 99.3112 63.9573 99.9725 63.264C100.634 62.56 101.573 62.208 102.789 62.208C104.282 62.208 105.327 62.6933 105.925 63.664C106.533 64.6347 106.837 66.08 106.837 68C106.837 69.344 106.714 70.4533 106.469 71.328C106.234 72.2027 105.829 72.8693 105.253 73.328C104.687 73.7867 103.909 74.016 102.917 74.016C101.829 74.016 100.981 73.7227 100.373 73.136C99.7645 72.5493 99.4178 71.8027 99.3325 70.896H100.677ZM102.933 68.56C103.647 68.56 104.234 68.3413 104.693 67.904C105.151 67.456 105.381 66.8533 105.381 66.096C105.381 65.296 105.157 64.6507 104.709 64.16C104.261 63.6693 103.631 63.424 102.821 63.424C102.074 63.424 101.477 63.6587 101.029 64.128C100.591 64.5973 100.373 65.216 100.373 65.984C100.373 66.7627 100.591 67.3867 101.029 67.856C101.466 68.3253 102.101 68.56 102.933 68.56ZM109.587 74.096C109.309 74.096 109.075 74 108.883 73.808C108.691 73.616 108.595 73.3813 108.595 73.104C108.595 72.8267 108.691 72.592 108.883 72.4C109.075 72.208 109.309 72.112 109.587 72.112C109.853 72.112 110.077 72.208 110.259 72.4C110.451 72.592 110.547 72.8267 110.547 73.104C110.547 73.3813 110.451 73.616 110.259 73.808C110.077 74 109.853 74.096 109.587 74.096ZM109.587 67.248C109.309 67.248 109.075 67.152 108.883 66.96C108.691 66.768 108.595 66.5333 108.595 66.256C108.595 65.9787 108.691 65.744 108.883 65.552C109.075 65.36 109.309 65.264 109.587 65.264C109.853 65.264 110.077 65.36 110.259 65.552C110.451 65.744 110.547 65.9787 110.547 66.256C110.547 66.5333 110.451 66.768 110.259 66.96C110.077 67.152 109.853 67.248 109.587 67.248ZM112.289 68.096C112.289 66.2613 112.588 64.832 113.185 63.808C113.782 62.7733 114.828 62.256 116.321 62.256C117.804 62.256 118.844 62.7733 119.441 63.808C120.038 64.832 120.337 66.2613 120.337 68.096C120.337 69.9627 120.038 71.4133 119.441 72.448C118.844 73.4827 117.804 74 116.321 74C114.828 74 113.782 73.4827 113.185 72.448C112.588 71.4133 112.289 69.9627 112.289 68.096ZM118.897 68.096C118.897 67.168 118.833 66.384 118.705 65.744C118.588 65.0933 118.337 64.5707 117.953 64.176C117.58 63.7813 117.036 63.584 116.321 63.584C115.596 63.584 115.041 63.7813 114.657 64.176C114.284 64.5707 114.033 65.0933 113.905 65.744C113.788 66.384 113.729 67.168 113.729 68.096C113.729 69.056 113.788 69.8613 113.905 70.512C114.033 71.1627 114.284 71.6853 114.657 72.08C115.041 72.4747 115.596 72.672 116.321 72.672C117.036 72.672 117.58 72.4747 117.953 72.08C118.337 71.6853 118.588 71.1627 118.705 70.512C118.833 69.8613 118.897 69.056 118.897 68.096ZM122.336 68.096C122.336 66.2613 122.634 64.832 123.232 63.808C123.829 62.7733 124.874 62.256 126.368 62.256C127.85 62.256 128.89 62.7733 129.488 63.808C130.085 64.832 130.384 66.2613 130.384 68.096C130.384 69.9627 130.085 71.4133 129.488 72.448C128.89 73.4827 127.85 74 126.368 74C124.874 74 123.829 73.4827 123.232 72.448C122.634 71.4133 122.336 69.9627 122.336 68.096ZM128.944 68.096C128.944 67.168 128.88 66.384 128.752 65.744C128.634 65.0933 128.384 64.5707 128 64.176C127.626 63.7813 127.082 63.584 126.368 63.584C125.642 63.584 125.088 63.7813 124.704 64.176C124.33 64.5707 124.08 65.0933 123.952 65.744C123.834 66.384 123.776 67.168 123.776 68.096C123.776 69.056 123.834 69.8613 123.952 70.512C124.08 71.1627 124.33 71.6853 124.704 72.08C125.088 72.4747 125.642 72.672 126.368 72.672C127.082 72.672 127.626 72.4747 128 72.08C128.384 71.6853 128.634 71.1627 128.752 70.512C128.88 69.8613 128.944 69.056 128.944 68.096ZM136.344 69.584C136.344 68.688 136.526 67.904 136.888 67.232C137.251 66.5493 137.747 66.0213 138.376 65.648C139.016 65.2747 139.726 65.088 140.504 65.088C141.272 65.088 141.939 65.2533 142.504 65.584C143.07 65.9147 143.491 66.3307 143.768 66.832V65.232H145.24V74H143.768V72.368C143.48 72.88 143.048 73.3067 142.472 73.648C141.907 73.9787 141.246 74.144 140.488 74.144C139.71 74.144 139.006 73.952 138.376 73.568C137.747 73.184 137.251 72.6453 136.888 71.952C136.526 71.2587 136.344 70.4693 136.344 69.584ZM143.768 69.6C143.768 68.9387 143.635 68.3627 143.368 67.872C143.102 67.3813 142.739 67.008 142.28 66.752C141.832 66.4853 141.336 66.352 140.792 66.352C140.248 66.352 139.752 66.48 139.304 66.736C138.856 66.992 138.499 67.3653 138.232 67.856C137.966 68.3467 137.832 68.9227 137.832 69.584C137.832 70.256 137.966 70.8427 138.232 71.344C138.499 71.8347 138.856 72.2133 139.304 72.48C139.752 72.736 140.248 72.864 140.792 72.864C141.336 72.864 141.832 72.736 142.28 72.48C142.739 72.2133 143.102 71.8347 143.368 71.344C143.635 70.8427 143.768 70.2613 143.768 69.6ZM147.157 69.6C147.157 68.6933 147.338 67.904 147.701 67.232C148.063 66.5493 148.565 66.0213 149.205 65.648C149.855 65.2747 150.597 65.088 151.429 65.088C152.506 65.088 153.391 65.3493 154.085 65.872C154.789 66.3947 155.253 67.12 155.477 68.048H153.909C153.759 67.5147 153.466 67.0933 153.029 66.784C152.602 66.4747 152.069 66.32 151.429 66.32C150.597 66.32 149.925 66.608 149.413 67.184C148.901 67.7493 148.645 68.5547 148.645 69.6C148.645 70.656 148.901 71.472 149.413 72.048C149.925 72.624 150.597 72.912 151.429 72.912C152.069 72.912 152.602 72.7627 153.029 72.464C153.455 72.1653 153.749 71.7387 153.909 71.184H155.477C155.242 72.08 154.773 72.8 154.069 73.344C153.365 73.8773 152.485 74.144 151.429 74.144C150.597 74.144 149.855 73.9573 149.205 73.584C148.565 73.2107 148.063 72.6827 147.701 72C147.338 71.3173 147.157 70.5173 147.157 69.6ZM156.876 69.6C156.876 68.6933 157.057 67.904 157.42 67.232C157.782 66.5493 158.284 66.0213 158.924 65.648C159.574 65.2747 160.316 65.088 161.148 65.088C162.225 65.088 163.11 65.3493 163.804 65.872C164.508 66.3947 164.972 67.12 165.196 68.048H163.628C163.478 67.5147 163.185 67.0933 162.748 66.784C162.321 66.4747 161.788 66.32 161.148 66.32C160.316 66.32 159.644 66.608 159.132 67.184C158.62 67.7493 158.364 68.5547 158.364 69.6C158.364 70.656 158.62 71.472 159.132 72.048C159.644 72.624 160.316 72.912 161.148 72.912C161.788 72.912 162.321 72.7627 162.748 72.464C163.174 72.1653 163.468 71.7387 163.628 71.184H165.196C164.961 72.08 164.492 72.8 163.788 73.344C163.084 73.8773 162.204 74.144 161.148 74.144C160.316 74.144 159.574 73.9573 158.924 73.584C158.284 73.2107 157.782 72.6827 157.42 72C157.057 71.3173 156.876 70.5173 156.876 69.6ZM175.138 69.28C175.138 69.5573 175.122 69.8507 175.09 70.16H168.082C168.136 71.024 168.429 71.7013 168.962 72.192C169.506 72.672 170.162 72.912 170.93 72.912C171.56 72.912 172.082 72.768 172.498 72.48C172.925 72.1813 173.224 71.7867 173.394 71.296H174.962C174.728 72.1387 174.258 72.8267 173.554 73.36C172.85 73.8827 171.976 74.144 170.93 74.144C170.098 74.144 169.352 73.9573 168.69 73.584C168.04 73.2107 167.528 72.6827 167.154 72C166.781 71.3067 166.594 70.5067 166.594 69.6C166.594 68.6933 166.776 67.8987 167.138 67.216C167.501 66.5333 168.008 66.0107 168.658 65.648C169.32 65.2747 170.077 65.088 170.93 65.088C171.762 65.088 172.498 65.2693 173.138 65.632C173.778 65.9947 174.269 66.496 174.61 67.136C174.962 67.7653 175.138 68.48 175.138 69.28ZM173.634 68.976C173.634 68.4213 173.512 67.9467 173.266 67.552C173.021 67.1467 172.685 66.8427 172.258 66.64C171.842 66.4267 171.378 66.32 170.866 66.32C170.13 66.32 169.501 66.5547 168.978 67.024C168.466 67.4933 168.173 68.144 168.098 68.976H173.634ZM181.332 65.072C182.399 65.072 183.263 65.3973 183.924 66.048C184.585 66.688 184.916 67.616 184.916 68.832V74H183.476V69.04C183.476 68.1653 183.257 67.4987 182.82 67.04C182.383 66.5707 181.785 66.336 181.028 66.336C180.26 66.336 179.647 66.576 179.188 67.056C178.74 67.536 178.516 68.2347 178.516 69.152V74H177.06V65.232H178.516V66.48C178.804 66.032 179.193 65.6853 179.684 65.44C180.185 65.1947 180.735 65.072 181.332 65.072ZM186.751 69.584C186.751 68.688 186.932 67.904 187.295 67.232C187.657 66.5493 188.153 66.0213 188.783 65.648C189.423 65.2747 190.137 65.088 190.927 65.088C191.609 65.088 192.244 65.248 192.831 65.568C193.417 65.8773 193.865 66.288 194.175 66.8V62.16H195.647V74H194.175V72.352C193.887 72.8747 193.46 73.3067 192.895 73.648C192.329 73.9787 191.668 74.144 190.911 74.144C190.132 74.144 189.423 73.952 188.783 73.568C188.153 73.184 187.657 72.6453 187.295 71.952C186.932 71.2587 186.751 70.4693 186.751 69.584ZM194.175 69.6C194.175 68.9387 194.041 68.3627 193.775 67.872C193.508 67.3813 193.145 67.008 192.687 66.752C192.239 66.4853 191.743 66.352 191.199 66.352C190.655 66.352 190.159 66.48 189.711 66.736C189.263 66.992 188.905 67.3653 188.639 67.856C188.372 68.3467 188.239 68.9227 188.239 69.584C188.239 70.256 188.372 70.8427 188.639 71.344C188.905 71.8347 189.263 72.2133 189.711 72.48C190.159 72.736 190.655 72.864 191.199 72.864C191.743 72.864 192.239 72.736 192.687 72.48C193.145 72.2133 193.508 71.8347 193.775 71.344C194.041 70.8427 194.175 70.2613 194.175 69.6ZM198.859 63.808C198.582 63.808 198.347 63.712 198.155 63.52C197.963 63.328 197.867 63.0933 197.867 62.816C197.867 62.5387 197.963 62.304 198.155 62.112C198.347 61.92 198.582 61.824 198.859 61.824C199.126 61.824 199.35 61.92 199.531 62.112C199.723 62.304 199.819 62.5387 199.819 62.816C199.819 63.0933 199.723 63.328 199.531 63.52C199.35 63.712 199.126 63.808 198.859 63.808ZM199.563 65.232V74H198.107V65.232H199.563ZM207.766 62.16V74H206.31V62.16H207.766ZM218.248 69.28C218.248 69.5573 218.232 69.8507 218.2 70.16H211.192C211.245 71.024 211.538 71.7013 212.072 72.192C212.616 72.672 213.272 72.912 214.04 72.912C214.669 72.912 215.192 72.768 215.608 72.48C216.034 72.1813 216.333 71.7867 216.504 71.296H218.072C217.837 72.1387 217.368 72.8267 216.664 73.36C215.96 73.8827 215.085 74.144 214.04 74.144C213.208 74.144 212.461 73.9573 211.8 73.584C211.149 73.2107 210.637 72.6827 210.264 72C209.89 71.3067 209.704 70.5067 209.704 69.6C209.704 68.6933 209.885 67.8987 210.248 67.216C210.61 66.5333 211.117 66.0107 211.768 65.648C212.429 65.2747 213.186 65.088 214.04 65.088C214.872 65.088 215.608 65.2693 216.248 65.632C216.888 65.9947 217.378 66.496 217.72 67.136C218.072 67.7653 218.248 68.48 218.248 69.28ZM216.744 68.976C216.744 68.4213 216.621 67.9467 216.376 67.552C216.13 67.1467 215.794 66.8427 215.368 66.64C214.952 66.4267 214.488 66.32 213.976 66.32C213.24 66.32 212.61 66.5547 212.088 67.024C211.576 67.4933 211.282 68.144 211.208 68.976H216.744ZM225.891 62.16V74H224.435V62.16H225.891ZM236.149 65.232V74H234.693V72.704C234.415 73.152 234.026 73.504 233.525 73.76C233.034 74.0053 232.49 74.128 231.893 74.128C231.21 74.128 230.597 73.9893 230.053 73.712C229.509 73.424 229.077 72.9973 228.757 72.432C228.447 71.8667 228.293 71.1787 228.293 70.368V65.232H229.733V70.176C229.733 71.04 229.951 71.7067 230.389 72.176C230.826 72.6347 231.423 72.864 232.181 72.864C232.959 72.864 233.573 72.624 234.021 72.144C234.469 71.664 234.693 70.9653 234.693 70.048V65.232H236.149ZM238.063 69.6C238.063 68.6933 238.244 67.904 238.607 67.232C238.97 66.5493 239.471 66.0213 240.111 65.648C240.762 65.2747 241.503 65.088 242.335 65.088C243.412 65.088 244.298 65.3493 244.991 65.872C245.695 66.3947 246.159 67.12 246.383 68.048H244.815C244.666 67.5147 244.372 67.0933 243.935 66.784C243.508 66.4747 242.975 66.32 242.335 66.32C241.503 66.32 240.831 66.608 240.319 67.184C239.807 67.7493 239.551 68.5547 239.551 69.6C239.551 70.656 239.807 71.472 240.319 72.048C240.831 72.624 241.503 72.912 242.335 72.912C242.975 72.912 243.508 72.7627 243.935 72.464C244.362 72.1653 244.655 71.7387 244.815 71.184H246.383C246.148 72.08 245.679 72.8 244.975 73.344C244.271 73.8773 243.391 74.144 242.335 74.144C241.503 74.144 240.762 73.9573 240.111 73.584C239.471 73.2107 238.97 72.6827 238.607 72C238.244 71.3173 238.063 70.5173 238.063 69.6ZM249.078 63.808C248.8 63.808 248.566 63.712 248.374 63.52C248.182 63.328 248.086 63.0933 248.086 62.816C248.086 62.5387 248.182 62.304 248.374 62.112C248.566 61.92 248.8 61.824 249.078 61.824C249.344 61.824 249.568 61.92 249.75 62.112C249.942 62.304 250.038 62.5387 250.038 62.816C250.038 63.0933 249.942 63.328 249.75 63.52C249.568 63.712 249.344 63.808 249.078 63.808ZM249.782 65.232V74H248.326V65.232H249.782ZM255.985 69.584C255.985 68.688 256.166 67.904 256.529 67.232C256.892 66.5493 257.388 66.0213 258.017 65.648C258.657 65.2747 259.372 65.088 260.161 65.088C260.844 65.088 261.478 65.248 262.065 65.568C262.652 65.8773 263.1 66.288 263.409 66.8V62.16H264.881V74H263.409V72.352C263.121 72.8747 262.694 73.3067 262.129 73.648C261.564 73.9787 260.902 74.144 260.145 74.144C259.366 74.144 258.657 73.952 258.017 73.568C257.388 73.184 256.892 72.6453 256.529 71.952C256.166 71.2587 255.985 70.4693 255.985 69.584ZM263.409 69.6C263.409 68.9387 263.276 68.3627 263.009 67.872C262.742 67.3813 262.38 67.008 261.921 66.752C261.473 66.4853 260.977 66.352 260.433 66.352C259.889 66.352 259.393 66.48 258.945 66.736C258.497 66.992 258.14 67.3653 257.873 67.856C257.606 68.3467 257.473 68.9227 257.473 69.584C257.473 70.256 257.606 70.8427 257.873 71.344C258.14 71.8347 258.497 72.2133 258.945 72.48C259.393 72.736 259.889 72.864 260.433 72.864C260.977 72.864 261.473 72.736 261.921 72.48C262.38 72.2133 262.742 71.8347 263.009 71.344C263.276 70.8427 263.409 70.2613 263.409 69.6ZM275.341 69.28C275.341 69.5573 275.325 69.8507 275.293 70.16H268.285C268.339 71.024 268.632 71.7013 269.165 72.192C269.709 72.672 270.365 72.912 271.133 72.912C271.763 72.912 272.285 72.768 272.701 72.48C273.128 72.1813 273.427 71.7867 273.597 71.296H275.165C274.931 72.1387 274.461 72.8267 273.757 73.36C273.053 73.8827 272.179 74.144 271.133 74.144C270.301 74.144 269.555 73.9573 268.893 73.584C268.243 73.2107 267.731 72.6827 267.357 72C266.984 71.3067 266.797 70.5067 266.797 69.6C266.797 68.6933 266.979 67.8987 267.341 67.216C267.704 66.5333 268.211 66.0107 268.861 65.648C269.523 65.2747 270.28 65.088 271.133 65.088C271.965 65.088 272.701 65.2693 273.341 65.632C273.981 65.9947 274.472 66.496 274.813 67.136C275.165 67.7653 275.341 68.48 275.341 69.28ZM273.837 68.976C273.837 68.4213 273.715 67.9467 273.469 67.552C273.224 67.1467 272.888 66.8427 272.461 66.64C272.045 66.4267 271.581 66.32 271.069 66.32C270.333 66.32 269.704 66.5547 269.181 67.024C268.669 67.4933 268.376 68.144 268.301 68.976H273.837ZM278.719 62.16V74H277.263V62.16H278.719ZM29.336 98.144C28.664 98.144 28.0613 98.032 27.528 97.808C26.9947 97.5733 26.5733 97.2533 26.264 96.848C25.9547 96.432 25.784 95.9573 25.752 95.424H27.256C27.2987 95.8613 27.5013 96.2187 27.864 96.496C28.2373 96.7733 28.7227 96.912 29.32 96.912C29.8747 96.912 30.312 96.7893 30.632 96.544C30.952 96.2987 31.112 95.9893 31.112 95.616C31.112 95.232 30.9413 94.9493 30.6 94.768C30.2587 94.576 29.7307 94.3893 29.016 94.208C28.3653 94.0373 27.832 93.8667 27.416 93.696C27.0107 93.5147 26.6587 93.2533 26.36 92.912C26.072 92.56 25.928 92.1013 25.928 91.536C25.928 91.088 26.0613 90.6773 26.328 90.304C26.5947 89.9307 26.9733 89.6373 27.464 89.424C27.9547 89.2 28.5147 89.088 29.144 89.088C30.1147 89.088 30.8987 89.3333 31.496 89.824C32.0933 90.3147 32.4133 90.9867 32.456 91.84H31C30.968 91.3813 30.7813 91.0133 30.44 90.736C30.1093 90.4587 29.6613 90.32 29.096 90.32C28.5733 90.32 28.1573 90.432 27.848 90.656C27.5387 90.88 27.384 91.1733 27.384 91.536C27.384 91.824 27.4747 92.064 27.656 92.256C27.848 92.4373 28.0827 92.5867 28.36 92.704C28.648 92.8107 29.0427 92.9333 29.544 93.072C30.1733 93.2427 30.6853 93.4133 31.08 93.584C31.4747 93.744 31.8107 93.9893 32.088 94.32C32.376 94.6507 32.5253 95.0827 32.536 95.616C32.536 96.096 32.4027 96.528 32.136 96.912C31.8693 97.296 31.4907 97.6 31 97.824C30.52 98.0373 29.9653 98.144 29.336 98.144ZM38.4154 98.144C37.594 98.144 36.8474 97.9573 36.1754 97.584C35.514 97.2107 34.9914 96.6827 34.6074 96C34.234 95.3067 34.0474 94.5067 34.0474 93.6C34.0474 92.704 34.2394 91.9147 34.6234 91.232C35.018 90.5387 35.5514 90.0107 36.2234 89.648C36.8954 89.2747 37.6474 89.088 38.4794 89.088C39.3114 89.088 40.0634 89.2747 40.7354 89.648C41.4074 90.0107 41.9354 90.5333 42.3194 91.216C42.714 91.8987 42.9114 92.6933 42.9114 93.6C42.9114 94.5067 42.7087 95.3067 42.3034 96C41.9087 96.6827 41.37 97.2107 40.6874 97.584C40.0047 97.9573 39.2474 98.144 38.4154 98.144ZM38.4154 96.864C38.938 96.864 39.4287 96.7413 39.8874 96.496C40.346 96.2507 40.714 95.8827 40.9914 95.392C41.2794 94.9013 41.4234 94.304 41.4234 93.6C41.4234 92.896 41.2847 92.2987 41.0074 91.808C40.73 91.3173 40.3674 90.9547 39.9194 90.72C39.4714 90.4747 38.986 90.352 38.4634 90.352C37.93 90.352 37.4394 90.4747 36.9914 90.72C36.554 90.9547 36.202 91.3173 35.9354 91.808C35.6687 92.2987 35.5354 92.896 35.5354 93.6C35.5354 94.3147 35.6634 94.9173 35.9194 95.408C36.186 95.8987 36.538 96.2667 36.9754 96.512C37.4127 96.7467 37.8927 96.864 38.4154 96.864ZM48.4418 89.088C49.1991 89.088 49.8604 89.2533 50.4258 89.584C51.0018 89.9147 51.4284 90.3307 51.7058 90.832V89.232H53.1778V98.192C53.1778 98.992 53.0071 99.7013 52.6658 100.32C52.3244 100.949 51.8338 101.44 51.1938 101.792C50.5644 102.144 49.8284 102.32 48.9858 102.32C47.8338 102.32 46.8738 102.048 46.1058 101.504C45.3378 100.96 44.8844 100.219 44.7458 99.28H46.1858C46.3458 99.8133 46.6764 100.24 47.1778 100.56C47.6791 100.891 48.2818 101.056 48.9858 101.056C49.7858 101.056 50.4364 100.805 50.9378 100.304C51.4498 99.8027 51.7058 99.0987 51.7058 98.192V96.352C51.4178 96.864 50.9911 97.2907 50.4258 97.632C49.8604 97.9733 49.1991 98.144 48.4418 98.144C47.6631 98.144 46.9538 97.952 46.3138 97.568C45.6844 97.184 45.1884 96.6453 44.8258 95.952C44.4631 95.2587 44.2818 94.4693 44.2818 93.584C44.2818 92.688 44.4631 91.904 44.8258 91.232C45.1884 90.5493 45.6844 90.0213 46.3138 89.648C46.9538 89.2747 47.6631 89.088 48.4418 89.088ZM51.7058 93.6C51.7058 92.9387 51.5724 92.3627 51.3058 91.872C51.0391 91.3813 50.6764 91.008 50.2178 90.752C49.7698 90.4853 49.2738 90.352 48.7298 90.352C48.1858 90.352 47.6898 90.48 47.2418 90.736C46.7938 90.992 46.4364 91.3653 46.1698 91.856C45.9031 92.3467 45.7698 92.9227 45.7698 93.584C45.7698 94.256 45.9031 94.8427 46.1698 95.344C46.4364 95.8347 46.7938 96.2133 47.2418 96.48C47.6898 96.736 48.1858 96.864 48.7298 96.864C49.2738 96.864 49.7698 96.736 50.2178 96.48C50.6764 96.2133 51.0391 95.8347 51.3058 95.344C51.5724 94.8427 51.7058 94.2613 51.7058 93.6ZM59.2543 89.088C60.0116 89.088 60.6729 89.2533 61.2383 89.584C61.8143 89.9147 62.2409 90.3307 62.5183 90.832V89.232H63.9903V98.192C63.9903 98.992 63.8196 99.7013 63.4783 100.32C63.1369 100.949 62.6463 101.44 62.0063 101.792C61.3769 102.144 60.6409 102.32 59.7983 102.32C58.6463 102.32 57.6863 102.048 56.9183 101.504C56.1503 100.96 55.6969 100.219 55.5583 99.28H56.9983C57.1583 99.8133 57.4889 100.24 57.9903 100.56C58.4916 100.891 59.0943 101.056 59.7983 101.056C60.5983 101.056 61.2489 100.805 61.7503 100.304C62.2623 99.8027 62.5183 99.0987 62.5183 98.192V96.352C62.2303 96.864 61.8036 97.2907 61.2383 97.632C60.6729 97.9733 60.0116 98.144 59.2543 98.144C58.4756 98.144 57.7663 97.952 57.1263 97.568C56.4969 97.184 56.0009 96.6453 55.6383 95.952C55.2756 95.2587 55.0943 94.4693 55.0943 93.584C55.0943 92.688 55.2756 91.904 55.6383 91.232C56.0009 90.5493 56.4969 90.0213 57.1263 89.648C57.7663 89.2747 58.4756 89.088 59.2543 89.088ZM62.5183 93.6C62.5183 92.9387 62.3849 92.3627 62.1183 91.872C61.8516 91.3813 61.4889 91.008 61.0303 90.752C60.5823 90.4853 60.0863 90.352 59.5423 90.352C58.9983 90.352 58.5023 90.48 58.0543 90.736C57.6063 90.992 57.2489 91.3653 56.9823 91.856C56.7156 92.3467 56.5823 92.9227 56.5823 93.584C56.5823 94.256 56.7156 94.8427 56.9823 95.344C57.2489 95.8347 57.6063 96.2133 58.0543 96.48C58.5023 96.736 58.9983 96.864 59.5423 96.864C60.0863 96.864 60.5823 96.736 61.0303 96.48C61.4889 96.2133 61.8516 95.8347 62.1183 95.344C62.3849 94.8427 62.5183 94.2613 62.5183 93.6ZM67.2028 87.808C66.9254 87.808 66.6908 87.712 66.4988 87.52C66.3068 87.328 66.2108 87.0933 66.2108 86.816C66.2108 86.5387 66.3068 86.304 66.4988 86.112C66.6908 85.92 66.9254 85.824 67.2028 85.824C67.4694 85.824 67.6934 85.92 67.8748 86.112C68.0668 86.304 68.1628 86.5387 68.1628 86.816C68.1628 87.0933 68.0668 87.328 67.8748 87.52C67.6934 87.712 67.4694 87.808 67.2028 87.808ZM67.9068 89.232V98H66.4508V89.232H67.9068ZM74.2123 98.144C73.3909 98.144 72.6443 97.9573 71.9723 97.584C71.3109 97.2107 70.7883 96.6827 70.4043 96C70.0309 95.3067 69.8443 94.5067 69.8443 93.6C69.8443 92.704 70.0363 91.9147 70.4203 91.232C70.8149 90.5387 71.3483 90.0107 72.0203 89.648C72.6923 89.2747 73.4443 89.088 74.2763 89.088C75.1083 89.088 75.8603 89.2747 76.5323 89.648C77.2043 90.0107 77.7323 90.5333 78.1163 91.216C78.5109 91.8987 78.7083 92.6933 78.7083 93.6C78.7083 94.5067 78.5056 95.3067 78.1003 96C77.7056 96.6827 77.1669 97.2107 76.4843 97.584C75.8016 97.9573 75.0443 98.144 74.2123 98.144ZM74.2123 96.864C74.7349 96.864 75.2256 96.7413 75.6843 96.496C76.1429 96.2507 76.5109 95.8827 76.7883 95.392C77.0763 94.9013 77.2203 94.304 77.2203 93.6C77.2203 92.896 77.0816 92.2987 76.8043 91.808C76.5269 91.3173 76.1643 90.9547 75.7163 90.72C75.2683 90.4747 74.7829 90.352 74.2603 90.352C73.7269 90.352 73.2363 90.4747 72.7883 90.72C72.3509 90.9547 71.9989 91.3173 71.7323 91.808C71.4656 92.2987 71.3323 92.896 71.3323 93.6C71.3323 94.3147 71.4603 94.9173 71.7163 95.408C71.9829 95.8987 72.3349 96.2667 72.7723 96.512C73.2096 96.7467 73.6896 96.864 74.2123 96.864ZM82.0786 90.656C82.3346 90.1547 82.6973 89.7653 83.1666 89.488C83.6466 89.2107 84.228 89.072 84.9106 89.072V90.576H84.5266C82.8946 90.576 82.0786 91.4613 82.0786 93.232V98H80.6226V89.232H82.0786V90.656ZM90.8634 89.072C91.93 89.072 92.794 89.3973 93.4554 90.048C94.1167 90.688 94.4474 91.616 94.4474 92.832V98H93.0074V93.04C93.0074 92.1653 92.7887 91.4987 92.3514 91.04C91.914 90.5707 91.3167 90.336 90.5594 90.336C89.7914 90.336 89.178 90.576 88.7194 91.056C88.2714 91.536 88.0474 92.2347 88.0474 93.152V98H86.5914V89.232H88.0474V90.48C88.3354 90.032 88.7247 89.6853 89.2154 89.44C89.7167 89.1947 90.266 89.072 90.8634 89.072ZM100.65 98.144C99.8284 98.144 99.0818 97.9573 98.4098 97.584C97.7484 97.2107 97.2258 96.6827 96.8418 96C96.4684 95.3067 96.2818 94.5067 96.2818 93.6C96.2818 92.704 96.4738 91.9147 96.8578 91.232C97.2524 90.5387 97.7858 90.0107 98.4578 89.648C99.1298 89.2747 99.8818 89.088 100.714 89.088C101.546 89.088 102.298 89.2747 102.97 89.648C103.642 90.0107 104.17 90.5333 104.554 91.216C104.948 91.8987 105.146 92.6933 105.146 93.6C105.146 94.5067 104.943 95.3067 104.538 96C104.143 96.6827 103.604 97.2107 102.922 97.584C102.239 97.9573 101.482 98.144 100.65 98.144ZM100.65 96.864C101.172 96.864 101.663 96.7413 102.122 96.496C102.58 96.2507 102.948 95.8827 103.226 95.392C103.514 94.9013 103.658 94.304 103.658 93.6C103.658 92.896 103.519 92.2987 103.242 91.808C102.964 91.3173 102.602 90.9547 102.154 90.72C101.706 90.4747 101.22 90.352 100.698 90.352C100.164 90.352 99.6738 90.4747 99.2258 90.72C98.7884 90.9547 98.4364 91.3173 98.1698 91.808C97.9031 92.2987 97.7698 92.896 97.7698 93.6C97.7698 94.3147 97.8978 94.9173 98.1538 95.408C98.4204 95.8987 98.7724 96.2667 99.2098 96.512C99.6471 96.7467 100.127 96.864 100.65 96.864ZM119.326 93.28C119.326 93.5573 119.31 93.8507 119.278 94.16H112.27C112.323 95.024 112.616 95.7013 113.15 96.192C113.694 96.672 114.35 96.912 115.118 96.912C115.747 96.912 116.27 96.768 116.686 96.48C117.112 96.1813 117.411 95.7867 117.582 95.296H119.15C118.915 96.1387 118.446 96.8267 117.742 97.36C117.038 97.8827 116.163 98.144 115.118 98.144C114.286 98.144 113.539 97.9573 112.878 97.584C112.227 97.2107 111.715 96.6827 111.342 96C110.968 95.3067 110.782 94.5067 110.782 93.6C110.782 92.6933 110.963 91.8987 111.326 91.216C111.688 90.5333 112.195 90.0107 112.846 89.648C113.507 89.2747 114.264 89.088 115.118 89.088C115.95 89.088 116.686 89.2693 117.326 89.632C117.966 89.9947 118.456 90.496 118.798 91.136C119.15 91.7653 119.326 92.48 119.326 93.28ZM117.822 92.976C117.822 92.4213 117.699 91.9467 117.454 91.552C117.208 91.1467 116.872 90.8427 116.446 90.64C116.03 90.4267 115.566 90.32 115.054 90.32C114.318 90.32 113.688 90.5547 113.166 91.024C112.654 91.4933 112.36 92.144 112.286 92.976H117.822ZM126.969 90.656C127.225 90.1547 127.588 89.7653 128.057 89.488C128.537 89.2107 129.119 89.072 129.801 89.072V90.576H129.417C127.785 90.576 126.969 91.4613 126.969 93.232V98H125.513V89.232H126.969V90.656ZM139.482 93.28C139.482 93.5573 139.466 93.8507 139.434 94.16H132.426C132.479 95.024 132.773 95.7013 133.306 96.192C133.85 96.672 134.506 96.912 135.274 96.912C135.903 96.912 136.426 96.768 136.842 96.48C137.269 96.1813 137.567 95.7867 137.738 95.296H139.306C139.071 96.1387 138.602 96.8267 137.898 97.36C137.194 97.8827 136.319 98.144 135.274 98.144C134.442 98.144 133.695 97.9573 133.034 97.584C132.383 97.2107 131.871 96.6827 131.498 96C131.125 95.3067 130.938 94.5067 130.938 93.6C130.938 92.6933 131.119 91.8987 131.482 91.216C131.845 90.5333 132.351 90.0107 133.002 89.648C133.663 89.2747 134.421 89.088 135.274 89.088C136.106 89.088 136.842 89.2693 137.482 89.632C138.122 89.9947 138.613 90.496 138.954 91.136C139.306 91.7653 139.482 92.48 139.482 93.28ZM137.978 92.976C137.978 92.4213 137.855 91.9467 137.61 91.552C137.365 91.1467 137.029 90.8427 136.602 90.64C136.186 90.4267 135.722 90.32 135.21 90.32C134.474 90.32 133.845 90.5547 133.322 91.024C132.81 91.4933 132.517 92.144 132.442 92.976H137.978ZM145.02 89.088C145.777 89.088 146.439 89.2533 147.004 89.584C147.58 89.9147 148.007 90.3307 148.284 90.832V89.232H149.756V98.192C149.756 98.992 149.585 99.7013 149.244 100.32C148.903 100.949 148.412 101.44 147.772 101.792C147.143 102.144 146.407 102.32 145.564 102.32C144.412 102.32 143.452 102.048 142.684 101.504C141.916 100.96 141.463 100.219 141.324 99.28H142.764C142.924 99.8133 143.255 100.24 143.756 100.56C144.257 100.891 144.86 101.056 145.564 101.056C146.364 101.056 147.015 100.805 147.516 100.304C148.028 99.8027 148.284 99.0987 148.284 98.192V96.352C147.996 96.864 147.569 97.2907 147.004 97.632C146.439 97.9733 145.777 98.144 145.02 98.144C144.241 98.144 143.532 97.952 142.892 97.568C142.263 97.184 141.767 96.6453 141.404 95.952C141.041 95.2587 140.86 94.4693 140.86 93.584C140.86 92.688 141.041 91.904 141.404 91.232C141.767 90.5493 142.263 90.0213 142.892 89.648C143.532 89.2747 144.241 89.088 145.02 89.088ZM148.284 93.6C148.284 92.9387 148.151 92.3627 147.884 91.872C147.617 91.3813 147.255 91.008 146.796 90.752C146.348 90.4853 145.852 90.352 145.308 90.352C144.764 90.352 144.268 90.48 143.82 90.736C143.372 90.992 143.015 91.3653 142.748 91.856C142.481 92.3467 142.348 92.9227 142.348 93.584C142.348 94.256 142.481 94.8427 142.748 95.344C143.015 95.8347 143.372 96.2133 143.82 96.48C144.268 96.736 144.764 96.864 145.308 96.864C145.852 96.864 146.348 96.736 146.796 96.48C147.255 96.2133 147.617 95.8347 147.884 95.344C148.151 94.8427 148.284 94.2613 148.284 93.6ZM156.04 98.144C155.219 98.144 154.472 97.9573 153.8 97.584C153.139 97.2107 152.616 96.6827 152.232 96C151.859 95.3067 151.672 94.5067 151.672 93.6C151.672 92.704 151.864 91.9147 152.248 91.232C152.643 90.5387 153.176 90.0107 153.848 89.648C154.52 89.2747 155.272 89.088 156.104 89.088C156.936 89.088 157.688 89.2747 158.36 89.648C159.032 90.0107 159.56 90.5333 159.944 91.216C160.339 91.8987 160.536 92.6933 160.536 93.6C160.536 94.5067 160.334 95.3067 159.928 96C159.534 96.6827 158.995 97.2107 158.312 97.584C157.63 97.9573 156.872 98.144 156.04 98.144ZM156.04 96.864C156.563 96.864 157.054 96.7413 157.512 96.496C157.971 96.2507 158.339 95.8827 158.616 95.392C158.904 94.9013 159.048 94.304 159.048 93.6C159.048 92.896 158.91 92.2987 158.632 91.808C158.355 91.3173 157.992 90.9547 157.544 90.72C157.096 90.4747 156.611 90.352 156.088 90.352C155.555 90.352 155.064 90.4747 154.616 90.72C154.179 90.9547 153.827 91.3173 153.56 91.808C153.294 92.2987 153.16 92.896 153.16 93.6C153.16 94.3147 153.288 94.9173 153.544 95.408C153.811 95.8987 154.163 96.2667 154.6 96.512C155.038 96.7467 155.518 96.864 156.04 96.864ZM163.907 86.16V98H162.451V86.16H163.907ZM167.14 87.808C166.863 87.808 166.628 87.712 166.436 87.52C166.244 87.328 166.148 87.0933 166.148 86.816C166.148 86.5387 166.244 86.304 166.436 86.112C166.628 85.92 166.863 85.824 167.14 85.824C167.407 85.824 167.631 85.92 167.812 86.112C168.004 86.304 168.1 86.5387 168.1 86.816C168.1 87.0933 168.004 87.328 167.812 87.52C167.631 87.712 167.407 87.808 167.14 87.808ZM167.844 89.232V98H166.388V89.232H167.844ZM175.343 87.808C175.066 87.808 174.831 87.712 174.639 87.52C174.447 87.328 174.351 87.0933 174.351 86.816C174.351 86.5387 174.447 86.304 174.639 86.112C174.831 85.92 175.066 85.824 175.343 85.824C175.61 85.824 175.834 85.92 176.015 86.112C176.207 86.304 176.303 86.5387 176.303 86.816C176.303 87.0933 176.207 87.328 176.015 87.52C175.834 87.712 175.61 87.808 175.343 87.808ZM176.047 89.232V98H174.591V89.232H176.047ZM179.985 86.16V98H178.529V86.16H179.985ZM188.188 90.656C188.444 90.1547 188.807 89.7653 189.276 89.488C189.756 89.2107 190.337 89.072 191.02 89.072V90.576H190.636C189.004 90.576 188.188 91.4613 188.188 93.232V98H186.732V89.232H188.188V90.656ZM193.453 87.808C193.175 87.808 192.941 87.712 192.749 87.52C192.557 87.328 192.461 87.0933 192.461 86.816C192.461 86.5387 192.557 86.304 192.749 86.112C192.941 85.92 193.175 85.824 193.453 85.824C193.719 85.824 193.943 85.92 194.125 86.112C194.317 86.304 194.413 86.5387 194.413 86.816C194.413 87.0933 194.317 87.328 194.125 87.52C193.943 87.712 193.719 87.808 193.453 87.808ZM194.157 89.232V98H192.701V89.232H194.157ZM199.742 98.144C199.07 98.144 198.468 98.032 197.934 97.808C197.401 97.5733 196.98 97.2533 196.67 96.848C196.361 96.432 196.19 95.9573 196.158 95.424H197.662C197.705 95.8613 197.908 96.2187 198.27 96.496C198.644 96.7733 199.129 96.912 199.726 96.912C200.281 96.912 200.718 96.7893 201.038 96.544C201.358 96.2987 201.518 95.9893 201.518 95.616C201.518 95.232 201.348 94.9493 201.006 94.768C200.665 94.576 200.137 94.3893 199.422 94.208C198.772 94.0373 198.238 93.8667 197.822 93.696C197.417 93.5147 197.065 93.2533 196.766 92.912C196.478 92.56 196.334 92.1013 196.334 91.536C196.334 91.088 196.468 90.6773 196.734 90.304C197.001 89.9307 197.38 89.6373 197.87 89.424C198.361 89.2 198.921 89.088 199.55 89.088C200.521 89.088 201.305 89.3333 201.902 89.824C202.5 90.3147 202.82 90.9867 202.862 91.84H201.406C201.374 91.3813 201.188 91.0133 200.846 90.736C200.516 90.4587 200.068 90.32 199.502 90.32C198.98 90.32 198.564 90.432 198.254 90.656C197.945 90.88 197.79 91.1733 197.79 91.536C197.79 91.824 197.881 92.064 198.062 92.256C198.254 92.4373 198.489 92.5867 198.766 92.704C199.054 92.8107 199.449 92.9333 199.95 93.072C200.58 93.2427 201.092 93.4133 201.486 93.584C201.881 93.744 202.217 93.9893 202.494 94.32C202.782 94.6507 202.932 95.0827 202.942 95.616C202.942 96.096 202.809 96.528 202.542 96.912C202.276 97.296 201.897 97.6 201.406 97.824C200.926 98.0373 200.372 98.144 199.742 98.144ZM204.454 93.6C204.454 92.6933 204.635 91.904 204.998 91.232C205.36 90.5493 205.862 90.0213 206.502 89.648C207.152 89.2747 207.894 89.088 208.726 89.088C209.803 89.088 210.688 89.3493 211.382 89.872C212.086 90.3947 212.55 91.12 212.774 92.048H211.206C211.056 91.5147 210.763 91.0933 210.326 90.784C209.899 90.4747 209.366 90.32 208.726 90.32C207.894 90.32 207.222 90.608 206.71 91.184C206.198 91.7493 205.942 92.5547 205.942 93.6C205.942 94.656 206.198 95.472 206.71 96.048C207.222 96.624 207.894 96.912 208.726 96.912C209.366 96.912 209.899 96.7627 210.326 96.464C210.752 96.1653 211.046 95.7387 211.206 95.184H212.774C212.539 96.08 212.07 96.8 211.366 97.344C210.662 97.8773 209.782 98.144 208.726 98.144C207.894 98.144 207.152 97.9573 206.502 97.584C205.862 97.2107 205.36 96.6827 204.998 96C204.635 95.3173 204.454 94.5173 204.454 93.6ZM214.172 93.584C214.172 92.688 214.354 91.904 214.716 91.232C215.079 90.5493 215.575 90.0213 216.204 89.648C216.844 89.2747 217.554 89.088 218.332 89.088C219.1 89.088 219.767 89.2533 220.332 89.584C220.898 89.9147 221.319 90.3307 221.596 90.832V89.232H223.068V98H221.596V96.368C221.308 96.88 220.876 97.3067 220.3 97.648C219.735 97.9787 219.074 98.144 218.316 98.144C217.538 98.144 216.834 97.952 216.204 97.568C215.575 97.184 215.079 96.6453 214.716 95.952C214.354 95.2587 214.172 94.4693 214.172 93.584ZM221.596 93.6C221.596 92.9387 221.463 92.3627 221.196 91.872C220.93 91.3813 220.567 91.008 220.108 90.752C219.66 90.4853 219.164 90.352 218.62 90.352C218.076 90.352 217.58 90.48 217.132 90.736C216.684 90.992 216.327 91.3653 216.06 91.856C215.794 92.3467 215.66 92.9227 215.66 93.584C215.66 94.256 215.794 94.8427 216.06 95.344C216.327 95.8347 216.684 96.2133 217.132 96.48C217.58 96.736 218.076 96.864 218.62 96.864C219.164 96.864 219.66 96.736 220.108 96.48C220.567 96.2133 220.93 95.8347 221.196 95.344C221.463 94.8427 221.596 94.2613 221.596 93.6ZM226.985 86.16V98H225.529V86.16H226.985ZM228.922 93.584C228.922 92.688 229.104 91.904 229.466 91.232C229.829 90.5493 230.325 90.0213 230.954 89.648C231.594 89.2747 232.309 89.088 233.098 89.088C233.781 89.088 234.416 89.248 235.002 89.568C235.589 89.8773 236.037 90.288 236.346 90.8V86.16H237.818V98H236.346V96.352C236.058 96.8747 235.632 97.3067 235.066 97.648C234.501 97.9787 233.84 98.144 233.082 98.144C232.304 98.144 231.594 97.952 230.954 97.568C230.325 97.184 229.829 96.6453 229.466 95.952C229.104 95.2587 228.922 94.4693 228.922 93.584ZM236.346 93.6C236.346 92.9387 236.213 92.3627 235.946 91.872C235.68 91.3813 235.317 91.008 234.858 90.752C234.41 90.4853 233.914 90.352 233.37 90.352C232.826 90.352 232.33 90.48 231.882 90.736C231.434 90.992 231.077 91.3653 230.81 91.856C230.544 92.3467 230.41 92.9227 230.41 93.584C230.41 94.256 230.544 94.8427 230.81 95.344C231.077 95.8347 231.434 96.2133 231.882 96.48C232.33 96.736 232.826 96.864 233.37 96.864C233.914 96.864 234.41 96.736 234.858 96.48C235.317 96.2133 235.68 95.8347 235.946 95.344C236.213 94.8427 236.346 94.2613 236.346 93.6ZM239.735 93.584C239.735 92.688 239.916 91.904 240.279 91.232C240.642 90.5493 241.138 90.0213 241.767 89.648C242.407 89.2747 243.116 89.088 243.895 89.088C244.663 89.088 245.33 89.2533 245.895 89.584C246.46 89.9147 246.882 90.3307 247.159 90.832V89.232H248.631V98H247.159V96.368C246.871 96.88 246.439 97.3067 245.863 97.648C245.298 97.9787 244.636 98.144 243.879 98.144C243.1 98.144 242.396 97.952 241.767 97.568C241.138 97.184 240.642 96.6453 240.279 95.952C239.916 95.2587 239.735 94.4693 239.735 93.584ZM247.159 93.6C247.159 92.9387 247.026 92.3627 246.759 91.872C246.492 91.3813 246.13 91.008 245.671 90.752C245.223 90.4853 244.727 90.352 244.183 90.352C243.639 90.352 243.143 90.48 242.695 90.736C242.247 90.992 241.89 91.3653 241.623 91.856C241.356 92.3467 241.223 92.9227 241.223 93.584C241.223 94.256 241.356 94.8427 241.623 95.344C241.89 95.8347 242.247 96.2133 242.695 96.48C243.143 96.736 243.639 96.864 244.183 96.864C244.727 96.864 245.223 96.736 245.671 96.48C246.13 96.2133 246.492 95.8347 246.759 95.344C247.026 94.8427 247.159 94.2613 247.159 93.6ZM261.635 89.072C262.318 89.072 262.926 89.216 263.459 89.504C263.993 89.7813 264.414 90.2027 264.723 90.768C265.033 91.3333 265.187 92.0213 265.187 92.832V98H263.747V93.04C263.747 92.1653 263.529 91.4987 263.091 91.04C262.665 90.5707 262.083 90.336 261.347 90.336C260.59 90.336 259.987 90.5813 259.539 91.072C259.091 91.552 258.867 92.2507 258.867 93.168V98H257.427V93.04C257.427 92.1653 257.209 91.4987 256.771 91.04C256.345 90.5707 255.763 90.336 255.027 90.336C254.27 90.336 253.667 90.5813 253.219 91.072C252.771 91.552 252.547 92.2507 252.547 93.168V98H251.091V89.232H252.547V90.496C252.835 90.0373 253.219 89.6853 253.699 89.44C254.19 89.1947 254.729 89.072 255.315 89.072C256.051 89.072 256.702 89.2373 257.267 89.568C257.833 89.8987 258.254 90.384 258.531 91.024C258.777 90.4053 259.182 89.9253 259.747 89.584C260.313 89.2427 260.942 89.072 261.635 89.072ZM275.576 93.28C275.576 93.5573 275.56 93.8507 275.528 94.16H268.52C268.573 95.024 268.866 95.7013 269.4 96.192C269.944 96.672 270.6 96.912 271.368 96.912C271.997 96.912 272.52 96.768 272.936 96.48C273.362 96.1813 273.661 95.7867 273.832 95.296H275.4C275.165 96.1387 274.696 96.8267 273.992 97.36C273.288 97.8827 272.413 98.144 271.368 98.144C270.536 98.144 269.789 97.9573 269.128 97.584C268.477 97.2107 267.965 96.6827 267.592 96C267.218 95.3067 267.032 94.5067 267.032 93.6C267.032 92.6933 267.213 91.8987 267.576 91.216C267.938 90.5333 268.445 90.0107 269.096 89.648C269.757 89.2747 270.514 89.088 271.368 89.088C272.2 89.088 272.936 89.2693 273.576 89.632C274.216 89.9947 274.706 90.496 275.048 91.136C275.4 91.7653 275.576 92.48 275.576 93.28ZM274.072 92.976C274.072 92.4213 273.949 91.9467 273.704 91.552C273.458 91.1467 273.122 90.8427 272.696 90.64C272.28 90.4267 271.816 90.32 271.304 90.32C270.568 90.32 269.938 90.5547 269.416 91.024C268.904 91.4933 268.61 92.144 268.536 92.976H274.072ZM281.77 89.072C282.836 89.072 283.7 89.3973 284.362 90.048C285.023 90.688 285.354 91.616 285.354 92.832V98H283.914V93.04C283.914 92.1653 283.695 91.4987 283.258 91.04C282.82 90.5707 282.223 90.336 281.466 90.336C280.698 90.336 280.084 90.576 279.626 91.056C279.178 91.536 278.954 92.2347 278.954 93.152V98H277.498V89.232H278.954V90.48C279.242 90.032 279.631 89.6853 280.122 89.44C280.623 89.1947 281.172 89.072 281.77 89.072ZM289.508 90.432V95.6C289.508 96.0267 289.599 96.3307 289.78 96.512C289.961 96.6827 290.276 96.768 290.724 96.768H291.796V98H290.484C289.673 98 289.065 97.8133 288.66 97.44C288.255 97.0667 288.052 96.4533 288.052 95.6V90.432H286.916V89.232H288.052V87.024H289.508V89.232H291.796V90.432H289.508ZM297.384 98.144C296.563 98.144 295.816 97.9573 295.144 97.584C294.483 97.2107 293.96 96.6827 293.576 96C293.203 95.3067 293.016 94.5067 293.016 93.6C293.016 92.704 293.208 91.9147 293.592 91.232C293.987 90.5387 294.52 90.0107 295.192 89.648C295.864 89.2747 296.616 89.088 297.448 89.088C298.28 89.088 299.032 89.2747 299.704 89.648C300.376 90.0107 300.904 90.5333 301.288 91.216C301.683 91.8987 301.88 92.6933 301.88 93.6C301.88 94.5067 301.677 95.3067 301.272 96C300.877 96.6827 300.339 97.2107 299.656 97.584C298.973 97.9573 298.216 98.144 297.384 98.144ZM297.384 96.864C297.907 96.864 298.397 96.7413 298.856 96.496C299.315 96.2507 299.683 95.8827 299.96 95.392C300.248 94.9013 300.392 94.304 300.392 93.6C300.392 92.896 300.253 92.2987 299.976 91.808C299.699 91.3173 299.336 90.9547 298.888 90.72C298.44 90.4747 297.955 90.352 297.432 90.352C296.899 90.352 296.408 90.4747 295.96 90.72C295.523 90.9547 295.171 91.3173 294.904 91.808C294.637 92.2987 294.504 92.896 294.504 93.6C294.504 94.3147 294.632 94.9173 294.888 95.408C295.155 95.8987 295.507 96.2667 295.944 96.512C296.381 96.7467 296.861 96.864 297.384 96.864ZM304.259 98.096C303.981 98.096 303.747 98 303.555 97.808C303.363 97.616 303.267 97.3813 303.267 97.104C303.267 96.8267 303.363 96.592 303.555 96.4C303.747 96.208 303.981 96.112 304.259 96.112C304.525 96.112 304.749 96.208 304.931 96.4C305.123 96.592 305.219 96.8267 305.219 97.104C305.219 97.3813 305.123 97.616 304.931 97.808C304.749 98 304.525 98.096 304.259 98.096Z" fill="white"/>
<path d="M33.946 135.606H28.942L28.114 138H25.468L29.986 125.418H32.92L37.438 138H34.774L33.946 135.606ZM33.262 133.59L31.444 128.334L29.626 133.59H33.262ZM38.4788 133.014C38.4788 131.982 38.6888 131.082 39.1088 130.314C39.5288 129.534 40.1108 128.934 40.8548 128.514C41.5988 128.082 42.4508 127.866 43.4108 127.866C44.6468 127.866 45.6668 128.178 46.4708 128.802C47.2868 129.414 47.8328 130.278 48.1088 131.394H45.3908C45.2468 130.962 45.0008 130.626 44.6528 130.386C44.3168 130.134 43.8968 130.008 43.3928 130.008C42.6728 130.008 42.1028 130.272 41.6828 130.8C41.2628 131.316 41.0528 132.054 41.0528 133.014C41.0528 133.962 41.2628 134.7 41.6828 135.228C42.1028 135.744 42.6728 136.002 43.3928 136.002C44.4128 136.002 45.0788 135.546 45.3908 134.634H48.1088C47.8328 135.714 47.2868 136.572 46.4708 137.208C45.6548 137.844 44.6348 138.162 43.4108 138.162C42.4508 138.162 41.5988 137.952 40.8548 137.532C40.1108 137.1 39.5288 136.5 39.1088 135.732C38.6888 134.952 38.4788 134.046 38.4788 133.014ZM49.3069 133.014C49.3069 131.982 49.5169 131.082 49.9369 130.314C50.3569 129.534 50.9389 128.934 51.6829 128.514C52.4269 128.082 53.2789 127.866 54.2389 127.866C55.4749 127.866 56.4949 128.178 57.2989 128.802C58.1149 129.414 58.6609 130.278 58.9369 131.394H56.2189C56.0749 130.962 55.8289 130.626 55.4809 130.386C55.1449 130.134 54.7249 130.008 54.2209 130.008C53.5009 130.008 52.9309 130.272 52.5109 130.8C52.0909 131.316 51.8809 132.054 51.8809 133.014C51.8809 133.962 52.0909 134.7 52.5109 135.228C52.9309 135.744 53.5009 136.002 54.2209 136.002C55.2409 136.002 55.9069 135.546 56.2189 134.634H58.9369C58.6609 135.714 58.1149 136.572 57.2989 137.208C56.4829 137.844 55.4629 138.162 54.2389 138.162C53.2789 138.162 52.4269 137.952 51.6829 137.532C50.9389 137.1 50.3569 136.5 49.9369 135.732C49.5169 134.952 49.3069 134.046 49.3069 133.014ZM70.053 132.798C70.053 133.158 70.029 133.482 69.981 133.77H62.691C62.751 134.49 63.003 135.054 63.447 135.462C63.891 135.87 64.437 136.074 65.085 136.074C66.021 136.074 66.687 135.672 67.083 134.868H69.801C69.513 135.828 68.961 136.62 68.145 137.244C67.329 137.856 66.327 138.162 65.139 138.162C64.179 138.162 63.315 137.952 62.547 137.532C61.791 137.1 61.197 136.494 60.765 135.714C60.345 134.934 60.135 134.034 60.135 133.014C60.135 131.982 60.345 131.076 60.765 130.296C61.185 129.516 61.773 128.916 62.529 128.496C63.285 128.076 64.155 127.866 65.139 127.866C66.087 127.866 66.933 128.07 67.677 128.478C68.433 128.886 69.015 129.468 69.423 130.224C69.843 130.968 70.053 131.826 70.053 132.798ZM67.443 132.078C67.431 131.43 67.197 130.914 66.741 130.53C66.285 130.134 65.727 129.936 65.067 129.936C64.443 129.936 63.915 130.128 63.483 130.512C63.063 130.884 62.805 131.406 62.709 132.078H67.443ZM77.4184 127.884C78.6064 127.884 79.5664 128.262 80.2984 129.018C81.0304 129.762 81.3964 130.806 81.3964 132.15V138H78.8764V132.492C78.8764 131.7 78.6784 131.094 78.2824 130.674C77.8864 130.242 77.3464 130.026 76.6624 130.026C75.9664 130.026 75.4144 130.242 75.0064 130.674C74.6104 131.094 74.4124 131.7 74.4124 132.492V138H71.8924V128.028H74.4124V129.27C74.7484 128.838 75.1744 128.502 75.6904 128.262C76.2184 128.01 76.7944 127.884 77.4184 127.884ZM83.1448 132.978C83.1448 131.97 83.3428 131.076 83.7388 130.296C84.1468 129.516 84.6988 128.916 85.3948 128.496C86.0908 128.076 86.8648 127.866 87.7168 127.866C88.3648 127.866 88.9828 128.01 89.5708 128.298C90.1588 128.574 90.6268 128.946 90.9748 129.414V124.68H93.5308V138H90.9748V136.524C90.6628 137.016 90.2248 137.412 89.6608 137.712C89.0968 138.012 88.4428 138.162 87.6988 138.162C86.8588 138.162 86.0908 137.946 85.3948 137.514C84.6988 137.082 84.1468 136.476 83.7388 135.696C83.3428 134.904 83.1448 133.998 83.1448 132.978ZM90.9928 133.014C90.9928 132.402 90.8728 131.88 90.6328 131.448C90.3928 131.004 90.0688 130.668 89.6608 130.44C89.2528 130.2 88.8148 130.08 88.3468 130.08C87.8788 130.08 87.4468 130.194 87.0508 130.422C86.6548 130.65 86.3308 130.986 86.0788 131.43C85.8388 131.862 85.7188 132.378 85.7188 132.978C85.7188 133.578 85.8388 134.106 86.0788 134.562C86.3308 135.006 86.6548 135.348 87.0508 135.588C87.4588 135.828 87.8908 135.948 88.3468 135.948C88.8148 135.948 89.2528 135.834 89.6608 135.606C90.0688 135.366 90.3928 135.03 90.6328 134.598C90.8728 134.154 90.9928 133.626 90.9928 133.014ZM100.42 138.162C99.46 138.162 98.596 137.952 97.828 137.532C97.06 137.1 96.454 136.494 96.01 135.714C95.578 134.934 95.362 134.034 95.362 133.014C95.362 131.994 95.584 131.094 96.028 130.314C96.484 129.534 97.102 128.934 97.882 128.514C98.662 128.082 99.532 127.866 100.492 127.866C101.452 127.866 102.322 128.082 103.102 128.514C103.882 128.934 104.494 129.534 104.938 130.314C105.394 131.094 105.622 131.994 105.622 133.014C105.622 134.034 105.388 134.934 104.92 135.714C104.464 136.494 103.84 137.1 103.048 137.532C102.268 137.952 101.392 138.162 100.42 138.162ZM100.42 135.966C100.876 135.966 101.302 135.858 101.698 135.642C102.106 135.414 102.43 135.078 102.67 134.634C102.91 134.19 103.03 133.65 103.03 133.014C103.03 132.066 102.778 131.34 102.274 130.836C101.782 130.32 101.176 130.062 100.456 130.062C99.736 130.062 99.13 130.32 98.638 130.836C98.158 131.34 97.918 132.066 97.918 133.014C97.918 133.962 98.152 134.694 98.62 135.21C99.1 135.714 99.7 135.966 100.42 135.966ZM114.28 124.68V138H111.76V124.68H114.28ZM126.039 132.798C126.039 133.158 126.015 133.482 125.967 133.77H118.677C118.737 134.49 118.989 135.054 119.433 135.462C119.877 135.87 120.423 136.074 121.071 136.074C122.007 136.074 122.673 135.672 123.069 134.868H125.787C125.499 135.828 124.947 136.62 124.131 137.244C123.315 137.856 122.313 138.162 121.125 138.162C120.165 138.162 119.301 137.952 118.533 137.532C117.777 137.1 117.183 136.494 116.751 135.714C116.331 134.934 116.121 134.034 116.121 133.014C116.121 131.982 116.331 131.076 116.751 130.296C117.171 129.516 117.759 128.916 118.515 128.496C119.271 128.076 120.141 127.866 121.125 127.866C122.073 127.866 122.919 128.07 123.663 128.478C124.419 128.886 125.001 129.468 125.409 130.224C125.829 130.968 126.039 131.826 126.039 132.798ZM123.429 132.078C123.417 131.43 123.183 130.914 122.727 130.53C122.271 130.134 121.713 129.936 121.053 129.936C120.429 129.936 119.901 130.128 119.469 130.512C119.049 130.884 118.791 131.406 118.695 132.078H123.429ZM134.688 124.68V138H132.168V124.68H134.688ZM146.592 128.028V138H144.054V136.74C143.73 137.172 143.304 137.514 142.776 137.766C142.26 138.006 141.696 138.126 141.084 138.126C140.304 138.126 139.614 137.964 139.014 137.64C138.414 137.304 137.94 136.818 137.592 136.182C137.256 135.534 137.088 134.766 137.088 133.878V128.028H139.608V133.518C139.608 134.31 139.806 134.922 140.202 135.354C140.598 135.774 141.138 135.984 141.822 135.984C142.518 135.984 143.064 135.774 143.46 135.354C143.856 134.922 144.054 134.31 144.054 133.518V128.028H146.592ZM148.43 133.014C148.43 131.982 148.64 131.082 149.06 130.314C149.48 129.534 150.062 128.934 150.806 128.514C151.55 128.082 152.402 127.866 153.362 127.866C154.598 127.866 155.618 128.178 156.422 128.802C157.238 129.414 157.784 130.278 158.06 131.394H155.342C155.198 130.962 154.952 130.626 154.604 130.386C154.268 130.134 153.848 130.008 153.344 130.008C152.624 130.008 152.054 130.272 151.634 130.8C151.214 131.316 151.004 132.054 151.004 133.014C151.004 133.962 151.214 134.7 151.634 135.228C152.054 135.744 152.624 136.002 153.344 136.002C154.364 136.002 155.03 135.546 155.342 134.634H158.06C157.784 135.714 157.238 136.572 156.422 137.208C155.606 137.844 154.586 138.162 153.362 138.162C152.402 138.162 151.55 137.952 150.806 137.532C150.062 137.1 149.48 136.5 149.06 135.732C148.64 134.952 148.43 134.046 148.43 133.014ZM161.184 126.84C160.74 126.84 160.368 126.702 160.068 126.426C159.78 126.138 159.636 125.784 159.636 125.364C159.636 124.944 159.78 124.596 160.068 124.32C160.368 124.032 160.74 123.888 161.184 123.888C161.628 123.888 161.994 124.032 162.282 124.32C162.582 124.596 162.732 124.944 162.732 125.364C162.732 125.784 162.582 126.138 162.282 126.426C161.994 126.702 161.628 126.84 161.184 126.84ZM162.426 128.028V138H159.906V128.028H162.426ZM178.475 132.798C178.475 133.158 178.451 133.482 178.403 133.77H171.113C171.173 134.49 171.425 135.054 171.869 135.462C172.313 135.87 172.859 136.074 173.507 136.074C174.443 136.074 175.109 135.672 175.505 134.868H178.223C177.935 135.828 177.383 136.62 176.567 137.244C175.751 137.856 174.749 138.162 173.561 138.162C172.601 138.162 171.737 137.952 170.969 137.532C170.213 137.1 169.619 136.494 169.187 135.714C168.767 134.934 168.557 134.034 168.557 133.014C168.557 131.982 168.767 131.076 169.187 130.296C169.607 129.516 170.195 128.916 170.951 128.496C171.707 128.076 172.577 127.866 173.561 127.866C174.509 127.866 175.355 128.07 176.099 128.478C176.855 128.886 177.437 129.468 177.845 130.224C178.265 130.968 178.475 131.826 178.475 132.798ZM175.865 132.078C175.853 131.43 175.619 130.914 175.163 130.53C174.707 130.134 174.149 129.936 173.489 129.936C172.865 129.936 172.337 130.128 171.905 130.512C171.485 130.884 171.227 131.406 171.131 132.078H175.865ZM187.123 129.576C187.447 129.048 187.867 128.634 188.383 128.334C188.911 128.034 189.511 127.884 190.183 127.884V130.53H189.517C188.725 130.53 188.125 130.716 187.717 131.088C187.321 131.46 187.123 132.108 187.123 133.032V138H184.603V128.028H187.123V129.576ZM201.151 132.798C201.151 133.158 201.127 133.482 201.079 133.77H193.789C193.849 134.49 194.101 135.054 194.545 135.462C194.989 135.87 195.535 136.074 196.183 136.074C197.119 136.074 197.785 135.672 198.181 134.868H200.899C200.611 135.828 200.059 136.62 199.243 137.244C198.427 137.856 197.425 138.162 196.237 138.162C195.277 138.162 194.413 137.952 193.645 137.532C192.889 137.1 192.295 136.494 191.863 135.714C191.443 134.934 191.233 134.034 191.233 133.014C191.233 131.982 191.443 131.076 191.863 130.296C192.283 129.516 192.871 128.916 193.627 128.496C194.383 128.076 195.253 127.866 196.237 127.866C197.185 127.866 198.031 128.07 198.775 128.478C199.531 128.886 200.113 129.468 200.521 130.224C200.941 130.968 201.151 131.826 201.151 132.798ZM198.541 132.078C198.529 131.43 198.295 130.914 197.839 130.53C197.383 130.134 196.825 129.936 196.165 129.936C195.541 129.936 195.013 130.128 194.581 130.512C194.161 130.884 193.903 131.406 193.807 132.078H198.541ZM206.896 127.866C207.64 127.866 208.294 128.016 208.858 128.316C209.422 128.604 209.866 128.982 210.19 129.45V128.028H212.728V138.072C212.728 138.996 212.542 139.818 212.17 140.538C211.798 141.27 211.24 141.846 210.496 142.266C209.752 142.698 208.852 142.914 207.796 142.914C206.38 142.914 205.216 142.584 204.304 141.924C203.404 141.264 202.894 140.364 202.774 139.224H205.276C205.408 139.68 205.69 140.04 206.122 140.304C206.566 140.58 207.1 140.718 207.724 140.718C208.456 140.718 209.05 140.496 209.506 140.052C209.962 139.62 210.19 138.96 210.19 138.072V136.524C209.866 136.992 209.416 137.382 208.84 137.694C208.276 138.006 207.628 138.162 206.896 138.162C206.056 138.162 205.288 137.946 204.592 137.514C203.896 137.082 203.344 136.476 202.936 135.696C202.54 134.904 202.342 133.998 202.342 132.978C202.342 131.97 202.54 131.076 202.936 130.296C203.344 129.516 203.89 128.916 204.574 128.496C205.27 128.076 206.044 127.866 206.896 127.866ZM210.19 133.014C210.19 132.402 210.07 131.88 209.83 131.448C209.59 131.004 209.266 130.668 208.858 130.44C208.45 130.2 208.012 130.08 207.544 130.08C207.076 130.08 206.644 130.194 206.248 130.422C205.852 130.65 205.528 130.986 205.276 131.43C205.036 131.862 204.916 132.378 204.916 132.978C204.916 133.578 205.036 134.106 205.276 134.562C205.528 135.006 205.852 135.348 206.248 135.588C206.656 135.828 207.088 135.948 207.544 135.948C208.012 135.948 208.45 135.834 208.858 135.606C209.266 135.366 209.59 135.03 209.83 134.598C210.07 134.154 210.19 133.626 210.19 133.014ZM219.617 138.162C218.657 138.162 217.793 137.952 217.025 137.532C216.257 137.1 215.651 136.494 215.207 135.714C214.775 134.934 214.559 134.034 214.559 133.014C214.559 131.994 214.781 131.094 215.225 130.314C215.681 129.534 216.299 128.934 217.079 128.514C217.859 128.082 218.729 127.866 219.689 127.866C220.649 127.866 221.519 128.082 222.299 128.514C223.079 128.934 223.691 129.534 224.135 130.314C224.591 131.094 224.819 131.994 224.819 133.014C224.819 134.034 224.585 134.934 224.117 135.714C223.661 136.494 223.037 137.1 222.245 137.532C221.465 137.952 220.589 138.162 219.617 138.162ZM219.617 135.966C220.073 135.966 220.499 135.858 220.895 135.642C221.303 135.414 221.627 135.078 221.867 134.634C222.107 134.19 222.227 133.65 222.227 133.014C222.227 132.066 221.975 131.34 221.471 130.836C220.979 130.32 220.373 130.062 219.653 130.062C218.933 130.062 218.327 130.32 217.835 130.836C217.355 131.34 217.115 132.066 217.115 133.014C217.115 133.962 217.349 134.694 217.817 135.21C218.297 135.714 218.897 135.966 219.617 135.966ZM229.188 124.68V138H226.668V124.68H229.188ZM236.106 138.162C235.146 138.162 234.282 137.952 233.514 137.532C232.746 137.1 232.14 136.494 231.696 135.714C231.264 134.934 231.048 134.034 231.048 133.014C231.048 131.994 231.27 131.094 231.714 130.314C232.17 129.534 232.788 128.934 233.568 128.514C234.348 128.082 235.218 127.866 236.178 127.866C237.138 127.866 238.008 128.082 238.788 128.514C239.568 128.934 240.18 129.534 240.624 130.314C241.08 131.094 241.308 131.994 241.308 133.014C241.308 134.034 241.074 134.934 240.606 135.714C240.15 136.494 239.526 137.1 238.734 137.532C237.954 137.952 237.078 138.162 236.106 138.162ZM236.106 135.966C236.562 135.966 236.988 135.858 237.384 135.642C237.792 135.414 238.116 135.078 238.356 134.634C238.596 134.19 238.716 133.65 238.716 133.014C238.716 132.066 238.464 131.34 237.96 130.836C237.468 130.32 236.862 130.062 236.142 130.062C235.422 130.062 234.816 130.32 234.324 130.836C233.844 131.34 233.604 132.066 233.604 133.014C233.604 133.962 233.838 134.694 234.306 135.21C234.786 135.714 235.386 135.966 236.106 135.966ZM248.723 126.84C248.279 126.84 247.907 126.702 247.607 126.426C247.319 126.138 247.175 125.784 247.175 125.364C247.175 124.944 247.319 124.596 247.607 124.32C247.907 124.032 248.279 123.888 248.723 123.888C249.167 123.888 249.533 124.032 249.821 124.32C250.121 124.596 250.271 124.944 250.271 125.364C250.271 125.784 250.121 126.138 249.821 126.426C249.533 126.702 249.167 126.84 248.723 126.84ZM249.965 128.028V138H247.445V128.028H249.965ZM254.975 124.68V138H252.455V124.68H254.975ZM28.762 153.576C29.086 153.048 29.506 152.634 30.022 152.334C30.55 152.034 31.15 151.884 31.822 151.884V154.53H31.156C30.364 154.53 29.764 154.716 29.356 155.088C28.96 155.46 28.762 156.108 28.762 157.032V162H26.242V152.028H28.762V153.576ZM34.7973 150.84C34.3533 150.84 33.9813 150.702 33.6813 150.426C33.3933 150.138 33.2493 149.784 33.2493 149.364C33.2493 148.944 33.3933 148.596 33.6813 148.32C33.9813 148.032 34.3533 147.888 34.7973 147.888C35.2413 147.888 35.6073 148.032 35.8953 148.32C36.1953 148.596 36.3453 148.944 36.3453 149.364C36.3453 149.784 36.1953 150.138 35.8953 150.426C35.6073 150.702 35.2413 150.84 34.7973 150.84ZM36.0393 152.028V162H33.5193V152.028H36.0393ZM42.3451 162.162C41.5291 162.162 40.7971 162.018 40.1491 161.73C39.5011 161.43 38.9851 161.028 38.6011 160.524C38.2291 160.02 38.0251 159.462 37.9891 158.85H40.5271C40.5751 159.234 40.7611 159.552 41.0851 159.804C41.4211 160.056 41.8351 160.182 42.3271 160.182C42.8071 160.182 43.1791 160.086 43.4431 159.894C43.7191 159.702 43.8571 159.456 43.8571 159.156C43.8571 158.832 43.6891 158.592 43.3531 158.436C43.0291 158.268 42.5071 158.088 41.7871 157.896C41.0431 157.716 40.4311 157.53 39.9511 157.338C39.4831 157.146 39.0751 156.852 38.7271 156.456C38.3911 156.06 38.2231 155.526 38.2231 154.854C38.2231 154.302 38.3791 153.798 38.6911 153.342C39.0151 152.886 39.4711 152.526 40.0591 152.262C40.6591 151.998 41.3611 151.866 42.1651 151.866C43.3531 151.866 44.3011 152.166 45.0091 152.766C45.7171 153.354 46.1071 154.152 46.1791 155.16H43.7671C43.7311 154.764 43.5631 154.452 43.2631 154.224C42.9751 153.984 42.5851 153.864 42.0931 153.864C41.6371 153.864 41.2831 153.948 41.0311 154.116C40.7911 154.284 40.6711 154.518 40.6711 154.818C40.6711 155.154 40.8391 155.412 41.1751 155.592C41.5111 155.76 42.0331 155.934 42.7411 156.114C43.4611 156.294 44.0551 156.48 44.5231 156.672C44.9911 156.864 45.3931 157.164 45.7291 157.572C46.0771 157.968 46.2571 158.496 46.2691 159.156C46.2691 159.732 46.1071 160.248 45.7831 160.704C45.4711 161.16 45.0151 161.52 44.4151 161.784C43.8271 162.036 43.1371 162.162 42.3451 162.162ZM47.6897 157.014C47.6897 155.982 47.8997 155.082 48.3197 154.314C48.7397 153.534 49.3217 152.934 50.0657 152.514C50.8097 152.082 51.6617 151.866 52.6217 151.866C53.8577 151.866 54.8777 152.178 55.6817 152.802C56.4977 153.414 57.0437 154.278 57.3197 155.394H54.6017C54.4577 154.962 54.2117 154.626 53.8637 154.386C53.5277 154.134 53.1077 154.008 52.6037 154.008C51.8837 154.008 51.3137 154.272 50.8937 154.8C50.4737 155.316 50.2637 156.054 50.2637 157.014C50.2637 157.962 50.4737 158.7 50.8937 159.228C51.3137 159.744 51.8837 160.002 52.6037 160.002C53.6237 160.002 54.2897 159.546 54.6017 158.634H57.3197C57.0437 159.714 56.4977 160.572 55.6817 161.208C54.8657 161.844 53.8457 162.162 52.6217 162.162C51.6617 162.162 50.8097 161.952 50.0657 161.532C49.3217 161.1 48.7397 160.5 48.3197 159.732C47.8997 158.952 47.6897 158.046 47.6897 157.014ZM58.5178 156.978C58.5178 155.97 58.7158 155.076 59.1118 154.296C59.5198 153.516 60.0658 152.916 60.7498 152.496C61.4458 152.076 62.2198 151.866 63.0718 151.866C63.8158 151.866 64.4638 152.016 65.0158 152.316C65.5798 152.616 66.0298 152.994 66.3658 153.45V152.028H68.9038V162H66.3658V160.542C66.0418 161.01 65.5918 161.4 65.0158 161.712C64.4518 162.012 63.7978 162.162 63.0538 162.162C62.2138 162.162 61.4458 161.946 60.7498 161.514C60.0658 161.082 59.5198 160.476 59.1118 159.696C58.7158 158.904 58.5178 157.998 58.5178 156.978ZM66.3658 157.014C66.3658 156.402 66.2458 155.88 66.0058 155.448C65.7658 155.004 65.4418 154.668 65.0338 154.44C64.6258 154.2 64.1878 154.08 63.7198 154.08C63.2518 154.08 62.8198 154.194 62.4238 154.422C62.0278 154.65 61.7038 154.986 61.4518 155.43C61.2118 155.862 61.0918 156.378 61.0918 156.978C61.0918 157.578 61.2118 158.106 61.4518 158.562C61.7038 159.006 62.0278 159.348 62.4238 159.588C62.8318 159.828 63.2638 159.948 63.7198 159.948C64.1878 159.948 64.6258 159.834 65.0338 159.606C65.4418 159.366 65.7658 159.03 66.0058 158.598C66.2458 158.154 66.3658 157.626 66.3658 157.014ZM73.885 148.68V162H71.365V148.68H73.885ZM75.7268 156.978C75.7268 155.97 75.9248 155.076 76.3208 154.296C76.7288 153.516 77.2808 152.916 77.9768 152.496C78.6728 152.076 79.4468 151.866 80.2988 151.866C80.9468 151.866 81.5648 152.01 82.1528 152.298C82.7408 152.574 83.2088 152.946 83.5568 153.414V148.68H86.1128V162H83.5568V160.524C83.2448 161.016 82.8068 161.412 82.2428 161.712C81.6788 162.012 81.0248 162.162 80.2808 162.162C79.4408 162.162 78.6728 161.946 77.9768 161.514C77.2808 161.082 76.7288 160.476 76.3208 159.696C75.9248 158.904 75.7268 157.998 75.7268 156.978ZM83.5748 157.014C83.5748 156.402 83.4548 155.88 83.2148 155.448C82.9748 155.004 82.6508 154.668 82.2428 154.44C81.8348 154.2 81.3968 154.08 80.9288 154.08C80.4608 154.08 80.0288 154.194 79.6328 154.422C79.2368 154.65 78.9128 154.986 78.6608 155.43C78.4208 155.862 78.3008 156.378 78.3008 156.978C78.3008 157.578 78.4208 158.106 78.6608 158.562C78.9128 159.006 79.2368 159.348 79.6328 159.588C80.0408 159.828 80.4728 159.948 80.9288 159.948C81.3968 159.948 81.8348 159.834 82.2428 159.606C82.6508 159.366 82.9748 159.03 83.2148 158.598C83.4548 158.154 83.5748 157.626 83.5748 157.014ZM87.926 156.978C87.926 155.97 88.124 155.076 88.52 154.296C88.928 153.516 89.474 152.916 90.158 152.496C90.854 152.076 91.628 151.866 92.48 151.866C93.224 151.866 93.872 152.016 94.424 152.316C94.988 152.616 95.438 152.994 95.774 153.45V152.028H98.312V162H95.774V160.542C95.45 161.01 95 161.4 94.424 161.712C93.86 162.012 93.206 162.162 92.462 162.162C91.622 162.162 90.854 161.946 90.158 161.514C89.474 161.082 88.928 160.476 88.52 159.696C88.124 158.904 87.926 157.998 87.926 156.978ZM95.774 157.014C95.774 156.402 95.654 155.88 95.414 155.448C95.174 155.004 94.85 154.668 94.442 154.44C94.034 154.2 93.596 154.08 93.128 154.08C92.66 154.08 92.228 154.194 91.832 154.422C91.436 154.65 91.112 154.986 90.86 155.43C90.62 155.862 90.5 156.378 90.5 156.978C90.5 157.578 90.62 158.106 90.86 158.562C91.112 159.006 91.436 159.348 91.832 159.588C92.24 159.828 92.672 159.948 93.128 159.948C93.596 159.948 94.034 159.834 94.442 159.606C94.85 159.366 95.174 159.03 95.414 158.598C95.654 158.154 95.774 157.626 95.774 157.014ZM113.157 151.884C114.381 151.884 115.365 152.262 116.109 153.018C116.865 153.762 117.243 154.806 117.243 156.15V162H114.723V156.492C114.723 155.712 114.525 155.118 114.129 154.71C113.733 154.29 113.193 154.08 112.509 154.08C111.825 154.08 111.279 154.29 110.871 154.71C110.475 155.118 110.277 155.712 110.277 156.492V162H107.757V156.492C107.757 155.712 107.559 155.118 107.163 154.71C106.767 154.29 106.227 154.08 105.543 154.08C104.847 154.08 104.295 154.29 103.887 154.71C103.491 155.118 103.293 155.712 103.293 156.492V162H100.773V152.028H103.293V153.234C103.617 152.814 104.031 152.484 104.535 152.244C105.051 152.004 105.615 151.884 106.227 151.884C107.007 151.884 107.703 152.052 108.315 152.388C108.927 152.712 109.401 153.18 109.737 153.792C110.061 153.216 110.529 152.754 111.141 152.406C111.765 152.058 112.437 151.884 113.157 151.884ZM128.905 156.798C128.905 157.158 128.881 157.482 128.833 157.77H121.543C121.603 158.49 121.855 159.054 122.299 159.462C122.743 159.87 123.289 160.074 123.937 160.074C124.873 160.074 125.539 159.672 125.935 158.868H128.653C128.365 159.828 127.813 160.62 126.997 161.244C126.181 161.856 125.179 162.162 123.991 162.162C123.031 162.162 122.167 161.952 121.399 161.532C120.643 161.1 120.049 160.494 119.617 159.714C119.197 158.934 118.987 158.034 118.987 157.014C118.987 155.982 119.197 155.076 119.617 154.296C120.037 153.516 120.625 152.916 121.381 152.496C122.137 152.076 123.007 151.866 123.991 151.866C124.939 151.866 125.785 152.07 126.529 152.478C127.285 152.886 127.867 153.468 128.275 154.224C128.695 154.968 128.905 155.826 128.905 156.798ZM126.295 156.078C126.283 155.43 126.049 154.914 125.593 154.53C125.137 154.134 124.579 153.936 123.919 153.936C123.295 153.936 122.767 154.128 122.335 154.512C121.915 154.884 121.657 155.406 121.561 156.078H126.295ZM136.27 151.884C137.458 151.884 138.418 152.262 139.15 153.018C139.882 153.762 140.248 154.806 140.248 156.15V162H137.728V156.492C137.728 155.7 137.53 155.094 137.134 154.674C136.738 154.242 136.198 154.026 135.514 154.026C134.818 154.026 134.266 154.242 133.858 154.674C133.462 155.094 133.264 155.7 133.264 156.492V162H130.744V152.028H133.264V153.27C133.6 152.838 134.026 152.502 134.542 152.262C135.07 152.01 135.646 151.884 136.27 151.884ZM145.578 154.098V158.922C145.578 159.258 145.656 159.504 145.812 159.66C145.98 159.804 146.256 159.876 146.64 159.876H147.81V162H146.226C144.102 162 143.04 160.968 143.04 158.904V154.098H141.852V152.028H143.04V149.562H145.578V152.028H147.81V154.098H145.578ZM154.051 162.162C153.091 162.162 152.227 161.952 151.459 161.532C150.691 161.1 150.085 160.494 149.641 159.714C149.209 158.934 148.993 158.034 148.993 157.014C148.993 155.994 149.215 155.094 149.659 154.314C150.115 153.534 150.733 152.934 151.513 152.514C152.293 152.082 153.163 151.866 154.123 151.866C155.083 151.866 155.953 152.082 156.733 152.514C157.513 152.934 158.125 153.534 158.569 154.314C159.025 155.094 159.253 155.994 159.253 157.014C159.253 158.034 159.019 158.934 158.551 159.714C158.095 160.494 157.471 161.1 156.679 161.532C155.899 161.952 155.023 162.162 154.051 162.162ZM154.051 159.966C154.507 159.966 154.933 159.858 155.329 159.642C155.737 159.414 156.061 159.078 156.301 158.634C156.541 158.19 156.661 157.65 156.661 157.014C156.661 156.066 156.409 155.34 155.905 154.836C155.413 154.32 154.807 154.062 154.087 154.062C153.367 154.062 152.761 154.32 152.269 154.836C151.789 155.34 151.549 156.066 151.549 157.014C151.549 157.962 151.783 158.694 152.251 159.21C152.731 159.714 153.331 159.966 154.051 159.966ZM167.91 153.468C168.234 153.012 168.678 152.634 169.242 152.334C169.818 152.022 170.472 151.866 171.204 151.866C172.056 151.866 172.824 152.076 173.508 152.496C174.204 152.916 174.75 153.516 175.146 154.296C175.554 155.064 175.758 155.958 175.758 156.978C175.758 157.998 175.554 158.904 175.146 159.696C174.75 160.476 174.204 161.082 173.508 161.514C172.824 161.946 172.056 162.162 171.204 162.162C170.472 162.162 169.824 162.012 169.26 161.712C168.708 161.412 168.258 161.034 167.91 160.578V166.752H165.39V152.028H167.91V153.468ZM173.184 156.978C173.184 156.378 173.058 155.862 172.806 155.43C172.566 154.986 172.242 154.65 171.834 154.422C171.438 154.194 171.006 154.08 170.538 154.08C170.082 154.08 169.65 154.2 169.242 154.44C168.846 154.668 168.522 155.004 168.27 155.448C168.03 155.892 167.91 156.414 167.91 157.014C167.91 157.614 168.03 158.136 168.27 158.58C168.522 159.024 168.846 159.366 169.242 159.606C169.65 159.834 170.082 159.948 170.538 159.948C171.006 159.948 171.438 159.828 171.834 159.588C172.242 159.348 172.566 159.006 172.806 158.562C173.058 158.118 173.184 157.59 173.184 156.978ZM180.11 153.576C180.434 153.048 180.854 152.634 181.37 152.334C181.898 152.034 182.498 151.884 183.17 151.884V154.53H182.504C181.712 154.53 181.112 154.716 180.704 155.088C180.308 155.46 180.11 156.108 180.11 157.032V162H177.59V152.028H180.11V153.576ZM186.145 150.84C185.701 150.84 185.329 150.702 185.029 150.426C184.741 150.138 184.597 149.784 184.597 149.364C184.597 148.944 184.741 148.596 185.029 148.32C185.329 148.032 185.701 147.888 186.145 147.888C186.589 147.888 186.955 148.032 187.243 148.32C187.543 148.596 187.693 148.944 187.693 149.364C187.693 149.784 187.543 150.138 187.243 150.426C186.955 150.702 186.589 150.84 186.145 150.84ZM187.387 152.028V162H184.867V152.028H187.387ZM202.261 151.884C203.485 151.884 204.469 152.262 205.213 153.018C205.969 153.762 206.347 154.806 206.347 156.15V162H203.827V156.492C203.827 155.712 203.629 155.118 203.233 154.71C202.837 154.29 202.297 154.08 201.613 154.08C200.929 154.08 200.383 154.29 199.975 154.71C199.579 155.118 199.381 155.712 199.381 156.492V162H196.861V156.492C196.861 155.712 196.663 155.118 196.267 154.71C195.871 154.29 195.331 154.08 194.647 154.08C193.951 154.08 193.399 154.29 192.991 154.71C192.595 155.118 192.397 155.712 192.397 156.492V162H189.877V152.028H192.397V153.234C192.721 152.814 193.135 152.484 193.639 152.244C194.155 152.004 194.719 151.884 195.331 151.884C196.111 151.884 196.807 152.052 197.419 152.388C198.031 152.712 198.505 153.18 198.841 153.792C199.165 153.216 199.633 152.754 200.245 152.406C200.869 152.058 201.541 151.884 202.261 151.884ZM208.09 156.978C208.09 155.97 208.288 155.076 208.684 154.296C209.092 153.516 209.638 152.916 210.322 152.496C211.018 152.076 211.792 151.866 212.644 151.866C213.388 151.866 214.036 152.016 214.588 152.316C215.152 152.616 215.602 152.994 215.938 153.45V152.028H218.476V162H215.938V160.542C215.614 161.01 215.164 161.4 214.588 161.712C214.024 162.012 213.37 162.162 212.626 162.162C211.786 162.162 211.018 161.946 210.322 161.514C209.638 161.082 209.092 160.476 208.684 159.696C208.288 158.904 208.09 157.998 208.09 156.978ZM215.938 157.014C215.938 156.402 215.818 155.88 215.578 155.448C215.338 155.004 215.014 154.668 214.606 154.44C214.198 154.2 213.76 154.08 213.292 154.08C212.824 154.08 212.392 154.194 211.996 154.422C211.6 154.65 211.276 154.986 211.024 155.43C210.784 155.862 210.664 156.378 210.664 156.978C210.664 157.578 210.784 158.106 211.024 158.562C211.276 159.006 211.6 159.348 211.996 159.588C212.404 159.828 212.836 159.948 213.292 159.948C213.76 159.948 214.198 159.834 214.606 159.606C215.014 159.366 215.338 159.03 215.578 158.598C215.818 158.154 215.938 157.626 215.938 157.014ZM224.578 157.014C224.578 155.982 224.788 155.082 225.208 154.314C225.628 153.534 226.21 152.934 226.954 152.514C227.698 152.082 228.55 151.866 229.51 151.866C230.746 151.866 231.766 152.178 232.57 152.802C233.386 153.414 233.932 154.278 234.208 155.394H231.49C231.346 154.962 231.1 154.626 230.752 154.386C230.416 154.134 229.996 154.008 229.492 154.008C228.772 154.008 228.202 154.272 227.782 154.8C227.362 155.316 227.152 156.054 227.152 157.014C227.152 157.962 227.362 158.7 227.782 159.228C228.202 159.744 228.772 160.002 229.492 160.002C230.512 160.002 231.178 159.546 231.49 158.634H234.208C233.932 159.714 233.386 160.572 232.57 161.208C231.754 161.844 230.734 162.162 229.51 162.162C228.55 162.162 227.698 161.952 226.954 161.532C226.21 161.1 225.628 160.5 225.208 159.732C224.788 158.952 224.578 158.046 224.578 157.014ZM241.671 151.884C242.427 151.884 243.099 152.052 243.687 152.388C244.275 152.712 244.731 153.198 245.055 153.846C245.391 154.482 245.559 155.25 245.559 156.15V162H243.039V156.492C243.039 155.7 242.841 155.094 242.445 154.674C242.049 154.242 241.509 154.026 240.825 154.026C240.129 154.026 239.577 154.242 239.169 154.674C238.773 155.094 238.575 155.7 238.575 156.492V162H236.055V148.68H238.575V153.27C238.899 152.838 239.331 152.502 239.871 152.262C240.411 152.01 241.011 151.884 241.671 151.884ZM257.225 156.798C257.225 157.158 257.201 157.482 257.153 157.77H249.863C249.923 158.49 250.175 159.054 250.619 159.462C251.063 159.87 251.609 160.074 252.257 160.074C253.193 160.074 253.859 159.672 254.255 158.868H256.973C256.685 159.828 256.133 160.62 255.317 161.244C254.501 161.856 253.499 162.162 252.311 162.162C251.351 162.162 250.487 161.952 249.719 161.532C248.963 161.1 248.369 160.494 247.937 159.714C247.517 158.934 247.307 158.034 247.307 157.014C247.307 155.982 247.517 155.076 247.937 154.296C248.357 153.516 248.945 152.916 249.701 152.496C250.457 152.076 251.327 151.866 252.311 151.866C253.259 151.866 254.105 152.07 254.849 152.478C255.605 152.886 256.187 153.468 256.595 154.224C257.015 154.968 257.225 155.826 257.225 156.798ZM254.615 156.078C254.603 155.43 254.369 154.914 253.913 154.53C253.457 154.134 252.899 153.936 252.239 153.936C251.615 153.936 251.087 154.128 250.655 154.512C250.235 154.884 249.977 155.406 249.881 156.078H254.615ZM266.287 154.098V158.922C266.287 159.258 266.365 159.504 266.521 159.66C266.689 159.804 266.965 159.876 267.349 159.876H268.519V162H266.935C264.811 162 263.749 160.968 263.749 158.904V154.098H262.561V152.028H263.749V149.562H266.287V152.028H268.519V154.098H266.287ZM279.746 152.028V162H277.208V160.74C276.884 161.172 276.458 161.514 275.93 161.766C275.414 162.006 274.85 162.126 274.238 162.126C273.458 162.126 272.768 161.964 272.168 161.64C271.568 161.304 271.094 160.818 270.746 160.182C270.41 159.534 270.242 158.766 270.242 157.878V152.028H272.762V157.518C272.762 158.31 272.96 158.922 273.356 159.354C273.752 159.774 274.292 159.984 274.976 159.984C275.672 159.984 276.218 159.774 276.614 159.354C277.01 158.922 277.208 158.31 277.208 157.518V152.028H279.746ZM285.873 156.978C285.873 155.97 286.071 155.076 286.467 154.296C286.875 153.516 287.421 152.916 288.105 152.496C288.801 152.076 289.575 151.866 290.427 151.866C291.171 151.866 291.819 152.016 292.371 152.316C292.935 152.616 293.385 152.994 293.721 153.45V152.028H296.259V162H293.721V160.542C293.397 161.01 292.947 161.4 292.371 161.712C291.807 162.012 291.153 162.162 290.409 162.162C289.569 162.162 288.801 161.946 288.105 161.514C287.421 161.082 286.875 160.476 286.467 159.696C286.071 158.904 285.873 157.998 285.873 156.978ZM293.721 157.014C293.721 156.402 293.601 155.88 293.361 155.448C293.121 155.004 292.797 154.668 292.389 154.44C291.981 154.2 291.543 154.08 291.075 154.08C290.607 154.08 290.175 154.194 289.779 154.422C289.383 154.65 289.059 154.986 288.807 155.43C288.567 155.862 288.447 156.378 288.447 156.978C288.447 157.578 288.567 158.106 288.807 158.562C289.059 159.006 289.383 159.348 289.779 159.588C290.187 159.828 290.619 159.948 291.075 159.948C291.543 159.948 291.981 159.834 292.389 159.606C292.797 159.366 293.121 159.03 293.361 158.598C293.601 158.154 293.721 157.626 293.721 157.014ZM301.241 153.576C301.565 153.048 301.985 152.634 302.501 152.334C303.029 152.034 303.629 151.884 304.301 151.884V154.53H303.635C302.843 154.53 302.243 154.716 301.835 155.088C301.439 155.46 301.241 156.108 301.241 157.032V162H298.721V152.028H301.241V153.576ZM308.518 153.576C308.842 153.048 309.262 152.634 309.778 152.334C310.306 152.034 310.906 151.884 311.578 151.884V154.53H310.912C310.12 154.53 309.52 154.716 309.112 155.088C308.716 155.46 308.518 156.108 308.518 157.032V162H305.998V152.028H308.518V153.576ZM314.553 150.84C314.109 150.84 313.737 150.702 313.437 150.426C313.149 150.138 313.005 149.784 313.005 149.364C313.005 148.944 313.149 148.596 313.437 148.32C313.737 148.032 314.109 147.888 314.553 147.888C314.997 147.888 315.363 148.032 315.651 148.32C315.951 148.596 316.101 148.944 316.101 149.364C316.101 149.784 315.951 150.138 315.651 150.426C315.363 150.702 314.997 150.84 314.553 150.84ZM315.795 152.028V162H313.275V152.028H315.795ZM322.443 159.678L324.963 152.028H327.645L323.955 162H320.895L317.223 152.028H319.923L322.443 159.678ZM330.338 150.84C329.894 150.84 329.522 150.702 329.222 150.426C328.934 150.138 328.79 149.784 328.79 149.364C328.79 148.944 328.934 148.596 329.222 148.32C329.522 148.032 329.894 147.888 330.338 147.888C330.782 147.888 331.148 148.032 331.436 148.32C331.736 148.596 331.886 148.944 331.886 149.364C331.886 149.784 331.736 150.138 331.436 150.426C331.148 150.702 330.782 150.84 330.338 150.84ZM331.58 152.028V162H329.06V152.028H331.58ZM25.594 180.978C25.594 179.97 25.792 179.076 26.188 178.296C26.596 177.516 27.142 176.916 27.826 176.496C28.522 176.076 29.296 175.866 30.148 175.866C30.892 175.866 31.54 176.016 32.092 176.316C32.656 176.616 33.106 176.994 33.442 177.45V176.028H35.98V186H33.442V184.542C33.118 185.01 32.668 185.4 32.092 185.712C31.528 186.012 30.874 186.162 30.13 186.162C29.29 186.162 28.522 185.946 27.826 185.514C27.142 185.082 26.596 184.476 26.188 183.696C25.792 182.904 25.594 181.998 25.594 180.978ZM33.442 181.014C33.442 180.402 33.322 179.88 33.082 179.448C32.842 179.004 32.518 178.668 32.11 178.44C31.702 178.2 31.264 178.08 30.796 178.08C30.328 178.08 29.896 178.194 29.5 178.422C29.104 178.65 28.78 178.986 28.528 179.43C28.288 179.862 28.168 180.378 28.168 180.978C28.168 181.578 28.288 182.106 28.528 182.562C28.78 183.006 29.104 183.348 29.5 183.588C29.908 183.828 30.34 183.948 30.796 183.948C31.264 183.948 31.702 183.834 32.11 183.606C32.518 183.366 32.842 183.03 33.082 182.598C33.322 182.154 33.442 181.626 33.442 181.014ZM40.9612 172.68V186H38.4412V172.68H40.9612ZM45.971 172.68V186H43.451V172.68H45.971ZM57.7308 180.798C57.7308 181.158 57.7068 181.482 57.6588 181.77H50.3688C50.4288 182.49 50.6808 183.054 51.1248 183.462C51.5688 183.87 52.1148 184.074 52.7628 184.074C53.6988 184.074 54.3648 183.672 54.7608 182.868H57.4788C57.1908 183.828 56.6388 184.62 55.8228 185.244C55.0068 185.856 54.0048 186.162 52.8168 186.162C51.8568 186.162 50.9928 185.952 50.2248 185.532C49.4688 185.1 48.8748 184.494 48.4428 183.714C48.0228 182.934 47.8127 182.034 47.8127 181.014C47.8127 179.982 48.0228 179.076 48.4428 178.296C48.8628 177.516 49.4508 176.916 50.2068 176.496C50.9628 176.076 51.8328 175.866 52.8168 175.866C53.7648 175.866 54.6108 176.07 55.3548 176.478C56.1108 176.886 56.6928 177.468 57.1008 178.224C57.5208 178.968 57.7308 179.826 57.7308 180.798ZM55.1208 180.078C55.1088 179.43 54.8748 178.914 54.4188 178.53C53.9628 178.134 53.4048 177.936 52.7448 177.936C52.1208 177.936 51.5928 178.128 51.1608 178.512C50.7408 178.884 50.4828 179.406 50.3868 180.078H55.1208ZM63.2652 175.2V172.878H67.6032V186H65.0112V175.2H63.2652ZM73.0087 182.31C73.1047 182.838 73.3207 183.246 73.6567 183.534C74.0047 183.81 74.4667 183.948 75.0427 183.948C75.7867 183.948 76.3267 183.642 76.6627 183.03C76.9987 182.406 77.1667 181.362 77.1667 179.898C76.8907 180.282 76.5007 180.582 75.9967 180.798C75.5047 181.014 74.9707 181.122 74.3947 181.122C73.6267 181.122 72.9307 180.966 72.3067 180.654C71.6947 180.33 71.2087 179.856 70.8487 179.232C70.4887 178.596 70.3087 177.828 70.3087 176.928C70.3087 175.596 70.7047 174.54 71.4967 173.76C72.2887 172.968 73.3687 172.572 74.7367 172.572C76.4407 172.572 77.6407 173.118 78.3367 174.21C79.0447 175.302 79.3987 176.946 79.3987 179.142C79.3987 180.702 79.2607 181.98 78.9847 182.976C78.7207 183.972 78.2587 184.728 77.5987 185.244C76.9507 185.76 76.0627 186.018 74.9347 186.018C74.0467 186.018 73.2907 185.85 72.6667 185.514C72.0427 185.166 71.5627 184.716 71.2267 184.164C70.9027 183.6 70.7167 182.982 70.6687 182.31H73.0087ZM74.9167 179.07C75.5407 179.07 76.0327 178.878 76.3927 178.494C76.7527 178.11 76.9327 177.594 76.9327 176.946C76.9327 176.238 76.7407 175.692 76.3567 175.308C75.9847 174.912 75.4747 174.714 74.8267 174.714C74.1787 174.714 73.6627 174.918 73.2787 175.326C72.9067 175.722 72.7207 176.25 72.7207 176.91C72.7207 177.546 72.9007 178.068 73.2607 178.476C73.6327 178.872 74.1847 179.07 74.9167 179.07ZM82.7643 186.126C82.3083 186.126 81.9303 185.988 81.6303 185.712C81.3423 185.424 81.1983 185.07 81.1983 184.65C81.1983 184.23 81.3423 183.882 81.6303 183.606C81.9303 183.318 82.3083 183.174 82.7643 183.174C83.2083 183.174 83.5743 183.318 83.8623 183.606C84.1503 183.882 84.2943 184.23 84.2943 184.65C84.2943 185.07 84.1503 185.424 83.8623 185.712C83.5743 185.988 83.2083 186.126 82.7643 186.126ZM82.7643 178.674C82.3083 178.674 81.9303 178.536 81.6303 178.26C81.3423 177.972 81.1983 177.618 81.1983 177.198C81.1983 176.778 81.3423 176.43 81.6303 176.154C81.9303 175.866 82.3083 175.722 82.7643 175.722C83.2083 175.722 83.5743 175.866 83.8623 176.154C84.1503 176.43 84.2943 176.778 84.2943 177.198C84.2943 177.618 84.1503 177.972 83.8623 178.26C83.5743 178.536 83.2083 178.674 82.7643 178.674ZM86.0888 179.268C86.0888 177.192 86.4608 175.566 87.2048 174.39C87.9608 173.214 89.2088 172.626 90.9488 172.626C92.6888 172.626 93.9308 173.214 94.6748 174.39C95.4308 175.566 95.8088 177.192 95.8088 179.268C95.8088 181.356 95.4308 182.994 94.6748 184.182C93.9308 185.37 92.6888 185.964 90.9488 185.964C89.2088 185.964 87.9608 185.37 87.2048 184.182C86.4608 182.994 86.0888 181.356 86.0888 179.268ZM93.3248 179.268C93.3248 178.38 93.2648 177.636 93.1448 177.036C93.0368 176.424 92.8088 175.926 92.4608 175.542C92.1248 175.158 91.6208 174.966 90.9488 174.966C90.2768 174.966 89.7668 175.158 89.4188 175.542C89.0828 175.926 88.8548 176.424 88.7348 177.036C88.6268 177.636 88.5728 178.38 88.5728 179.268C88.5728 180.18 88.6268 180.948 88.7348 181.572C88.8428 182.184 89.0708 182.682 89.4188 183.066C89.7668 183.438 90.2768 183.624 90.9488 183.624C91.6208 183.624 92.1308 183.438 92.4788 183.066C92.8268 182.682 93.0548 182.184 93.1628 181.572C93.2708 180.948 93.3248 180.18 93.3248 179.268ZM97.7255 179.268C97.7255 177.192 98.0975 175.566 98.8415 174.39C99.5975 173.214 100.845 172.626 102.585 172.626C104.325 172.626 105.567 173.214 106.311 174.39C107.067 175.566 107.445 177.192 107.445 179.268C107.445 181.356 107.067 182.994 106.311 184.182C105.567 185.37 104.325 185.964 102.585 185.964C100.845 185.964 99.5975 185.37 98.8415 184.182C98.0975 182.994 97.7255 181.356 97.7255 179.268ZM104.961 179.268C104.961 178.38 104.901 177.636 104.781 177.036C104.673 176.424 104.445 175.926 104.097 175.542C103.761 175.158 103.257 174.966 102.585 174.966C101.913 174.966 101.403 175.158 101.055 175.542C100.719 175.926 100.491 176.424 100.371 177.036C100.263 177.636 100.209 178.38 100.209 179.268C100.209 180.18 100.263 180.948 100.371 181.572C100.479 182.184 100.707 182.682 101.055 183.066C101.403 183.438 101.913 183.624 102.585 183.624C103.257 183.624 103.767 183.438 104.115 183.066C104.463 182.682 104.691 182.184 104.799 181.572C104.907 180.948 104.961 180.18 104.961 179.268ZM110.766 186.126C110.31 186.126 109.932 185.988 109.632 185.712C109.344 185.424 109.2 185.07 109.2 184.65C109.2 184.23 109.344 183.882 109.632 183.606C109.932 183.318 110.31 183.174 110.766 183.174C111.21 183.174 111.576 183.318 111.864 183.606C112.152 183.882 112.296 184.23 112.296 184.65C112.296 185.07 112.152 185.424 111.864 185.712C111.576 185.988 111.21 186.126 110.766 186.126Z" fill="white"/>
<rect x="290" y="212" width="44" height="24" rx="12" fill="white" fill-opacity="0.22"/>
<g filter="url(#filter1_d_110_255)">
<rect x="292" y="214" width="20" height="20" rx="10" fill="white" fill-opacity="0.5" shape-rendering="crispEdges"/>
</g>
<defs>
<filter id="filter1_d_110_255" x="288" y="212" width="28" height="28" filterUnits="userSpaceOnUse" color-interpolation-filters="sRGB">
<feFlood flood-opacity="0" result="BackgroundImageFix"/>
<feColorMatrix in="SourceAlpha" type="matrix" values="0 0 0 0 0 0 0 0 0 0 0 0 0 0 0 0 0 0 127 0" result="hardAlpha"/>
<feOffset dy="2"/>
<feGaussianBlur stdDeviation="2"/>
<feComposite in2="hardAlpha" operator="out"/>
<feColorMatrix type="matrix" values="0 0 0 0 0.152941 0 0 0 0 0.152941 0 0 0 0 0.152941 0 0 0 0.1 0"/>
<feBlend mode="normal" in2="BackgroundImageFix" result="effect1_dropShadow_110_255"/>
<feBlend mode="normal" in="SourceGraphic" in2="effect1_dropShadow_110_255" result="shape"/>
</filter>
</defs>
</svg>
