<svg width="345" height="142" viewBox="0 0 345 142" fill="none" xmlns="http://www.w3.org/2000/svg">
<g filter="url(#filter0_d_207_508)">
<circle cx="46" cy="77" r="16" fill="#F48457"/>
<path d="M46 69C39 69 35 77 35 77C35 77 39 85 46 85C53 85 57 77 57 77C57 77 53 69 46 69Z" stroke="white" stroke-width="1.75" stroke-linecap="round" stroke-linejoin="round"/>
</g>
<g filter="url(#filter1_d_207_508)">
<circle cx="136" cy="45" r="16" fill="#F48457"/>
<path d="M136 37C129 37 125 45 125 45C125 45 129 53 136 53C143 53 147 45 147 45C147 45 143 37 136 37Z" stroke="white" stroke-width="1.75" stroke-linecap="round" stroke-linejoin="round"/>
</g>
<g filter="url(#filter2_d_207_508)">
<circle cx="205" cy="45" r="16" fill="#F48457"/>
<path d="M205 37C198 37 194 45 194 45C194 45 198 53 205 53C212 53 216 45 216 45C216 45 212 37 205 37Z" stroke="white" stroke-width="1.75" stroke-linecap="round" stroke-linejoin="round"/>
</g>
<g filter="url(#filter3_d_207_508)">
<circle cx="173" cy="109" r="16" fill="#F48457"/>
<path d="M173 101C166 101 162 109 162 109C162 109 166 117 173 117C180 117 184 109 184 109C184 109 180 101 173 101Z" stroke="white" stroke-width="1.75" stroke-linecap="round" stroke-linejoin="round"/>
</g>
<g filter="url(#filter4_d_207_508)">
<circle cx="287" cy="71" r="16" fill="#F48457"/>
<path d="M287 63C280 63 276 71 276 71C276 71 280 79 287 79C294 79 298 71 298 71C298 71 294 63 287 63Z" stroke="white" stroke-width="1.75" stroke-linecap="round" stroke-linejoin="round"/>
</g>
<defs>
<filter id="filter0_d_207_508" x="17.2" y="47.2" width="57.6" height="57.6" filterUnits="userSpaceOnUse" color-interpolation-filters="sRGB">
<feFlood flood-opacity="0" result="BackgroundImageFix"/>
<feColorMatrix in="SourceAlpha" type="matrix" values="0 0 0 0 0 0 0 0 0 0 0 0 0 0 0 0 0 0 127 0" result="hardAlpha"/>
<feOffset dy="-1"/>
<feGaussianBlur stdDeviation="6.4"/>
<feComposite in2="hardAlpha" operator="out"/>
<feColorMatrix type="matrix" values="0 0 0 0 0 0 0 0 0 0 0 0 0 0 0 0 0 0 0.25 0"/>
<feBlend mode="normal" in2="BackgroundImageFix" result="effect1_dropShadow_207_508"/>
<feBlend mode="normal" in="SourceGraphic" in2="effect1_dropShadow_207_508" result="shape"/>
</filter>
<filter id="filter1_d_207_508" x="107.2" y="15.2" width="57.6" height="57.6" filterUnits="userSpaceOnUse" color-interpolation-filters="sRGB">
<feFlood flood-opacity="0" result="BackgroundImageFix"/>
<feColorMatrix in="SourceAlpha" type="matrix" values="0 0 0 0 0 0 0 0 0 0 0 0 0 0 0 0 0 0 127 0" result="hardAlpha"/>
<feOffset dy="-1"/>
<feGaussianBlur stdDeviation="6.4"/>
<feComposite in2="hardAlpha" operator="out"/>
<feColorMatrix type="matrix" values="0 0 0 0 0 0 0 0 0 0 0 0 0 0 0 0 0 0 0.25 0"/>
<feBlend mode="normal" in2="BackgroundImageFix" result="effect1_dropShadow_207_508"/>
<feBlend mode="normal" in="SourceGraphic" in2="effect1_dropShadow_207_508" result="shape"/>
</filter>
<filter id="filter2_d_207_508" x="176.2" y="15.2" width="57.6" height="57.6" filterUnits="userSpaceOnUse" color-interpolation-filters="sRGB">
<feFlood flood-opacity="0" result="BackgroundImageFix"/>
<feColorMatrix in="SourceAlpha" type="matrix" values="0 0 0 0 0 0 0 0 0 0 0 0 0 0 0 0 0 0 127 0" result="hardAlpha"/>
<feOffset dy="-1"/>
<feGaussianBlur stdDeviation="6.4"/>
<feComposite in2="hardAlpha" operator="out"/>
<feColorMatrix type="matrix" values="0 0 0 0 0 0 0 0 0 0 0 0 0 0 0 0 0 0 0.25 0"/>
<feBlend mode="normal" in2="BackgroundImageFix" result="effect1_dropShadow_207_508"/>
<feBlend mode="normal" in="SourceGraphic" in2="effect1_dropShadow_207_508" result="shape"/>
</filter>
<filter id="filter3_d_207_508" x="144.2" y="79.2" width="57.6" height="57.6" filterUnits="userSpaceOnUse" color-interpolation-filters="sRGB">
<feFlood flood-opacity="0" result="BackgroundImageFix"/>
<feColorMatrix in="SourceAlpha" type="matrix" values="0 0 0 0 0 0 0 0 0 0 0 0 0 0 0 0 0 0 127 0" result="hardAlpha"/>
<feOffset dy="-1"/>
<feGaussianBlur stdDeviation="6.4"/>
<feComposite in2="hardAlpha" operator="out"/>
<feColorMatrix type="matrix" values="0 0 0 0 0 0 0 0 0 0 0 0 0 0 0 0 0 0 0.25 0"/>
<feBlend mode="normal" in2="BackgroundImageFix" result="effect1_dropShadow_207_508"/>
<feBlend mode="normal" in="SourceGraphic" in2="effect1_dropShadow_207_508" result="shape"/>
</filter>
<filter id="filter4_d_207_508" x="258.2" y="41.2" width="57.6" height="57.6" filterUnits="userSpaceOnUse" color-interpolation-filters="sRGB">
<feFlood flood-opacity="0" result="BackgroundImageFix"/>
<feColorMatrix in="SourceAlpha" type="matrix" values="0 0 0 0 0 0 0 0 0 0 0 0 0 0 0 0 0 0 127 0" result="hardAlpha"/>
<feOffset dy="-1"/>
<feGaussianBlur stdDeviation="6.4"/>
<feComposite in2="hardAlpha" operator="out"/>
<feColorMatrix type="matrix" values="0 0 0 0 0 0 0 0 0 0 0 0 0 0 0 0 0 0 0.25 0"/>
<feBlend mode="normal" in2="BackgroundImageFix" result="effect1_dropShadow_207_508"/>
<feBlend mode="normal" in="SourceGraphic" in2="effect1_dropShadow_207_508" result="shape"/>
</filter>
</defs>
</svg>
